<svg width="42" height="26" viewBox="0 0 42 26" fill="none" xmlns="http://www.w3.org/2000/svg">
    <g clip-path="url(#clip0_34_1547)">
    <path d="M-0.000400391 3.57651C0.148076 3.43678 0.125928 3.23855 0.178428 3.0655C0.70917 1.30985 2.44823 0.00591162 4.31444 0.00428677C11.4594 -0.00221262 18.6043 -0.000587774 25.7492 0.00428677C27.0043 0.00509919 28.0354 0.526675 28.9107 1.39597C31.4291 3.8958 33.954 6.38913 36.4732 8.88814C37.3837 9.79074 38.414 10.5122 39.6707 10.838C40.8585 11.1459 41.6559 11.8226 41.9988 13.0006C41.9988 14.9773 41.9988 16.9547 41.9988 18.9313C41.8446 19.0995 41.8725 19.3278 41.8003 19.5236C41.281 20.9315 40.3278 21.9048 38.8701 22.3435C38.5502 22.4402 38.3968 22.5759 38.3016 22.9049C37.5117 25.6289 34.2329 26.8622 31.8253 25.3414C30.8876 24.7491 30.2142 23.9285 29.9279 22.8415C29.8639 22.5978 29.7499 22.536 29.5071 22.5369C23.8354 22.5434 18.163 22.5434 12.4913 22.5369C12.2485 22.5369 12.141 22.601 12.0697 22.8415C11.502 24.7458 9.80069 26.01 7.84589 25.9994C5.89683 25.9888 4.1996 24.6947 3.66065 22.7895C3.59339 22.5523 3.48593 22.4556 3.24394 22.3841C1.61315 21.9032 0.571357 20.8365 0.107881 19.2132C0.0808105 19.119 0.136592 18.9858 -0.0012207 18.9321C-0.000400391 13.8131 -0.000400391 8.69478 -0.000400391 3.57651ZM15.0138 1.725C11.5562 1.725 8.09855 1.72175 4.64011 1.72663C2.88546 1.72906 1.75015 2.79659 1.7444 4.50268C1.72882 9.01 1.73456 13.5173 1.74276 18.0247C1.7444 19.0865 2.1644 19.9412 3.13237 20.4757C3.58026 20.7227 3.5819 20.7195 3.74761 20.2564C4.37925 18.4861 6.10519 17.2829 7.95171 17.3268C9.82694 17.3715 11.5061 18.6177 12.0442 20.4026C12.141 20.7235 12.269 20.8088 12.598 20.8088C18.2015 20.7975 23.8051 20.7966 29.4086 20.8105C29.7515 20.8113 29.8598 20.7016 29.9541 20.3945C30.5718 18.3797 32.5734 17.0977 34.6668 17.382C36.4773 17.6282 37.6495 18.673 38.2836 20.3409C38.3541 20.5277 38.3705 20.7227 38.6568 20.5862C39.5017 20.1833 40.0924 19.5504 40.1875 18.6202C40.3606 16.9352 40.2425 15.2405 40.2491 13.5498C40.2507 13.0323 39.9833 12.7561 39.446 12.6082C37.7865 12.1525 36.3837 11.2832 35.1738 10.0775C32.7448 7.65894 30.2872 5.26879 27.8787 2.83152C27.1035 2.04753 26.2307 1.71038 25.1405 1.71769C21.765 1.73962 18.3894 1.725 15.0138 1.725ZM10.4889 21.6781C10.5012 20.2734 9.32655 19.0995 7.89757 19.0881C6.46448 19.0767 5.28897 20.2117 5.26108 21.6326C5.23319 23.0422 6.43659 24.2486 7.87296 24.2519C9.29046 24.2551 10.4766 23.0877 10.4889 21.6781ZM34.1131 19.0889C32.6825 19.0946 31.507 20.2588 31.5103 21.6676C31.5127 23.0731 32.6907 24.2413 34.1164 24.2527C35.5446 24.2641 36.7578 23.0576 36.7398 21.6448C36.7209 20.2288 35.5437 19.0832 34.1131 19.0889Z" fill="#44B649"/>
    <path d="M27.1022 12.1243C25.4354 12.1243 23.7677 12.126 22.1008 12.1235C21.3133 12.1219 21.0008 11.8172 20.9999 11.0463C20.9975 8.86733 21.0008 6.68841 20.9983 4.50949C20.9975 4.10084 21.114 3.75475 21.5069 3.56789C21.8293 3.41516 22.1467 3.45497 22.4281 3.68001C22.6996 3.89692 22.7415 4.19752 22.7406 4.52087C22.7365 6.3212 22.7513 8.12071 22.7292 9.92023C22.7242 10.3118 22.8243 10.4126 23.2222 10.4101C26.1597 10.3923 29.0981 10.4004 32.0356 10.4012C32.1857 10.4012 32.3383 10.3955 32.4851 10.4207C32.9667 10.5044 33.2587 10.8708 33.2292 11.3371C33.2013 11.7766 32.8731 12.1008 32.3908 12.1138C31.7214 12.1325 31.052 12.1227 30.3827 12.1227C29.2892 12.1243 28.1957 12.1243 27.1022 12.1243Z" fill="#44B649"/>
    <path d="M12.2391 7.78135C12.2391 6.69921 12.2342 5.61706 12.2407 4.53491C12.2448 3.91015 12.5442 3.53075 13.0405 3.49013C13.627 3.44301 14.0027 3.83622 14.0093 4.52922C14.0175 5.4757 14.0118 6.42298 14.0118 7.37027C14.0118 8.26312 14.0233 9.15598 14.0052 10.0488C13.9995 10.3397 14.0954 10.4104 14.3768 10.4071C15.6745 10.3933 16.9723 10.3941 18.2692 10.4047C18.9714 10.4104 19.3979 10.9587 19.1896 11.5567C19.0624 11.9215 18.745 12.1205 18.2462 12.1229C17.0035 12.1278 15.7607 12.1246 14.5171 12.1246C14.1209 12.1246 13.7247 12.127 13.3285 12.1238C12.5656 12.1173 12.244 11.798 12.2399 11.0286C12.235 9.94565 12.2391 8.8635 12.2391 7.78135Z" fill="#44B649"/>
    <path d="M3.51084 7.80704C3.51084 6.67046 3.50181 5.53388 3.51494 4.3973C3.52232 3.74492 4.05142 3.34277 4.6322 3.51745C5.02431 3.63525 5.24826 3.9854 5.24908 4.50942C5.25154 6.26913 5.2499 8.02802 5.2499 9.78692C5.2499 10.4011 5.2499 10.4011 5.87826 10.4011C7.09396 10.4011 8.30967 10.393 9.52537 10.4044C10.2333 10.4117 10.659 10.9698 10.4269 11.5637C10.2907 11.9122 10.0258 12.1145 9.64513 12.1161C7.8831 12.1226 6.12107 12.1283 4.35822 12.1137C3.82009 12.1096 3.51658 11.7562 3.51248 11.1762C3.50509 10.0526 3.51084 8.92981 3.51084 7.80704Z" fill="#44B649"/>
    <path d="M26.2835 13.89C26.5969 13.89 26.9119 13.8713 27.2236 13.8948C27.6313 13.9257 27.9348 14.2369 27.975 14.6236C28.0201 15.0485 27.8052 15.4506 27.3934 15.5278C26.642 15.6684 25.8726 15.6635 25.1203 15.5319C24.7044 15.4596 24.4846 15.0647 24.5231 14.639C24.5592 14.2336 24.8701 13.9208 25.3016 13.8924C25.6273 13.8713 25.9562 13.8883 26.2835 13.8883C26.2835 13.8883 26.2835 13.8892 26.2835 13.89Z" fill="#44B649"/>
    </g>
    <defs>
    <clipPath id="clip0_34_1547">
    <rect width="42" height="26" fill="white"/>
    </clipPath>
    </defs>
    </svg>
    