<svg width="43" height="43" viewBox="0 0 43 43" fill="none" xmlns="http://www.w3.org/2000/svg">
    <path
        d="M42.9999 19.899V20.7387C42.7948 20.7063 42.6469 20.5718 42.504 20.4414C41.7618 19.7641 41.0229 19.0826 40.2868 18.3988C39.0083 17.2115 37.7399 16.0132 36.4486 14.8394C36.1955 14.6093 35.9704 14.3268 35.6317 14.1987C35.4759 13.8024 35.2387 13.4613 34.9374 13.1617C34.3619 12.5898 33.7943 12.0091 33.2123 11.444C33.0234 11.2604 32.8159 11.0839 32.5885 10.9536C31.5254 10.3458 30.3464 10.5528 29.3851 11.5086C25.7935 15.0804 22.2009 18.6512 18.6218 22.2351C18.3514 22.506 18.2258 22.4788 17.9769 22.2238C16.5403 20.752 15.0861 19.2972 13.6352 17.8389C12.4046 16.6021 10.9292 16.6048 9.68653 17.8423C9.18079 18.3459 8.67655 18.8506 8.17268 19.3561C6.89681 20.6349 6.89832 22.0723 8.1791 23.3635C10.81 26.0159 13.444 28.6656 16.0723 31.3206C16.4468 31.6988 16.8258 32.0652 17.2984 32.3206C17.3218 32.5386 17.4968 32.6504 17.6322 32.7856C20.6214 35.7772 23.6129 38.7662 26.6018 41.7578C26.747 41.9033 26.9329 42.0234 26.9646 42.2538C26.9012 42.2788 26.8397 42.3112 26.7745 42.3279C23.4462 43.1665 20.0991 43.2319 16.7591 42.4548C7.96563 40.4092 1.56741 33.4596 0.219497 24.5516C0.154251 24.1195 0.181406 23.6699 0 23.2574V19.7308C0.105223 19.6919 0.0807085 19.5967 0.0882514 19.5189C0.364697 16.6614 1.12275 13.9388 2.51554 11.4254C5.99091 5.15399 11.2736 1.41326 18.3586 0.231954C18.8179 0.155266 19.2958 0.187377 19.7363 0H23.1796C23.2195 0.105777 23.3142 0.077444 23.3923 0.084244C24.2978 0.167355 25.1962 0.296932 26.0836 0.496775C34.9268 2.48614 41.4288 9.47461 42.7793 18.4324C42.8528 18.9213 42.8381 19.4237 42.9996 19.899H42.9999Z"
        fill="#44B649" />
    <path
        d="M35.6321 14.199C35.9704 14.327 36.1959 14.6096 36.449 14.8397C37.74 16.0134 39.0083 17.2117 40.2872 18.3991C41.0234 19.0829 41.7622 19.7644 42.5044 20.4417C42.6474 20.5721 42.7952 20.7065 43.0004 20.739V23.258C42.9163 23.2875 42.9219 23.3604 42.9163 23.4288C42.8205 24.5553 42.6451 25.6698 42.3509 26.7608C40.6044 33.24 36.7028 37.9543 30.6923 40.9217C29.5051 41.5076 28.2676 41.9795 26.965 42.2552C26.9333 42.0248 26.747 41.9047 26.6022 41.7592C23.613 38.7676 20.6218 35.7783 17.6326 32.7871C17.4972 32.6518 17.3222 32.54 17.2988 32.322C18.5 32.7258 19.504 32.4399 20.371 31.5151C21.2977 30.5268 22.2571 29.5688 23.2166 28.6119C27.0955 24.7438 30.9759 20.8773 34.865 17.0194C35.6747 16.2163 35.9678 15.3006 35.6325 14.1997L35.6321 14.199Z"
        fill="#009444" />
</svg>
