<svg width="56" height="18" viewBox="0 0 56 18" fill="none" xmlns="http://www.w3.org/2000/svg">
<g clip-path="url(#clip0_35_2889)">
<path d="M29.1795 12.0499C30.6919 12.0499 32.2051 12.046 33.7175 12.0515C34.6741 12.0546 34.7642 12.1454 34.7714 13.0754C34.777 13.7873 34.7682 14.5 34.7722 15.2119C34.7754 15.812 34.5075 16.1023 33.8511 16.0915C32.4014 16.0689 30.9494 16.0565 29.5005 16.1047C29.1546 16.1163 28.7363 16.3011 28.4917 16.5402C27.2746 17.7295 25.5514 17.7295 24.3004 16.5394C24.0494 16.3011 23.6263 16.1062 23.2804 16.1039C19.0569 16.0744 14.8327 16.0752 10.6092 16.1039C10.2689 16.1062 9.8514 16.2925 9.60603 16.5262C8.33337 17.7388 6.63916 17.7411 5.36327 16.5215C5.13158 16.3003 4.75188 16.1093 4.43572 16.1031C1.67398 16.0464 1.12453 15.5209 1.12453 12.8402C1.12453 12.3488 1.10522 11.8566 1.1366 11.3675C1.16475 10.9328 1.41172 10.5384 1.87912 10.6238C2.15425 10.6743 2.54442 11.0616 2.56131 11.3178C2.60234 11.9187 2.9024 11.9738 3.39876 11.9707C5.66334 11.956 7.92791 11.9614 10.1925 11.9684C10.6374 11.9699 10.9801 11.9552 10.976 11.3621C10.9551 8.36701 10.9656 5.37117 10.9624 2.37533C10.9624 2.25655 10.9318 2.13778 10.9061 1.94835C10.4596 1.94835 10.0847 1.94835 9.62776 1.94835C9.61006 2.26044 9.5811 2.54535 9.58029 2.83026C9.57627 4.99077 9.57788 7.15206 9.57788 9.31258C9.57788 9.50899 9.64626 9.74422 9.55937 9.89327C9.39205 10.179 9.17082 10.5858 8.90856 10.6362C8.45484 10.7239 8.18937 10.3653 8.18615 9.90103C8.18132 9.09055 8.18615 8.28007 8.18052 7.47036C8.17891 7.20641 8.15558 6.94323 8.13868 6.62028C6.21762 6.62028 4.36653 6.63425 2.51545 6.60631C2.22182 6.60165 1.80994 6.48675 1.67639 6.28491C1.56055 6.11023 1.76649 5.7407 1.82442 5.45579C1.95876 4.79048 2.11724 4.12905 2.21619 3.45908C2.37226 2.40716 2.65061 1.41735 3.72618 0.90497C4.14048 0.707784 4.63845 0.591335 5.10101 0.583572C7.16126 0.549413 9.22311 0.566492 11.2842 0.568821C12.2391 0.569598 12.3951 0.711665 12.3967 1.63316C12.4024 4.77651 12.3983 7.91907 12.4 11.0624C12.4008 12.0483 12.4024 12.0484 13.3854 12.0491C14.9115 12.0499 16.4368 12.0491 17.9701 12.0491M10.3132 14.691C14.712 14.691 19.0947 14.691 23.4694 14.691C23.5949 14.2686 23.7116 13.8758 23.8371 13.4566C19.2194 13.4566 14.6589 13.4566 10.0758 13.4566C10.1595 13.8913 10.2319 14.2702 10.3132 14.691ZM3.3875 5.22212C4.91277 5.22212 6.37288 5.23066 7.83218 5.20504C7.94964 5.20271 8.1596 4.96671 8.16362 4.83473C8.19258 3.88761 8.17891 2.93972 8.17891 1.93205C7.00841 1.93205 5.91594 1.85131 4.84841 1.97552C4.46548 2.01977 3.97476 2.50032 3.83156 2.8846C3.57253 3.58252 3.53713 4.35729 3.3875 5.22212ZM20.0786 12.0429C22.4148 12.0429 24.7509 12.0429 27.2931 12.0429H20.0786ZM8.85386 14.7275C8.85707 13.9659 8.25935 13.3992 7.46213 13.4069C6.70834 13.4139 6.11625 13.9721 6.10258 14.6886C6.0889 15.4013 6.73811 16.0635 7.46132 16.0744C8.19741 16.0845 8.85064 15.4525 8.85386 14.7275ZM26.3695 13.4061C25.6383 13.4092 25.0035 14.0086 24.9947 14.7026C24.9859 15.3819 25.7042 16.0821 26.4009 16.0736C27.0887 16.0651 27.7283 15.4339 27.746 14.7469C27.7645 13.993 27.1587 13.4023 26.3695 13.4061ZM33.3322 13.4419C31.8439 13.4419 30.4353 13.4419 28.7564 13.4419C29.0983 13.9698 29.3139 14.6537 29.6003 14.6824C30.8158 14.8059 32.0531 14.7344 33.3314 14.7344C33.3322 14.264 33.3322 13.8859 33.3322 13.4419ZM2.71496 13.4325C2.33123 14.4899 2.98205 14.9976 4.64166 14.6382C4.72533 14.2492 4.80899 13.8587 4.9007 13.4325C4.14933 13.4325 3.44864 13.4325 2.71496 13.4325Z" fill="#44B649"/>
<path d="M1.93161 9.50107C1.5688 9.07952 1.1738 8.81247 1.20759 8.61295C1.25264 8.34124 1.59213 7.99112 1.87047 7.92435C2.04826 7.88165 2.51968 8.27525 2.53818 8.49883C2.5591 8.75657 2.22846 9.04304 1.93161 9.50107Z" fill="#44B649"/>
<path d="M35.436 15.3996C36.9621 15.4004 38.4874 15.3996 40.0207 15.3996C39.7922 14.8461 38.6805 14.0512 38.1455 14.0558C35.5342 14.076 35.8793 14.1319 35.8688 11.8138C35.8656 11.1524 35.8334 10.4738 35.9662 9.8326C36.1617 8.88704 37.378 7.88092 38.7022 7.92129C40.3586 7.97175 40.3602 7.92207 40.9458 6.4354C41.5693 4.85247 42.0021 4.56368 43.7623 4.56213C45.3398 4.56057 46.9174 4.56135 48.495 4.56135C50.7451 4.56135 51.1159 4.80279 51.9365 6.80105C52.4023 7.93682 52.4023 7.93682 53.646 7.93682C55.456 7.93682 55.456 7.93682 55.4552 9.67035C55.4552 10.7999 55.4512 11.9295 55.4552 13.059C55.4576 13.7204 55.1415 14.0675 54.4392 14.0558C54.185 14.0519 53.9163 14.1078 53.6782 14.0473C52.432 13.7274 51.9606 14.753 51.2277 15.4004C52.7401 15.4004 54.2533 15.3965 55.7657 15.402M54.0257 9.26589C52.202 9.26589 50.5262 9.26589 48.8513 9.26589C45.5965 9.26589 42.3416 9.26433 39.0867 9.26666C37.7424 9.26744 37.2775 9.72547 37.2718 11.039C37.271 11.3092 37.2445 11.5824 37.2783 11.8479C37.3161 12.1453 37.0683 12.615 37.6523 12.6452C38.094 12.6685 38.5525 12.8199 38.8043 12.1608C39.1736 11.1935 39.999 10.6082 41.085 10.6268C42.1453 10.6454 42.9369 11.1524 43.3689 12.1616C43.4686 12.3945 43.8797 12.6258 44.1605 12.6421C45.1484 12.7004 46.1427 12.66 47.1338 12.6662C47.5224 12.6685 47.7339 12.5738 47.9125 12.1616C48.1056 11.7183 48.4901 11.2742 48.9133 11.0157C50.3058 10.1656 51.8472 10.685 52.4409 12.181C52.6758 12.7718 53.1343 12.6879 53.5663 12.639C53.7345 12.6196 53.9983 12.3626 54.0048 12.2058C54.0466 11.2556 54.0257 10.3038 54.0257 9.26589ZM50.8223 7.90964C50.5954 7.39106 50.3943 6.99979 50.2527 6.58911C50.0806 6.09071 49.7371 5.91915 49.2198 5.92147C47.2915 5.93157 45.3624 5.91138 43.4341 5.94088C43.1396 5.94554 42.7205 6.07363 42.5829 6.28247C42.2676 6.75991 42.0906 7.32274 41.8316 7.90964C44.8588 7.90964 47.7709 7.90964 50.8223 7.90964ZM49.3421 15.3919C48.4435 14.6831 47.898 13.8004 46.6391 14.0302C45.9022 14.1645 45.1025 14.1482 44.3584 14.0333C43.1541 13.8478 42.8138 14.8477 42.1276 15.3919C44.4638 15.3919 46.7999 15.3919 49.3421 15.3919ZM42.1035 13.0381C42.1236 12.5645 41.6184 12.0024 41.1413 11.9683C40.649 11.9333 40.0657 12.4814 40.0569 12.9876C40.0472 13.5101 40.5058 13.9743 41.0504 13.9922C41.5725 14.01 42.0817 13.5481 42.1035 13.0381ZM49.1924 13.0318C49.2053 13.5706 49.6655 14.0077 50.2069 13.9945C50.7225 13.9821 51.2149 13.4875 51.2084 12.9899C51.2028 12.5342 50.6493 11.9698 50.1996 11.9621C49.7073 11.9527 49.1804 12.5125 49.1924 13.0318Z" fill="#44B649"/>
<path d="M55.9998 14.7552H34.7715V15.4004H55.9998V14.7552Z" fill="#44B649"/>
</g>
<defs>
<clipPath id="clip0_35_2889">
<rect width="54.88" height="16.875" fill="white" transform="translate(1.12012 0.5625)"/>
</clipPath>
</defs>
</svg>
