<svg width="181" height="310" viewBox="0 0 181 310" fill="none" xmlns="http://www.w3.org/2000/svg">
    <path d="M105.448 11.4023L181 74.3037V310L43.209 266.148L105.448 11.4023Z"
        fill="url(#paint0_linear_128_2820)" />
    <path
        d="M14.2125 88.7408C14.2125 88.7408 8.98962 52.8208 14.2125 36.4307C19.4354 20.0406 26.0541 8.87846 42.7733 5.73865C59.4925 2.59884 83.5358 1.2017 100.255 8.53293C116.974 15.8642 124.989 36.2654 124.644 49.0801C124.298 61.8947 122.903 133.374 122.212 153.25C121.522 173.125 124.268 221.394 120.456 235.441C116.644 249.487 113.162 257.089 95.0472 264.27C76.9322 271.451 44.1841 269.513 29.2058 261.07C14.2275 252.627 8.64443 231.76 9.34982 212.906C10.0402 194.052 14.2125 88.7408 14.2125 88.7408Z"
        fill="url(#paint1_linear_128_2820)" />
    <path
        d="M24.3281 64.9145C24.3281 64.9145 40.462 22.0989 50.5176 8.68339C60.5581 -4.73217 79.8738 -0.916324 86.2373 8.68339C92.6008 18.2981 115.248 69.106 115.248 69.106C115.248 69.106 36.6049 78.6756 24.3281 64.9145Z"
        fill="url(#paint2_linear_128_2820)" />
    <path d="M55.3656 3.93555L42.7887 61.4737L35.8398 62.345L55.3656 3.93555Z" fill="#77AE72" />
    <path d="M81.1953 3.93555L93.7873 61.4737L100.736 62.345L81.1953 3.93555Z" fill="#40612F" />
    <path
        d="M27.1044 118.667C27.1044 118.667 71.0037 112.598 108.284 119.839C108.284 119.839 116.644 73.1775 115.248 69.1063C113.852 65.02 99.5644 56.3066 68.9175 56.3066C38.2556 56.3066 28.8604 62.0304 24.3279 64.9299C19.7954 67.8143 27.1044 118.667 27.1044 118.667Z"
        fill="black" />
    <path
        d="M24.6733 228.771C24.6733 228.771 26.024 244.62 66.9817 244.62C107.939 244.62 107.594 228.771 107.594 228.771C107.594 228.771 111.076 265.487 66.1412 265.487C21.2064 265.487 24.6733 228.771 24.6733 228.771Z"
        fill="black" />
    <path
        d="M17.0194 75.2803C17.0194 75.2803 24.8988 115.587 24.6136 127.786C24.3285 139.984 22.8427 217.413 22.8427 217.413C22.8427 217.413 15.6387 183.942 15.6387 160.566C15.6387 137.205 17.0194 75.2803 17.0194 75.2803Z"
        fill="black" />
    <path
        d="M24.4629 134.261C21.1311 132.218 18.2495 129.454 16.0133 126.224C15.7881 139.534 15.623 152.409 15.623 160.581C15.623 166.921 16.1633 174.027 16.9288 180.983C18.9549 182.124 21.3412 182.635 23.5024 182.335C23.8626 164.773 24.2378 145.017 24.4629 134.261Z"
        fill="url(#paint3_linear_128_2820)" />
    <path
        d="M118.731 79.1865C118.731 79.1865 109.666 115.272 109.666 142.809C109.666 170.346 109.666 217.428 109.666 217.428C109.666 217.428 118.731 183.401 118.731 165.374C118.731 147.346 118.731 79.1865 118.731 79.1865Z"
        fill="black" />
    <path
        d="M109.935 134.185C113.267 132.142 116.583 129.438 118.805 126.208C119.03 139.518 119.195 152.393 119.195 160.566C119.195 166.905 118.054 174.312 117.289 181.282C115.263 182.424 111.841 182.755 109.68 182.454C109.334 164.907 109.59 143.229 109.935 134.185Z"
        fill="url(#paint4_linear_128_2820)" />
    <path
        d="M27.1055 118.667L30.2422 226.427C30.2422 226.427 33.3339 235.441 66.9675 235.441C100.616 235.441 103.393 226.427 103.393 226.427L108.27 119.839C108.285 119.839 77.2782 111.982 27.1055 118.667Z"
        fill="url(#paint5_linear_128_2820)" />
    <path
        d="M42.7893 5.73828C42.7893 5.73828 23.2786 29.8052 14.2286 36.4303C14.2135 36.4303 18.3859 8.26215 42.7893 5.73828Z"
        fill="url(#paint6_linear_128_2820)" />
    <path d="M95.6328 6.77539L123.368 38.489C123.368 38.489 121.297 13.7461 95.6328 6.77539Z"
        fill="url(#paint7_linear_128_2820)" />
    <path
        d="M15.6389 162.864L23.8484 165.343V171.728L15.9241 169.294C15.789 168.438 15.6839 167.476 15.6239 166.455C15.5338 165.148 15.5639 163.946 15.6389 162.864Z"
        fill="url(#paint8_linear_128_2820)" />
    <path d="M109.516 167.416L119.196 165.253L118.431 171.728L109.516 174.282V167.416Z"
        fill="url(#paint9_linear_128_2820)" />
    <path
        d="M33.3779 259.267C33.3779 259.267 21.2212 244.965 17.0188 236.943C12.8315 228.921 9.57472 253.588 33.3779 259.267Z"
        fill="url(#paint10_linear_128_2820)" />
    <path
        d="M98.1836 260.935C98.1836 260.935 113.537 238.431 116.989 236.943C120.456 235.441 115.833 254.055 98.1836 260.935Z"
        fill="url(#paint11_linear_128_2820)" />
    <path
        d="M28.1562 17.6669C28.2763 16.8256 28.3813 15.9693 28.5014 15.128C26.2952 16.1195 24.089 17.096 21.8827 18.0875C15.6843 26.6356 14.2285 36.4307 14.2285 36.4307C19.3614 32.6749 27.856 23.3156 34.2496 15.9092C34.3997 15.3083 34.5648 14.7074 34.7148 14.1064C32.5236 15.2933 30.3324 16.4801 28.1562 17.6669Z"
        fill="url(#paint12_linear_128_2820)" />
    <path
        d="M123.368 38.489C123.368 38.489 122.528 28.5588 115.399 19.5149C115.459 20.0708 115.504 20.6266 115.474 21.1675C114.138 20.7168 112.952 19.8455 112.112 18.7337C112.442 19.4849 112.472 20.3713 112.202 21.1525C111.031 20.206 109.876 19.2746 108.705 18.3281C109.425 19.4699 109.906 20.7769 110.101 22.1139C109.726 22.1139 109.35 22.0839 108.99 22.0238L123.368 38.489Z"
        fill="url(#paint13_linear_128_2820)" />
    <path
        d="M15.6386 38.4886C15.6386 38.4886 12.2467 51.138 13.1772 61.5639C14.1077 71.9899 16.7792 72.4556 24.6135 56.3059C32.4479 40.1411 45.6852 12.9495 46.6157 11.3119C47.5462 9.68946 25.0638 25.9143 15.6386 38.4886Z"
        fill="url(#paint14_linear_128_2820)" />
    <path
        d="M120.126 38.4886C120.126 38.4886 123.517 51.138 122.587 61.5639C121.656 71.9899 118.985 72.4556 111.151 56.3059C103.301 40.1411 90.064 12.9495 89.1335 11.3119C88.203 9.68946 110.685 25.9143 120.126 38.4886Z"
        fill="url(#paint15_linear_128_2820)" />
    <path
        d="M13.0119 171.729L21.5366 217.414C21.5366 217.414 16.2687 239.527 13.0119 232.181C9.75512 224.835 13.0119 171.729 13.0119 171.729Z"
        fill="url(#paint16_linear_128_2820)" />
    <path
        d="M119.886 171.729L111.361 217.414C111.361 217.414 116.629 239.527 119.886 232.181C123.143 224.835 119.886 171.729 119.886 171.729Z"
        fill="url(#paint17_linear_128_2820)" />
    <path
        d="M62.5546 265.382C58.0071 259.192 55.2605 251.711 54.6752 244.049C25.7542 241.255 24.6736 228.756 24.6736 228.756C24.6736 228.756 21.3868 263.489 62.5546 265.382Z"
        fill="url(#paint18_linear_128_2820)" />
    <path
        d="M112.938 86.0671C110.957 84.5948 108.3 84.4596 105.839 84.5948C98.6499 84.9554 91.566 87.0436 85.3225 90.604C82.516 92.2115 79.8295 94.1194 76.6928 94.9306C73.5711 95.7269 69.774 95.0809 67.973 92.4068C64.5361 87.329 69.789 78.3603 64.5661 75.1754C62.69 74.0336 60.3037 74.3942 58.1876 74.9651C44.8152 78.5255 34.2493 88.2003 24.584 98.3258C25.7696 109.278 27.1204 118.667 27.1204 118.667C27.1204 118.667 71.0196 112.598 108.3 119.839C108.3 119.839 111.587 101.466 113.703 86.7731C113.448 86.5328 113.223 86.2774 112.938 86.0671Z"
        fill="url(#paint19_linear_128_2820)" />
    <path
        d="M21.1317 77.9389L18.3101 78.8854C16.9593 76.1962 13.7776 72.5907 6.88878 75.2949C-3.40691 79.3361 0.885464 88.4701 0.885464 88.4701L19.1956 81.3191L21.9571 80.4027C22.6775 80.1623 23.0377 79.3511 22.7375 78.645C22.4674 78.0291 21.762 77.7286 21.1317 77.9389Z"
        fill="url(#paint20_linear_128_2820)" />
    <path opacity="0.46"
        d="M1.5608 87.2685L18.3551 80.8086C18.3551 80.8086 15.1133 73.6426 7.29397 76.512C-0.540363 79.3814 1.5608 87.2685 1.5608 87.2685Z"
        fill="url(#paint21_linear_128_2820)" />
    <path
        d="M116.974 77.9389L119.795 78.8854C121.146 76.1962 124.328 72.5907 131.217 75.2949C141.512 79.3361 137.22 88.4701 137.22 88.4701L118.91 81.3191L116.148 80.4027C115.428 80.1623 115.068 79.3511 115.368 78.645C115.638 78.0291 116.328 77.7286 116.974 77.9389Z"
        fill="url(#paint22_linear_128_2820)" />
    <path opacity="0.46"
        d="M136.544 87.2685L119.75 80.8086C119.75 80.8086 122.992 73.6426 130.811 76.512C138.645 79.3814 136.544 87.2685 136.544 87.2685Z"
        fill="url(#paint23_linear_128_2820)" />
    <defs>
        <linearGradient id="paint0_linear_128_2820" x1="184.701" y1="170.194" x2="65.5977"
            y2="142.968" gradientUnits="userSpaceOnUse">
            <stop offset="0.0193" stop-color="white" stop-opacity="0" />
            <stop offset="0.15" stop-color="#E3E3E3" stop-opacity="0.1333" />
            <stop offset="0.4323" stop-color="#9D9D9D" stop-opacity="0.4211" />
            <stop offset="0.841" stop-color="#2D2D2D" stop-opacity="0.8379" />
            <stop offset="1" />
        </linearGradient>
        <linearGradient id="paint1_linear_128_2820" x1="66.9742" y1="3.1942" x2="66.9742"
            y2="268.697" gradientUnits="userSpaceOnUse">
            <stop offset="0.0301" stop-color="#136E13" />
            <stop offset="0.4018" stop-color="#2B842E" />
            <stop offset="1" stop-color="#58AD62" />
        </linearGradient>
        <linearGradient id="paint2_linear_128_2820" x1="69.7845" y1="8.03509e-05" x2="69.7845"
            y2="72.3487" gradientUnits="userSpaceOnUse">
            <stop offset="0.0301" stop-color="#136E13" />
            <stop offset="0.4018" stop-color="#2B842E" />
            <stop offset="1" stop-color="#58AD62" />
        </linearGradient>
        <linearGradient id="paint3_linear_128_2820" x1="-4.42548" y1="84.7547" x2="22.563"
            y2="162.852" gradientUnits="userSpaceOnUse">
            <stop offset="0.0193" stop-color="white" />
            <stop offset="0.15" stop-color="#E3E3E3" />
            <stop offset="0.4323" stop-color="#9D9D9D" />
            <stop offset="0.841" stop-color="#2D2D2D" />
            <stop offset="1" />
        </linearGradient>
        <linearGradient id="paint4_linear_128_2820" x1="139.01" y1="84.095" x2="111.703"
            y2="163.115" gradientUnits="userSpaceOnUse">
            <stop offset="0.0193" stop-color="white" />
            <stop offset="0.15" stop-color="#E3E3E3" />
            <stop offset="0.4323" stop-color="#9D9D9D" />
            <stop offset="0.841" stop-color="#2D2D2D" />
            <stop offset="1" />
        </linearGradient>
        <linearGradient id="paint5_linear_128_2820" x1="27.1088" y1="175.711" x2="108.281"
            y2="175.711" gradientUnits="userSpaceOnUse">
            <stop offset="0.0301" stop-color="#136E13" />
            <stop offset="0.4018" stop-color="#2B842E" />
            <stop offset="1" stop-color="#58AD62" />
        </linearGradient>
        <linearGradient id="paint6_linear_128_2820" x1="14.219" y1="21.0835" x2="42.786"
            y2="21.0835" gradientUnits="userSpaceOnUse">
            <stop offset="0.0193" stop-color="#E0E1E5" />
            <stop offset="0.3315" stop-color="#C5C6CA" />
            <stop offset="1" stop-color="#818084" />
        </linearGradient>
        <linearGradient id="paint7_linear_128_2820" x1="95.6273" y1="22.6349" x2="123.373"
            y2="22.6349" gradientUnits="userSpaceOnUse">
            <stop offset="0.0193" stop-color="#E0E1E5" />
            <stop offset="0.3315" stop-color="#C5C6CA" />
            <stop offset="1" stop-color="#818084" />
        </linearGradient>
        <linearGradient id="paint8_linear_128_2820" x1="15.5655" y1="167.301" x2="23.8481"
            y2="167.301" gradientUnits="userSpaceOnUse">
            <stop offset="0.0301" stop-color="#136E13" />
            <stop offset="0.4018" stop-color="#2B842E" />
            <stop offset="1" stop-color="#58AD62" />
        </linearGradient>
        <linearGradient id="paint9_linear_128_2820" x1="109.514" y1="169.768" x2="119.201"
            y2="169.768" gradientUnits="userSpaceOnUse">
            <stop offset="0.0301" stop-color="#136E13" />
            <stop offset="0.4018" stop-color="#2B842E" />
            <stop offset="1" stop-color="#58AD62" />
        </linearGradient>
        <linearGradient id="paint10_linear_128_2820" x1="23.7253" y1="235.353" x2="23.7253"
            y2="259.261" gradientUnits="userSpaceOnUse">
            <stop offset="0.0301" stop-color="#FF001A" />
            <stop offset="0.2739" stop-color="#E40014" />
            <stop offset="0.7962" stop-color="#9E0006" />
            <stop offset="1" stop-color="#810000" />
        </linearGradient>
        <linearGradient id="paint11_linear_128_2820" x1="108.117" y1="236.857" x2="108.117"
            y2="260.942" gradientUnits="userSpaceOnUse">
            <stop offset="0.0301" stop-color="#FF001A" />
            <stop offset="0.2739" stop-color="#E40014" />
            <stop offset="0.7962" stop-color="#9E0006" />
            <stop offset="1" stop-color="#810000" />
        </linearGradient>
        <linearGradient id="paint12_linear_128_2820" x1="24.4636" y1="52.4688" x2="24.4636"
            y2="0.142099" gradientUnits="userSpaceOnUse">
            <stop offset="0.0193" stop-color="white" />
            <stop offset="0.15" stop-color="#E3E3E3" />
            <stop offset="0.4323" stop-color="#9D9D9D" />
            <stop offset="0.841" stop-color="#2D2D2D" />
            <stop offset="1" />
        </linearGradient>
        <linearGradient id="paint13_linear_128_2820" x1="116.04" y1="52.4691" x2="116.04"
            y2="0.142158" gradientUnits="userSpaceOnUse">
            <stop offset="0.0193" stop-color="white" />
            <stop offset="0.15" stop-color="#E3E3E3" />
            <stop offset="0.4323" stop-color="#9D9D9D" />
            <stop offset="0.841" stop-color="#2D2D2D" />
            <stop offset="1" />
        </linearGradient>
        <linearGradient id="paint14_linear_128_2820" x1="-1.73967" y1="60.5675" x2="36.6027"
            y2="36.8882" gradientUnits="userSpaceOnUse">
            <stop offset="0.0193" stop-color="white" />
            <stop offset="0.1603" stop-color="#E4E9ED" stop-opacity="0.8555" />
            <stop offset="0.4646" stop-color="#9DB1BF" stop-opacity="0.5434" />
            <stop offset="0.9058" stop-color="#2D5875" stop-opacity="0.091" />
            <stop offset="0.9946" stop-color="#164566" stop-opacity="0" />
        </linearGradient>
        <linearGradient id="paint15_linear_128_2820" x1="137.492" y1="60.5675" x2="99.1495"
            y2="36.8882" gradientUnits="userSpaceOnUse">
            <stop offset="0.0193" stop-color="white" />
            <stop offset="0.1603" stop-color="#E4E9ED" stop-opacity="0.8555" />
            <stop offset="0.4646" stop-color="#9DB1BF" stop-opacity="0.5434" />
            <stop offset="0.9058" stop-color="#2D5875" stop-opacity="0.091" />
            <stop offset="0.9946" stop-color="#164566" stop-opacity="0" />
        </linearGradient>
        <linearGradient id="paint16_linear_128_2820" x1="-4.65404" y1="214.19" x2="16.6855"
            y2="201.011" gradientUnits="userSpaceOnUse">
            <stop offset="0.0193" stop-color="white" />
            <stop offset="0.1603" stop-color="#E4E9ED" stop-opacity="0.8555" />
            <stop offset="0.4646" stop-color="#9DB1BF" stop-opacity="0.5434" />
            <stop offset="0.9058" stop-color="#2D5875" stop-opacity="0.091" />
            <stop offset="0.9946" stop-color="#164566" stop-opacity="0" />
        </linearGradient>
        <linearGradient id="paint17_linear_128_2820" x1="137.551" y1="214.19" x2="116.211"
            y2="201.011" gradientUnits="userSpaceOnUse">
            <stop offset="0.0193" stop-color="white" />
            <stop offset="0.1603" stop-color="#E4E9ED" stop-opacity="0.8555" />
            <stop offset="0.4646" stop-color="#9DB1BF" stop-opacity="0.5434" />
            <stop offset="0.9058" stop-color="#2D5875" stop-opacity="0.091" />
            <stop offset="0.9946" stop-color="#164566" stop-opacity="0" />
        </linearGradient>
        <linearGradient id="paint18_linear_128_2820" x1="30.6815" y1="186.716" x2="46.9697"
            y2="266.218" gradientUnits="userSpaceOnUse">
            <stop offset="0.0193" stop-color="white" />
            <stop offset="0.15" stop-color="#E3E3E3" />
            <stop offset="0.4323" stop-color="#9D9D9D" />
            <stop offset="0.841" stop-color="#2D2D2D" />
            <stop offset="1" />
        </linearGradient>
        <linearGradient id="paint19_linear_128_2820" x1="-37.8903" y1="147.889" x2="109.866"
            y2="86.1519" gradientUnits="userSpaceOnUse">
            <stop offset="0.0193" stop-color="white" />
            <stop offset="0.15" stop-color="#E3E3E3" />
            <stop offset="0.4323" stop-color="#9D9D9D" />
            <stop offset="0.841" stop-color="#2D2D2D" />
            <stop offset="1" />
        </linearGradient>
        <linearGradient id="paint20_linear_128_2820" x1="11.4213" y1="62.1057" x2="11.4213"
            y2="91.4973" gradientUnits="userSpaceOnUse">
            <stop offset="0.0301" stop-color="#136E13" />
            <stop offset="0.4018" stop-color="#2B842E" />
            <stop offset="1" stop-color="#58AD62" />
        </linearGradient>
        <linearGradient id="paint21_linear_128_2820" x1="4.71359" y1="74.5922" x2="9.50872"
            y2="83.2152" gradientUnits="userSpaceOnUse">
            <stop offset="0.0193" stop-color="white" />
            <stop offset="0.1049" stop-color="#F8F8FA" stop-opacity="0.9128" />
            <stop offset="0.2319" stop-color="#E4E5EB" stop-opacity="0.7832" />
            <stop offset="0.3849" stop-color="#C3C7D2" stop-opacity="0.6273" />
            <stop offset="0.558" stop-color="#959CB0" stop-opacity="0.4507" />
            <stop offset="0.7479" stop-color="#5A6584" stop-opacity="0.257" />
            <stop offset="0.9492" stop-color="#132450" stop-opacity="0.0518" />
            <stop offset="1" stop-color="#001242" stop-opacity="0" />
        </linearGradient>
        <linearGradient id="paint22_linear_128_2820" x1="126.679" y1="62.1057" x2="126.679"
            y2="91.4973" gradientUnits="userSpaceOnUse">
            <stop offset="0.0301" stop-color="#136E13" />
            <stop offset="0.4018" stop-color="#2B842E" />
            <stop offset="1" stop-color="#58AD62" />
        </linearGradient>
        <linearGradient id="paint23_linear_128_2820" x1="131.577" y1="74.2066" x2="127.98"
            y2="84.5087" gradientUnits="userSpaceOnUse">
            <stop offset="0.0193" stop-color="white" />
            <stop offset="0.1049" stop-color="#F8F8FA" stop-opacity="0.9128" />
            <stop offset="0.2319" stop-color="#E4E5EB" stop-opacity="0.7832" />
            <stop offset="0.3849" stop-color="#C3C7D2" stop-opacity="0.6273" />
            <stop offset="0.558" stop-color="#959CB0" stop-opacity="0.4507" />
            <stop offset="0.7479" stop-color="#5A6584" stop-opacity="0.257" />
            <stop offset="0.9492" stop-color="#132450" stop-opacity="0.0518" />
            <stop offset="1" stop-color="#001242" stop-opacity="0" />
        </linearGradient>
    </defs>
</svg>
    