<svg width="22" height="22" viewBox="0 0 22 22" fill="none" xmlns="http://www.w3.org/2000/svg">
<g clip-path="url(#clip0_34_131)">
<path d="M11.006 22.0121C17.0845 22.0121 22.0121 17.0845 22.0121 11.006C22.0121 4.92757 17.0845 0 11.006 0C4.92757 0 0 4.92757 0 11.006C0 17.0845 4.92757 22.0121 11.006 22.0121Z" fill="#44B649"/>
<path d="M7.97705 11.006C7.97705 9.34063 9.32867 7.98901 10.9941 7.98901C12.6594 7.98901 14.0111 9.34063 14.0111 11.006C14.0111 12.6714 12.6594 14.023 10.9941 14.023C9.32867 14.023 7.97705 12.6714 7.97705 11.006Z" fill="white"/>
<path d="M10.9938 16.6297C7.89233 16.6297 5.37012 14.1075 5.37012 11.006C5.37012 7.90454 7.89233 5.38232 10.9938 5.38232C14.0953 5.38232 16.6175 7.90454 16.6175 11.006C16.6296 14.1075 14.1074 16.6297 10.9938 16.6297ZM10.9938 6.38397C8.44746 6.38397 6.38383 8.4476 6.38383 10.994C6.38383 13.5403 8.44746 15.6039 10.9938 15.6039C13.5402 15.6039 15.6038 13.5403 15.6038 10.994C15.6159 8.45967 13.5402 6.38397 10.9938 6.38397Z" fill="white"/>
<path d="M10.9937 6.87877C10.7161 6.87877 10.4868 6.64948 10.4868 6.37191V3.54799C10.4868 3.27043 10.7161 3.04114 10.9937 3.04114C11.2712 3.04114 11.5005 3.27043 11.5005 3.54799V6.35984C11.5126 6.64948 11.2833 6.87877 10.9937 6.87877Z" fill="white"/>
<path d="M10.9937 18.9589C10.7161 18.9589 10.4868 18.7296 10.4868 18.452V15.6402C10.4868 15.3626 10.7161 15.1333 10.9937 15.1333C11.2712 15.1333 11.5005 15.3626 11.5005 15.6402V18.452C11.5126 18.7296 11.2833 18.9589 10.9937 18.9589Z" fill="white"/>
<path d="M18.452 11.5129H15.6402C15.3626 11.5129 15.1333 11.2836 15.1333 11.006C15.1333 10.7284 15.3626 10.4991 15.6402 10.4991H18.452C18.7296 10.4991 18.9589 10.7284 18.9589 11.006C18.9589 11.2836 18.7296 11.5129 18.452 11.5129Z" fill="white"/>
<path d="M6.37179 11.5129H3.54787C3.27031 11.5129 3.04102 11.2836 3.04102 11.006C3.04102 10.7284 3.27031 10.4991 3.54787 10.4991H6.35972C6.63729 10.4991 6.86658 10.7284 6.86658 11.006C6.87865 11.2836 6.64935 11.5129 6.37179 11.5129Z" fill="white"/>
</g>
<defs>
<clipPath id="clip0_34_131">
<rect width="22" height="22" fill="white"/>
</clipPath>
</defs>
</svg>
