<svg width="233" height="106" viewBox="0 0 233 106" fill="none" xmlns="http://www.w3.org/2000/svg">
    <defs>
        <clipPath id="clip0_1_19">
            <rect width="233" height="106" fill="white" />
        </clipPath>
    </defs>
    <g clip-path="url(#clip0_1_19)">
        <path
            d="M19.5595 106C8.77429 106 0 97.2186 0 86.4247V19.5753C0 8.78137 8.77429 0 19.5595 0H213.445C224.23 0 233.004 8.78137 233.004 19.5753V86.4247C233.004 97.2186 224.23 106 213.445 106H19.5595Z"
            fill="#44B649" />
        <path
            d="M5.67194 86.4248V19.5754C5.67194 11.8993 11.8896 5.68091 19.5553 5.68091H213.44C221.11 5.68091 227.324 11.9036 227.324 19.5754V86.4248C227.324 94.101 221.106 100.319 213.44 100.319H19.5596C11.8896 100.319 5.67194 94.101 5.67194 86.4248Z"
            fill="#0B141F" />
        <path
            d="M137.132 52.2882C137.282 50.1595 136.753 48.2373 135.537 46.5343C134.932 45.6527 134.193 44.9045 133.325 44.2981C132.461 43.6875 131.524 43.2488 130.523 42.9736C128.456 42.393 126.467 42.5307 124.555 43.3821C124.799 43.2617 125.04 43.1456 125.285 43.0381C125.53 42.9306 125.775 42.8317 126.015 42.7414C125.71 42.8618 125.414 42.9865 125.126 43.1069C124.838 43.2273 124.555 43.3649 124.28 43.5154C123.154 44.0014 122.178 44.7325 121.358 45.7086C120.292 46.96 119.6 48.3878 119.282 50.0047C118.964 51.6174 119.076 53.1999 119.626 54.7523C120.051 55.9091 120.692 56.9455 121.542 57.8572C122.393 58.7732 123.399 59.487 124.555 60.0031C125.71 60.4933 126.909 60.7342 128.155 60.7342C129.401 60.7342 130.6 60.4761 131.756 59.9601C132.242 59.715 132.706 59.4569 133.144 59.1817C133.587 58.9065 134.003 58.5883 134.399 58.2227C135.189 57.4315 135.825 56.5284 136.311 55.5049C136.796 54.49 137.071 53.4192 137.132 52.2882ZM136.393 39.5462C137.428 40.2472 138.348 41.0599 139.155 41.9888C139.963 42.9177 140.642 43.924 141.188 45.0034C141.738 46.0828 142.155 47.2267 142.447 48.4308C142.735 49.6349 142.864 50.8433 142.834 52.0603C142.773 53.6127 142.481 55.1265 141.966 56.6058C141.446 58.0851 140.715 59.444 139.774 60.6955C138.588 62.2479 137.14 63.5036 135.439 64.4626C133.733 65.4216 131.924 66.0236 130.007 66.2687C128.061 66.5139 126.153 66.3676 124.28 65.8344C122.406 65.3012 120.696 64.4583 119.145 63.2972V63.2499V74.7749C119.145 75.5662 118.865 76.237 118.315 76.7832C117.765 77.3293 117.091 77.6045 116.292 77.6045C115.492 77.6045 114.818 77.3293 114.268 76.7832C113.713 76.2327 113.438 75.5662 113.438 74.7749V51.7378V51.4625C113.438 51.2174 113.447 50.9852 113.46 50.753C113.473 50.5251 113.499 50.2885 113.529 50.0434C113.649 48.792 113.945 47.5836 114.418 46.4139C114.891 45.2399 115.484 44.1519 116.201 43.1456C116.919 42.1393 117.757 41.2319 118.715 40.4278C119.673 39.6236 120.717 38.9441 121.848 38.3937C124.194 37.2971 126.664 36.8499 129.251 37.0477C131.851 37.2541 134.227 38.0841 136.393 39.5462Z"
            fill="white" />
        <path
            d="M43.0207 39.5937C45.0574 39.5937 46.9695 39.9807 48.7484 40.7591C50.5274 41.5375 52.0786 42.5868 53.4063 43.9113C54.7298 45.2358 55.7782 46.7882 56.5559 48.5686C57.3294 50.3489 57.7204 52.2626 57.7204 54.301V63.6199C57.7204 64.4112 57.4368 65.0906 56.8739 65.654C56.311 66.2173 55.6321 66.4969 54.8415 66.4969C54.0508 66.4969 53.3805 66.2173 52.8348 65.654C52.2891 65.0906 52.0141 64.4155 52.0141 63.6199V54.301C52.0141 53.0539 51.7778 51.8799 51.3094 50.7833C50.841 49.6867 50.2008 48.7363 49.3973 47.9278C48.5938 47.1194 47.6441 46.4829 46.5527 46.0099C45.4613 45.5368 44.2926 45.3003 43.0464 45.3003C41.8003 45.3003 40.6402 45.5368 39.5617 46.0099C38.4831 46.4829 37.5335 47.1237 36.7171 47.9278C35.9007 48.732 35.2519 49.6867 34.7835 50.7833C34.3108 51.8799 34.0788 53.0539 34.0788 54.301V63.6199C34.0788 64.4112 33.8038 65.0906 33.2495 65.654C32.6952 66.2173 32.0206 66.4969 31.2256 66.4969C30.4264 66.4969 29.7475 66.2173 29.176 65.654C28.6088 65.0906 28.3424 64.4155 28.3725 63.6199V31.2252C28.3725 30.4339 28.6475 29.763 29.2018 29.2169C29.7518 28.6707 30.4264 28.3955 31.2256 28.3955C32.0249 28.3955 32.6952 28.6707 33.2495 29.2169C33.7995 29.763 34.0788 30.4339 34.0788 31.2252L34.0315 42.6986C35.3077 41.7224 36.6999 40.9612 38.2081 40.4151C39.712 39.8646 41.3148 39.5937 43.0207 39.5937Z"
            fill="white" />
        <path
            d="M72.0033 44.023C71.1182 44.6035 70.3576 45.3088 69.7217 46.1473C69.0814 46.9859 68.5959 47.8933 68.2607 48.8652H85.4226C85.2722 48.4093 85.0574 47.9234 84.7824 47.403C84.2023 46.3065 83.4202 45.369 82.4319 44.5949C81.4437 43.8165 80.3393 43.2618 79.1233 42.9264C77.9374 42.5909 76.717 42.5221 75.4709 42.7199C74.2205 42.9178 73.0647 43.3521 72.0033 44.023ZM91.4898 51.6948C91.4598 52.4861 91.1633 53.157 90.6004 53.7031C90.0375 54.2492 89.3586 54.5417 88.5679 54.5718H68.2564C68.3767 54.9373 68.5443 55.32 68.7592 55.7157C68.9096 56.021 69.0643 56.3091 69.2146 56.5844C69.365 56.8596 69.5197 57.1305 69.6701 57.4057C69.5197 57.1606 69.3822 56.9284 69.2576 56.6962C69.133 56.4682 69.0127 56.2317 68.8924 55.9866C69.3779 56.8725 70.001 57.6638 70.7615 58.3604C71.5221 59.0614 72.3729 59.6118 73.3182 60.0032C74.3237 60.4289 75.4323 60.674 76.6483 60.7342H76.8331C77.6237 60.7342 78.2854 61.0008 78.8182 61.5341C79.3511 62.0673 79.6175 62.7296 79.6175 63.5209C79.6175 64.3121 79.3511 64.983 78.8182 65.5291C78.2854 66.0753 77.6237 66.3505 76.8331 66.3505H76.3088C76.1413 66.3505 75.9823 66.3333 75.8276 66.3032C74.5514 66.2129 73.301 65.9549 72.085 65.5248C70.869 65.0991 69.7346 64.5401 68.6861 63.8563C67.6377 63.1725 66.6838 62.3555 65.833 61.4137C64.9822 60.4719 64.2646 59.4183 63.6888 58.2615C62.563 55.978 62.0517 53.5655 62.1591 51.0197C62.2665 48.4781 62.9884 46.1258 64.3291 43.9627C64.4494 43.7821 64.5783 43.5929 64.7158 43.3908C64.8533 43.193 64.9951 43.0038 65.1498 42.8188C66.2756 41.2965 67.642 40.0537 69.2576 39.0947C70.869 38.1357 72.5877 37.4907 74.4139 37.1552C76.7557 36.7897 79.0675 36.9703 81.3491 37.7014C83.6308 38.4325 85.5945 39.6495 87.2359 41.3567C88.5765 42.7285 89.6164 44.281 90.3597 46.014C91.1074 47.7514 91.4769 49.579 91.4769 51.497V51.6045V51.6948H91.4898Z"
            fill="white" />
        <path
            d="M110.981 63.5252C110.981 64.2864 110.714 64.9357 110.181 65.469C109.649 66.0022 109 66.299 108.243 66.3592H108.153H108.106H107.831C105.85 66.299 103.998 65.8732 102.262 65.0819C100.526 64.2907 99.018 63.2328 97.7289 61.9083C96.4399 60.5838 95.4215 59.0442 94.6695 57.294C93.9176 55.5437 93.5437 53.6601 93.5437 51.6519V39.7742C93.5437 38.983 93.8188 38.3121 94.3731 37.766C94.9231 37.2198 95.602 36.9446 96.3969 36.9446C97.1961 36.9446 97.875 37.2198 98.4422 37.766C99.0094 38.3121 99.293 38.983 99.293 39.7742L99.2457 51.6519C99.2457 52.8689 99.4735 54.0128 99.929 55.0793C100.384 56.1458 101.003 57.0832 101.777 57.8874C102.55 58.6959 103.465 59.3495 104.514 59.8527C105.562 60.3558 106.684 60.6225 107.87 60.6526H108.097C108.888 60.6526 109.563 60.9321 110.13 61.4954C110.697 62.0588 110.981 62.7339 110.981 63.5252Z"
            fill="white" />
        <path
            d="M166.978 56.8123C167.618 55.8705 168.065 54.847 168.323 53.7504C168.581 52.6538 168.632 51.5443 168.482 50.4176C168.301 49.2909 167.966 48.3018 167.481 47.4504C166.871 46.3538 166.08 45.412 165.104 44.6207C164.129 43.8294 163.033 43.279 161.817 42.978C160.631 42.6425 159.411 42.5651 158.165 42.7501C156.919 42.9307 155.763 43.3607 154.697 44.0273C153.331 44.9088 152.261 46.0828 151.5 47.545C150.74 49.0071 150.405 50.5595 150.495 52.2023C150.555 53.4838 150.873 54.6664 151.453 55.7673C151.608 56.0425 151.75 56.322 151.887 56.6102C152.025 56.8983 152.184 57.1821 152.364 57.453C152.089 56.9972 151.831 56.5242 151.591 56.0382C152.076 56.9198 152.704 57.7068 153.464 58.3905C154.225 59.0743 155.076 59.629 156.021 60.0591C156.996 60.4848 158.015 60.7213 159.08 60.7686C160.146 60.8159 161.181 60.6697 162.183 60.3343C163.154 60.029 164.052 59.5731 164.877 58.9668C165.702 58.3518 166.402 57.6337 166.978 56.8123ZM157.121 37.2155C159.463 36.8198 161.77 36.9875 164.035 37.7186C166.299 38.4497 168.271 39.6667 169.943 41.3739C171.314 42.7458 172.371 44.3369 173.114 46.1474C173.862 47.9578 174.218 49.8414 174.188 51.7894C174.188 53.3419 173.939 54.8556 173.436 56.3349C172.933 57.8143 172.229 59.1732 171.314 60.4246C169.823 62.4329 167.936 63.9638 165.655 65.0131C163.373 66.0624 161.001 66.5139 158.535 66.3591C157.258 66.2688 156.008 66.0108 154.792 65.5851C153.572 65.1593 152.442 64.596 151.389 63.895C150.34 63.194 149.386 62.3727 148.536 61.4266C147.685 60.4848 146.967 59.4312 146.391 58.2744C145.841 57.1477 145.442 55.9737 145.18 54.7567C144.922 53.5397 144.823 52.3141 144.883 51.0799C144.943 49.8457 145.15 48.6287 145.498 47.4246C145.846 46.2248 146.357 45.0895 147.027 44.023C147.238 43.6273 147.496 43.2317 147.801 42.8361H147.848C148.974 41.3137 150.34 40.0795 151.956 39.1377C153.576 38.1917 155.295 37.5509 157.121 37.2155Z"
            fill="white" />
        <path
            d="M197.422 56.8123C198.062 55.8705 198.509 54.847 198.766 53.7504C199.024 52.6538 199.076 51.5443 198.925 50.4176C198.745 49.2909 198.41 48.3018 197.924 47.4504C197.314 46.3538 196.524 45.412 195.548 44.6207C194.573 43.8294 193.477 43.279 192.261 42.978C191.075 42.6425 189.855 42.5651 188.609 42.7501C187.363 42.9307 186.207 43.3607 185.141 44.0273C183.775 44.9088 182.705 46.0828 181.944 47.545C181.184 49.0071 180.848 50.5595 180.939 52.2023C180.999 53.4838 181.317 54.6664 181.897 55.7673C182.052 56.0425 182.193 56.322 182.331 56.6102C182.468 56.8983 182.627 57.1821 182.808 57.453C182.533 56.9972 182.275 56.5242 182.034 56.0382C182.52 56.9198 183.147 57.7068 183.908 58.3905C184.668 59.0743 185.519 59.629 186.464 60.0591C187.44 60.4848 188.458 60.7213 189.524 60.7686C190.589 60.8159 191.625 60.6697 192.626 60.3343C193.597 60.029 194.495 59.5731 195.32 58.9668C196.145 58.3518 196.846 57.6337 197.422 56.8123ZM187.564 37.2155C189.906 36.8198 192.214 36.9875 194.478 37.7186C196.743 38.4497 198.715 39.6667 200.386 41.3739C201.757 42.7458 202.814 44.3369 203.558 46.1474C204.305 47.9578 204.662 49.8414 204.632 51.7894C204.632 53.3419 204.383 54.8556 203.88 56.3349C203.377 57.8143 202.668 59.1732 201.757 60.4246C200.266 62.4329 198.38 63.9638 196.098 65.0131C193.816 66.0624 191.445 66.5139 188.978 66.3591C187.702 66.2688 186.452 66.0108 185.236 65.5851C184.015 65.1593 182.885 64.596 181.832 63.895C180.784 63.194 179.83 62.3727 178.979 61.4266C178.128 60.4848 177.411 59.4312 176.835 58.2744C176.285 57.1477 175.885 55.9737 175.623 54.7567C175.366 53.5397 175.267 52.3141 175.327 51.0799C175.387 49.8457 175.593 48.6287 175.941 47.4246C176.289 46.2248 176.801 45.0895 177.471 44.023C177.682 43.6273 177.939 43.2317 178.244 42.8361H178.292C179.418 41.3137 180.784 40.0795 182.4 39.1377C184.02 38.1917 185.738 37.5509 187.564 37.2155Z"
            fill="white" />
        <path
            d="M124.662 74.1341V75.6006H125.607C125.878 75.6006 126.084 75.5404 126.226 75.4243C126.368 75.3082 126.441 75.1318 126.441 74.9039C126.441 74.6545 126.372 74.4653 126.23 74.3363C126.089 74.203 125.882 74.1384 125.599 74.1384H124.662V74.1341ZM124.662 73.4289H125.341C125.612 73.4289 125.822 73.373 125.968 73.2612C126.114 73.1494 126.187 72.986 126.187 72.7709C126.187 72.5344 126.114 72.3624 125.964 72.2506C125.818 72.1388 125.594 72.0829 125.302 72.0829H124.658V73.4289H124.662ZM123.644 76.3832V71.2959H125.311C125.908 71.2959 126.376 71.412 126.712 71.6485C127.047 71.8808 127.214 72.2291 127.214 72.6892C127.214 72.9214 127.154 73.1322 127.034 73.3171C126.914 73.502 126.737 73.6396 126.505 73.7342C126.823 73.7944 127.06 73.932 127.223 74.1471C127.382 74.3664 127.464 74.6158 127.464 74.9039C127.464 75.3899 127.3 75.7597 126.982 76.0091C126.66 76.2585 126.205 76.3832 125.616 76.3832H123.644Z"
            fill="white" />
        <path
            d="M130.11 73.6396H130.128L131.241 71.2959H132.358L130.613 74.5943V76.3832H129.595V74.5427L127.88 71.2959H128.998L130.11 73.6396Z"
            fill="white" />
        <path
            d="M136.513 74.4868H137.66L137.097 72.6935H137.076L136.513 74.4868ZM137.909 75.2867H136.259L135.916 76.3832H134.85L136.564 71.2959H137.609L139.314 76.3832H138.249L137.909 75.2867Z"
            fill="white" />
        <path
            d="M141.136 73.5665H141.858C142.146 73.5665 142.357 73.5063 142.498 73.3859C142.64 73.2655 142.709 73.0849 142.709 72.8483C142.709 72.6161 142.636 72.4312 142.498 72.2936C142.357 72.156 142.15 72.0872 141.88 72.0872H141.141V73.5665H141.136ZM141.136 74.3492V76.3832H140.118V71.2959H141.88C142.46 71.2959 142.911 71.4292 143.238 71.6915C143.564 71.9539 143.727 72.3237 143.727 72.7967C143.727 73.0591 143.659 73.2827 143.521 73.4719C143.384 73.6611 143.182 73.8159 142.915 73.932C143.216 74.0223 143.431 74.1686 143.564 74.375C143.697 74.5814 143.762 74.8394 143.762 75.1447V75.5189C143.762 75.6608 143.779 75.807 143.818 75.9661C143.856 76.1209 143.921 76.237 144.015 76.3101V76.3832H142.963C142.868 76.3101 142.808 76.1854 142.782 76.0134C142.756 75.8414 142.743 75.6737 142.743 75.5146V75.1533C142.743 74.8996 142.675 74.7018 142.537 74.5599C142.4 74.418 142.202 74.3492 141.948 74.3492H141.136Z"
            fill="white" />
        <path
            d="M146.232 74.4868H147.38L146.817 72.6935H146.795L146.232 74.4868ZM147.629 75.2867H145.979L145.635 76.3832H144.57L146.284 71.2959H147.328L149.034 76.3832H147.968L147.629 75.2867Z"
            fill="white" />
        <path
            d="M150.856 74.1341V75.6006H151.801C152.072 75.6006 152.278 75.5404 152.42 75.4243C152.562 75.3082 152.635 75.1318 152.635 74.9039C152.635 74.6545 152.566 74.4653 152.424 74.3363C152.283 74.203 152.076 74.1384 151.793 74.1384H150.856V74.1341ZM150.856 73.4289H151.535C151.806 73.4289 152.016 73.373 152.162 73.2612C152.308 73.1494 152.381 72.986 152.381 72.7709C152.381 72.5344 152.308 72.3624 152.158 72.2506C152.012 72.1388 151.788 72.0829 151.496 72.0829H150.852V73.4289H150.856ZM149.833 76.3832V71.2959H151.5C152.098 71.2959 152.566 71.412 152.901 71.6485C153.236 71.8808 153.404 72.2291 153.404 72.6892C153.404 72.9214 153.344 73.1322 153.224 73.3171C153.103 73.502 152.927 73.6396 152.695 73.7342C153.013 73.7944 153.249 73.932 153.413 74.1471C153.572 74.3664 153.653 74.6158 153.653 74.9039C153.653 75.3899 153.49 75.7597 153.172 76.0091C152.85 76.2585 152.394 76.3832 151.806 76.3832H149.833Z"
            fill="white" />
        <path
            d="M159.415 75.0458H159.437L160.743 71.2959H162.071V76.3832H161.053V72.9128L161.031 72.9085L159.776 76.3832H159.085L157.826 72.8999L157.808 72.9042V76.3832H156.786V71.2959H158.122L159.415 75.0458Z"
            fill="white" />
        <path
            d="M166.222 74.1471H164.335V75.6006H166.578V76.3832H163.317V71.2959H166.57V72.0829H164.335V73.3601H166.222V74.1471Z"
            fill="white" />
        <path
            d="M171.412 74.7019L171.421 74.7234C171.43 75.2653 171.266 75.691 170.927 76.0006C170.587 76.3059 170.119 76.4608 169.517 76.4608C168.907 76.4608 168.417 76.2629 168.039 75.8716C167.665 75.4803 167.476 74.9728 167.476 74.3493V73.3387C167.476 72.7194 167.661 72.212 168.026 71.8164C168.392 71.4207 168.873 71.2229 169.466 71.2229C170.085 71.2229 170.57 71.3734 170.918 71.6787C171.266 71.9798 171.438 72.4098 171.425 72.956L171.421 72.9775H170.428C170.428 72.6506 170.351 72.4098 170.192 72.2507C170.033 72.0916 169.792 72.0099 169.466 72.0099C169.161 72.0099 168.924 72.1346 168.753 72.3797C168.581 72.6248 168.495 72.9431 168.495 73.3301V74.3493C168.495 74.7406 168.585 75.0588 168.765 75.3083C168.946 75.5534 169.195 75.6781 169.517 75.6781C169.823 75.6781 170.05 75.5964 170.201 75.4373C170.351 75.2782 170.424 75.033 170.424 74.7019H171.412Z"
            fill="white" />
        <path
            d="M176.564 76.3832H175.546V74.2718H173.475V76.3832H172.457V71.2959H173.475V73.4848H175.546V71.2959H176.564V76.3832Z"
            fill="white" />
        <path
            d="M179.125 74.4868H180.273L179.71 72.6935H179.688L179.125 74.4868ZM180.522 75.2867H178.876L178.532 76.3832H177.467L179.181 71.2959H180.225L181.931 76.3832H180.866L180.522 75.2867Z"
            fill="white" />
        <path
            d="M186.838 76.3832H185.82L183.77 72.9515L183.749 72.9558V76.3832H182.726V71.2959H183.749L185.798 74.7233H185.82V71.2959H186.838V76.3832Z"
            fill="white" />
        <path d="M189.172 71.2959H188.153V76.3832H189.172V71.2959Z" fill="white" />
        <path
            d="M194.298 74.7019L194.306 74.7234C194.315 75.2653 194.152 75.691 193.812 76.0006C193.473 76.3059 193.004 76.4608 192.403 76.4608C191.793 76.4608 191.303 76.2629 190.925 75.8716C190.551 75.4803 190.362 74.9728 190.362 74.3493V73.3387C190.362 72.7194 190.547 72.212 190.912 71.8164C191.277 71.4207 191.758 71.2229 192.351 71.2229C192.97 71.2229 193.456 71.3734 193.804 71.6787C194.152 71.9798 194.324 72.4098 194.311 72.956L194.306 72.9775H193.314C193.314 72.6506 193.236 72.4098 193.077 72.2507C192.918 72.0916 192.678 72.0099 192.351 72.0099C192.046 72.0099 191.81 72.1346 191.638 72.3797C191.466 72.6248 191.38 72.9431 191.38 73.3301V74.3493C191.38 74.7406 191.47 75.0588 191.651 75.3083C191.831 75.5534 192.081 75.6781 192.403 75.6781C192.708 75.6781 192.936 75.5964 193.086 75.4373C193.236 75.2782 193.309 75.033 193.309 74.7019H194.298Z"
            fill="white" />
        <path
            d="M197.993 75.0544C197.993 74.8609 197.924 74.7018 197.787 74.5814C197.649 74.461 197.413 74.3492 197.069 74.246C196.481 74.0697 196.038 73.8589 195.733 73.6181C195.428 73.3773 195.277 73.0505 195.277 72.6376C195.277 72.2205 195.449 71.8808 195.789 71.6141C196.132 71.3518 196.566 71.2185 197.099 71.2185C197.662 71.2185 198.118 71.3604 198.461 71.6442C198.805 71.9281 198.973 72.3022 198.96 72.7623L198.951 72.7838H197.963C197.963 72.5301 197.886 72.3323 197.735 72.199C197.581 72.0614 197.366 71.9926 197.091 71.9926C196.837 71.9926 196.644 72.0528 196.506 72.1732C196.369 72.2936 196.3 72.4484 196.3 72.6376C196.3 72.8096 196.373 72.9516 196.524 73.0634C196.674 73.1752 196.932 73.2913 197.293 73.416C197.851 73.5751 198.277 73.7815 198.569 74.0353C198.861 74.289 199.011 74.6244 199.011 75.0415C199.011 75.4759 198.84 75.8199 198.5 76.0736C198.161 76.3231 197.709 76.4521 197.151 76.4521C196.605 76.4521 196.137 76.3145 195.741 76.0435C195.35 75.7726 195.161 75.3641 195.17 74.8265L195.179 74.805H196.167C196.167 75.106 196.257 75.3254 196.433 75.4673C196.609 75.6092 196.85 75.6823 197.151 75.6823C197.422 75.6823 197.632 75.6264 197.774 75.5103C197.92 75.3985 197.993 75.248 197.993 75.0544Z"
            fill="white" />
    </g>
</svg>
