<svg width="55" height="19" viewBox="0 0 55 19" fill="none" xmlns="http://www.w3.org/2000/svg">
<g clip-path="url(#clip0_35_2819)">
<path d="M30.7936 12.9343C32.4534 12.9343 34.114 12.9299 35.7738 12.936C36.8235 12.9395 36.9224 13.0418 36.9303 14.0892C36.9365 14.8908 36.9268 15.6934 36.9312 16.4951C36.9347 17.1709 36.6408 17.4978 35.9203 17.4856C34.3294 17.4603 32.7359 17.4463 31.1459 17.5005C30.7662 17.5136 30.3072 17.7216 30.0388 17.9909C28.703 19.3303 26.8119 19.3303 25.4391 17.99C25.1637 17.7216 24.6993 17.5022 24.3196 17.4996C19.6847 17.4664 15.0488 17.4672 10.4138 17.4996C10.0404 17.5022 9.58218 17.712 9.31291 17.9752C7.91623 19.3408 6.05694 19.3434 4.65674 17.9699C4.40248 17.7208 3.98577 17.5057 3.63881 17.4987C0.607974 17.4349 0.00498492 16.843 0.00498492 13.8243C0.00498492 13.2709 -0.0162036 12.7166 0.0182277 12.1658C0.0491276 11.6762 0.320164 11.2321 0.833101 11.3283C1.13504 11.3851 1.56322 11.8214 1.58176 12.1099C1.62679 12.7865 1.95609 12.8486 2.50081 12.8451C4.98604 12.8285 7.47128 12.8346 9.95651 12.8425C10.4447 12.8442 10.8208 12.8276 10.8164 12.1597C10.7935 8.78685 10.8049 5.41313 10.8014 2.03942C10.8014 1.90566 10.7678 1.7719 10.7396 1.55858C10.2496 1.55858 9.83821 1.55858 9.33674 1.55858C9.31732 1.91003 9.28554 2.23088 9.28466 2.55172C9.28024 4.98475 9.28201 7.41865 9.28201 9.85168C9.28201 10.0729 9.35705 10.3378 9.2617 10.5056C9.07807 10.8273 8.83528 11.2854 8.54747 11.3423C8.04954 11.4411 7.7582 11.0372 7.75467 10.5144C7.74937 9.60165 7.75467 8.68893 7.74849 7.7771C7.74673 7.47985 7.72112 7.18348 7.70258 6.8198C5.59433 6.8198 3.56288 6.83553 1.53144 6.80406C1.2092 6.79881 0.757176 6.66943 0.610622 6.44212C0.483491 6.24542 0.709502 5.82927 0.773067 5.50843C0.920504 4.7592 1.09443 4.01434 1.20302 3.25986C1.37429 2.07526 1.67976 0.960595 2.86013 0.383592C3.3148 0.161534 3.86129 0.0303966 4.36893 0.0216541C6.62992 -0.0168127 8.89267 0.00242072 11.1545 0.00504346C12.2025 0.00591771 12.3738 0.165905 12.3755 1.20364C12.3817 4.74346 12.3773 8.28241 12.3791 11.8222C12.3799 12.9325 12.3817 12.9325 13.4606 12.9334C15.1353 12.9343 16.8092 12.9334 18.4919 12.9334M10.0889 15.9085C14.9164 15.9085 19.7262 15.9085 24.5271 15.9085C24.6648 15.4329 24.7929 14.9905 24.9306 14.5184C19.863 14.5184 14.8581 14.5184 9.82849 14.5184C9.92031 15.008 9.99977 15.4346 10.0889 15.9085ZM2.48845 5.24528C4.16234 5.24528 5.76472 5.25489 7.36622 5.22604C7.49511 5.22342 7.72554 4.95765 7.72995 4.80903C7.76173 3.74245 7.74673 2.67499 7.74673 1.54022C6.46217 1.54022 5.26326 1.4493 4.09171 1.58918C3.67147 1.63901 3.13293 2.18017 2.97579 2.61292C2.69151 3.39887 2.65266 4.27137 2.48845 5.24528ZM20.8059 12.9264C23.3697 12.9264 25.9335 12.9264 28.7233 12.9264H20.8059ZM8.48744 15.9496C8.49097 15.0919 7.83501 14.4537 6.9601 14.4625C6.13287 14.4703 5.48309 15.0989 5.46808 15.9058C5.45307 16.7084 6.16554 17.4541 6.95922 17.4664C7.76703 17.4777 8.48391 16.7661 8.48744 15.9496ZM27.7098 14.4616C26.9073 14.4651 26.2107 15.14 26.201 15.9216C26.1913 16.6865 26.9797 17.4751 27.7442 17.4655C28.4991 17.4559 29.2009 16.7451 29.2204 15.9714C29.2407 15.1225 28.5759 14.4572 27.7098 14.4616ZM35.3509 14.5018C33.7176 14.5018 32.1717 14.5018 30.3292 14.5018C30.7044 15.0963 30.941 15.8665 31.2553 15.8988C32.5893 16.0379 33.9472 15.9574 35.35 15.9574C35.3509 15.4276 35.3509 15.0019 35.3509 14.5018ZM1.75039 14.4913C1.32926 15.682 2.04349 16.2538 3.86482 15.849C3.95664 15.411 4.04845 14.9713 4.1491 14.4913C3.32451 14.4913 2.55555 14.4913 1.75039 14.4913Z" fill="#44B649"/>
<path d="M0.890541 10.0642C0.492375 9.58953 0.0588935 9.28879 0.0959734 9.0641C0.145413 8.75812 0.517977 8.36383 0.823445 8.28865C1.01856 8.24056 1.53591 8.68381 1.55621 8.93559C1.57917 9.22584 1.21631 9.54844 0.890541 10.0642Z" fill="#44B649"/>
<path d="M31.7285 11.4535C33.3203 11.9666 34.913 12.4798 36.5136 12.9956C36.4703 12.3268 35.5892 11.1011 35.0295 10.9263C32.2971 10.0695 32.6379 10.2452 33.4421 7.75976C33.6717 7.05075 33.8765 6.31376 34.2411 5.67119C34.7779 4.72438 36.4015 4.05558 37.769 4.54428C39.48 5.15538 39.4985 5.10293 40.633 3.70763C41.8407 2.22228 42.3934 2.0588 44.2306 2.64892C45.8771 3.17783 47.5236 3.70938 49.1702 4.23917C51.5177 4.99539 51.8205 5.37919 51.9732 7.79473C52.0597 9.1673 52.0597 9.1673 53.3575 9.58519C55.2468 10.1937 55.2468 10.1937 54.6359 12.0497C54.2377 13.2588 53.8369 14.4679 53.4432 15.6787C53.2127 16.3877 52.7607 16.6526 52.0324 16.4043C51.7684 16.3143 51.4682 16.2837 51.2413 16.1385C50.0539 15.3771 49.2011 16.3169 48.2079 16.7636C49.7864 17.2724 51.3667 17.7769 52.9435 18.2909M53.286 11.137C51.3826 10.5241 49.6345 9.96024 47.8856 9.39722C44.4893 8.30267 41.0929 7.20636 37.6957 6.11443C36.2929 5.66332 35.6457 5.99728 35.1778 7.40219C35.0816 7.6907 34.958 7.97483 34.8997 8.27032C34.8344 8.60166 34.4106 9.0213 35.0092 9.24948C35.4621 9.42258 35.8876 9.73906 36.382 9.11747C37.1077 8.20563 38.1751 7.85593 39.3016 8.24147C40.4017 8.61827 41.0497 9.42695 41.145 10.6526C41.1671 10.9359 41.5149 11.3214 41.8019 11.4333C42.8127 11.8276 43.8642 12.1188 44.8963 12.4588C45.3006 12.5926 45.5549 12.5611 45.8868 12.1808C46.2444 11.7708 46.8024 11.4246 47.3338 11.2908C49.0863 10.8493 50.5121 11.9238 50.6057 13.7247C50.6428 14.4364 51.1513 14.5011 51.6192 14.5937C51.802 14.6296 52.1674 14.4434 52.2292 14.2773C52.608 13.2736 52.9214 12.2473 53.286 11.137ZM50.4203 8.60691C50.3664 7.97483 50.294 7.48787 50.2905 7.00092C50.2861 6.40992 49.9877 6.11006 49.4474 5.93871C47.4309 5.30138 45.4251 4.63083 43.4025 4.01449C43.0944 3.92007 42.6114 3.91657 42.3943 4.09404C41.8972 4.4997 41.5141 5.0426 41.0373 5.58376C44.1971 6.60138 47.2367 7.58141 50.4203 8.60691ZM46.2435 16.1211C45.5549 15.0597 45.2962 13.9311 43.9022 13.7536C43.0864 13.6504 42.2574 13.3637 41.5211 12.9904C40.3293 12.3863 39.623 13.3436 38.7154 13.695C41.153 14.481 43.5905 15.2669 46.2435 16.1211ZM39.5179 11.1676C39.706 10.6675 39.3758 9.89555 38.8902 9.69884C38.3888 9.49601 37.5871 9.8868 37.4 10.4262C37.2057 10.9831 37.5209 11.6335 38.0833 11.8355C38.6209 12.0287 39.3149 11.7061 39.5179 11.1676ZM46.918 13.5438C46.7414 14.1251 47.0681 14.7476 47.6375 14.9163C48.1796 15.0763 48.8682 14.7126 49.0369 14.1776C49.1914 13.6872 48.8117 12.8977 48.3456 12.7377C47.8344 12.5611 47.0875 12.9834 46.918 13.5438Z" fill="#44B649"/>
<path d="M53.4136 17.6778L31.2607 10.54L31.0338 11.2309L53.1866 18.3686L53.4136 17.6778Z" fill="#44B649"/>
<path d="M34.6251 2.63627L33.9316 2.41284L31.0373 11.2215L31.7307 11.4449L34.6251 2.63627Z" fill="#44B649"/>
</g>
<defs>
<clipPath id="clip0_35_2819">
<rect width="55" height="19" fill="white"/>
</clipPath>
</defs>
</svg>
