<svg width="29" height="29" viewBox="0 0 29 29" fill="none" xmlns="http://www.w3.org/2000/svg">
    <defs>
        <clipPath id="clip0_21_617">
            <rect width="29" height="29" fill="white" />
        </clipPath>
    </defs>
    <g clip-path="url(#clip0_21_617)">
        <path fill-rule="evenodd" clip-rule="evenodd"
            d="M26.3957 1.73157H15.9794C15.4994 1.73157 14.8192 2.27635 14.3933 2.70257L2.43045 14.6391C1.69527 15.3706 1.69566 16.5586 2.43045 17.2901L11.7345 26.5755C12.4685 27.3071 13.6589 27.3071 14.3933 26.5755L26.3555 14.6394C26.8227 14.1718 27.2633 13.4697 27.2633 12.9911V2.59757C27.2633 2.11981 26.8746 1.73157 26.3957 1.73157ZM20.4056 11.2425C18.9705 11.2425 17.8071 10.0781 17.8071 8.64137C17.8071 7.20462 18.9705 6.04065 20.4056 6.04065C21.8407 6.04065 23.004 7.20501 23.004 8.64137C23.004 10.0777 21.8407 11.2425 20.4056 11.2425Z"
            fill="#A5DAD4" />
        <path fill-rule="evenodd" clip-rule="evenodd"
            d="M26.3957 1.73157H20.2585C17.1137 4.44426 14.4545 8.51776 12.9509 13.4236C11.4724 18.2472 11.3702 23.0309 12.3973 27.0029C13.0674 27.2556 13.8537 27.113 14.3933 26.5751L26.3555 14.6391C26.8227 14.1714 27.2633 13.4693 27.2633 12.9907V2.59757C27.2633 2.11982 26.8746 1.73157 26.3957 1.73157ZM20.4056 11.2425C18.9705 11.2425 17.8071 10.0781 17.8071 8.64137C17.8071 7.20462 18.9705 6.04065 20.4056 6.04065C21.8407 6.04065 23.004 7.20501 23.004 8.64137C23.004 10.0777 21.8407 11.2425 20.4056 11.2425Z"
            fill="#8AD1C7" />
        <path fill-rule="evenodd" clip-rule="evenodd"
            d="M27.2634 0H15.112C14.1522 0 13.9776 0.418858 13.0636 1.3763L1.10149 13.3124C-0.366919 14.7767 -0.366919 17.1523 1.10149 18.6165L10.4052 27.9019C11.8736 29.3662 14.2533 29.3662 15.7217 27.9019L27.6858 15.9654C28.455 15.1967 29.0001 14.8142 29.0001 13.8568V1.73162C29.0001 0.77572 28.2219 0 27.2638 0H27.2634ZM26.3556 14.6391L14.3934 26.5752C13.6586 27.3067 12.4682 27.3071 11.7342 26.5752L2.43053 17.2898C1.69574 16.5583 1.69574 15.3703 2.43053 14.6387L14.3934 2.70262C14.8193 2.2764 15.4995 1.73162 15.9795 1.73162H26.3954C26.8747 1.73162 27.263 2.11986 27.263 2.59762V12.9908C27.263 13.4693 26.8228 14.1714 26.3556 14.6391Z"
            fill="#053C48" />
        <path fill-rule="evenodd" clip-rule="evenodd"
            d="M17.7161 6.01748C16.2477 7.48252 16.2477 9.85734 17.7161 11.3228C19.1837 12.7878 21.5642 12.7882 23.033 11.3228C24.5007 9.85773 24.5007 7.48291 23.033 6.01787C21.5646 4.55361 19.1837 4.55361 17.7165 6.01787L17.7161 6.01748ZM21.7028 9.99683C20.9684 10.7288 19.7788 10.7288 19.044 9.99683C18.31 9.26412 18.31 8.07651 19.044 7.3438C19.7788 6.61109 20.9681 6.61109 21.7028 7.3438C22.4376 8.07613 22.4376 9.26412 21.7028 9.99644V9.99683Z"
            fill="#053C48" />
    </g>
</svg>
