<svg width="70" height="65" viewBox="0 0 70 65" fill="none" xmlns="http://www.w3.org/2000/svg">
<path d="M69.8003 35.2601C69.6803 57.5501 47.8403 66.1101 28.7503 63.8401C16.1103 62.3501 4.67026 56.1001 1.50026 45.9501C1.19026 44.9601 0.930262 43.9801 0.730262 43.0101C-4.49974 18.9901 19.6703 1.38012 33.8603 0.140119C49.7703 -1.22988 69.9503 7.00012 69.8003 35.2601Z" fill="#44B649"/>
<path d="M34.8308 59.6501H34.7408C32.9208 59.6501 31.0808 59.5401 29.2808 59.3301C17.3908 57.9301 8.18078 52.1501 5.83078 44.6001C5.54078 43.6801 5.33078 42.8601 5.17078 42.1001C4.76078 40.2101 4.55078 38.2901 4.55078 36.4101C4.55078 29.0901 7.71078 23.2601 10.3608 19.6701C16.9708 10.7001 27.6008 5.25006 34.2508 4.67006C34.9108 4.61006 35.5808 4.58006 36.2508 4.56006C36.4808 4.57006 36.6708 4.73006 36.6708 4.96006C36.6808 5.19006 36.5008 5.38006 36.2708 5.38006C35.6208 5.40006 34.9608 5.43006 34.3208 5.49006C27.8508 6.05006 17.4908 11.3801 11.0208 20.1601C8.44078 23.6601 5.37078 29.3101 5.37078 36.4101C5.37078 38.2301 5.57078 40.0901 5.97078 41.9301C6.12078 42.6601 6.33078 43.4501 6.61078 44.3501C8.87078 51.5901 17.8008 57.1501 29.3708 58.5101C31.1308 58.7201 32.9408 58.8301 34.7308 58.8301C34.9608 58.8301 35.1908 59.0101 35.1908 59.2401C35.2008 59.4701 35.0608 59.6501 34.8308 59.6501ZM64.4808 39.9601C64.4608 39.9601 64.4308 39.9601 64.4108 39.9501C64.1908 39.9101 64.0408 39.7001 64.0708 39.4701C64.3008 38.1201 64.4308 36.6901 64.4308 35.2201V34.9301C64.4308 26.7101 62.5408 20.0401 58.8008 15.1001C58.6608 14.9201 58.7008 14.6601 58.8808 14.5201C59.0608 14.3801 59.3208 14.4201 59.4608 14.6001C63.3108 19.6901 65.2608 26.5201 65.2608 34.9201V35.2201C65.2508 36.7401 65.1308 38.2101 64.8808 39.6101C64.8508 39.8201 64.6708 39.9601 64.4808 39.9601Z" fill="#CCCCCC"/>
<path d="M39.2299 43.3103H30.4699V38.9903C30.4699 37.4103 30.6699 36.2303 31.0799 35.4503C31.4799 34.6603 32.3399 33.6003 33.6399 32.2503L37.5599 28.2203C38.1399 27.5303 38.4199 26.6303 38.4199 25.5403C38.4199 24.4403 38.1099 23.5303 37.4999 22.8003C36.8799 22.0703 36.0799 21.7003 35.0799 21.7003C34.0799 21.7003 33.2399 22.1303 32.5699 23.0003C31.8999 23.8603 31.4799 25.0103 31.3299 26.4303H22.1699C22.5899 22.5903 23.9899 19.5703 26.3799 17.3803C28.7599 15.1903 31.7499 14.0903 35.3399 14.0903C38.9299 14.0903 41.8499 15.0703 44.0999 17.0303C46.3499 18.9903 47.4699 21.7003 47.4699 25.1603C47.4699 26.7003 47.2799 27.8403 46.8899 28.5903C46.5099 29.3403 46.2399 29.8803 46.0799 30.2003C45.9299 30.5303 45.5699 31.0203 45.0099 31.6703C44.4499 32.3203 44.0799 32.7503 43.8899 32.9403C42.9699 33.8603 42.0899 34.7303 41.2699 35.5303C40.4399 36.3403 39.8999 37.0003 39.6299 37.5203C39.3599 38.0403 39.2299 38.8203 39.2299 39.8503V43.3103ZM31.3599 54.2903C30.3799 53.3103 29.8899 52.1103 29.8899 50.6903C29.8899 49.2703 30.3799 48.0703 31.3599 47.0903C32.3399 46.1103 33.5399 45.6203 34.9599 45.6203C36.3799 45.6203 37.5799 46.1103 38.5599 47.0903C39.5399 48.0703 40.0299 49.2703 40.0299 50.6903C40.0299 52.1103 39.5399 53.3103 38.5599 54.2903C37.5799 55.2703 36.3799 55.7603 34.9599 55.7603C33.5399 55.7603 32.3399 55.2703 31.3599 54.2903Z" fill="white"/>
</svg>
