<svg width="360" height="800" viewBox="0 0 360 800" fill="none" xmlns="http://www.w3.org/2000/svg">
    <defs>
        <clipPath id="clip0_30_2">
            <rect width="360" height="800" fill="white" />
        </clipPath>
    </defs>
    <g clip-path="url(#clip0_30_2)">
        <rect width="360" height="800" fill="white" />
        <path d="M-34 655.469L67.1724 806.28H99.1045L-34 607.875V655.469Z" fill="#44B649"
            fill-opacity="0.09" />
        <path
            d="M-34 545.581L-13.3057 576.437H-13.6943L140.493 806.28H172.425L34.3658 600.46H34.7545L-34 497.987V545.581Z"
            fill="#44B649" fill-opacity="0.09" />
        <path
            d="M-34 436.277L60.0152 576.437H59.6589L213.846 806.28H245.779L107.687 600.46H108.075L-13.8886 418.664H-13.4676L-34 388.068V436.277Z"
            fill="#44B649" fill-opacity="0.09" />
        <path d="M322.694 -17L425 135.528V87.9336L354.626 -17H322.694Z" fill="#44B649"
            fill-opacity="0.09" />
        <path
            d="M176.02 -17L314.112 188.82H313.723L425 354.719V307.125L361.784 212.844H362.14L207.952 -17H176.02Z"
            fill="#44B649" fill-opacity="0.09" />
        <path d="M249.373 -17L387.433 188.82H387.044L425 245.415V197.238L281.273 -17H249.373Z"
            fill="#44B649" fill-opacity="0.09" />
        <path
            d="M-34 326.357L-4.30247 370.616H-4.72349L133.368 576.437H132.98L287.167 806.28H319.099L181.007 600.46H181.396L59.4322 418.664H59.8532L-34 278.763V326.357Z"
            fill="#44B649" fill-opacity="0.09" />
        <path
            d="M29.3785 -17L167.438 188.82H167.049L289.013 370.617H288.625L425 573.944V526.35L352.78 418.664H353.169L215.109 212.844H215.498L61.2782 -17H29.3785Z"
            fill="#44B649" fill-opacity="0.09" />
        <path
            d="M-34 -17V-2.13899L94.1171 188.82H93.7285L215.692 370.617H215.271L353.363 576.437H352.975L425 683.798V636.204L401.002 600.46H401.391L279.459 418.664H279.848L141.789 212.844H142.145L-12.0426 -17H-34Z"
            fill="#44B649" fill-opacity="0.09" />
        <path
            d="M-34 107.166L20.7963 188.82H20.4077L142.339 370.617H141.951L280.01 576.437H279.654L425 793.103V745.509L327.682 600.46H328.07L206.106 418.664H206.527L68.4354 212.844H68.824L-34 59.604V107.166Z"
            fill="#44B649" fill-opacity="0.09" />
        <path
            d="M-34 217.053L69.0183 370.616H68.5973L206.689 576.437H206.301L360.52 806.28H392.42L254.361 600.46H254.717L132.785 418.664H133.174L-4.88542 212.876H-4.49679L-34 168.908V217.053Z"
            fill="#44B649" fill-opacity="0.09" />
        <path
            d="M102.699 -17L240.791 188.82H240.403L362.334 370.617H361.945L425 464.607V416.43L288.43 212.844H288.819L134.631 -17H102.699Z"
            fill="#44B649" fill-opacity="0.09" />
        <path
            d="M175.172 453.137C175.525 453.137 175.701 453.275 175.701 453.551V454.448C175.701 454.816 175.525 455 175.172 455H171.676V451.044C171.676 450.4 171.599 449.879 171.446 449.48C171.293 449.081 171.07 448.775 170.779 448.56C170.503 448.345 170.158 448.207 169.744 448.146C169.33 448.069 168.862 448.031 168.341 448.031H167.858V453.666C167.858 454.571 167.705 455.414 167.398 456.196C167.091 456.993 166.616 457.683 165.972 458.266C165.328 458.864 164.508 459.332 163.511 459.669C162.514 460.022 161.334 460.198 159.969 460.198C158.727 460.198 157.669 460.014 156.795 459.646C155.921 459.293 155.2 458.833 154.633 458.266C154.066 457.699 153.652 457.062 153.391 456.357C153.13 455.652 153 454.954 153 454.264C153 453.482 153.115 452.769 153.345 452.125C153.59 451.466 153.905 450.845 154.288 450.262L155.76 451.159C155.469 451.65 155.246 452.156 155.093 452.677C154.955 453.183 154.886 453.658 154.886 454.103C154.886 454.701 155.001 455.253 155.231 455.759C155.461 456.265 155.798 456.702 156.243 457.07C156.703 457.438 157.263 457.722 157.922 457.921C158.597 458.136 159.363 458.243 160.222 458.243C161.065 458.243 161.84 458.151 162.545 457.967C163.266 457.798 163.887 457.545 164.408 457.208C164.929 456.871 165.328 456.449 165.604 455.943C165.895 455.437 166.041 454.862 166.041 454.218V446.26H168.939C170.518 446.26 171.668 446.636 172.389 447.387C173.125 448.123 173.493 449.25 173.493 450.768V453.137H175.172ZM174.851 455C174.498 455 174.322 454.862 174.322 454.586V453.689C174.322 453.321 174.498 453.137 174.851 453.137H178.301V446.26H180.141V455H174.851ZM178.002 458.703C178.002 458.412 178.101 458.159 178.301 457.944C178.515 457.745 178.768 457.645 179.06 457.645C179.351 457.645 179.596 457.745 179.796 457.944C180.01 458.159 180.118 458.412 180.118 458.703C180.118 458.994 180.01 459.24 179.796 459.439C179.596 459.654 179.351 459.761 179.06 459.761C178.768 459.761 178.515 459.654 178.301 459.439C178.101 459.24 178.002 458.994 178.002 458.703ZM190.807 453.137C191.159 453.137 191.336 453.275 191.336 453.551V454.448C191.336 454.816 191.159 455 190.807 455H190.37C190.109 455 189.848 454.985 189.588 454.954C189.327 454.923 189.074 454.854 188.829 454.747C188.583 454.624 188.353 454.456 188.139 454.241C187.939 454.011 187.778 453.712 187.656 453.344V455.092C187.656 455.751 187.564 456.365 187.38 456.932C187.211 457.515 186.95 458.021 186.598 458.45C186.26 458.879 185.831 459.217 185.31 459.462C184.804 459.707 184.221 459.83 183.562 459.83C183.209 459.83 182.879 459.815 182.573 459.784C182.281 459.753 182.051 459.723 181.883 459.692L182.09 457.875L182.619 457.967C182.772 457.998 182.933 458.013 183.102 458.013C183.27 458.028 183.424 458.036 183.562 458.036C184.451 458.036 185.049 457.775 185.356 457.254C185.678 456.733 185.839 455.943 185.839 454.885V446.26H187.656V450.423C187.656 450.806 187.694 451.167 187.771 451.504C187.863 451.826 188.008 452.11 188.208 452.355C188.422 452.6 188.698 452.792 189.036 452.93C189.373 453.068 189.795 453.137 190.301 453.137H190.807ZM190.484 455C190.131 455 189.955 454.862 189.955 454.586V453.689C189.955 453.321 190.131 453.137 190.484 453.137H194.187C193.819 452.861 193.512 452.57 193.267 452.263C193.037 451.941 192.853 451.619 192.715 451.297C192.577 450.96 192.477 450.63 192.416 450.308C192.354 449.986 192.324 449.679 192.324 449.388C192.324 448.836 192.416 448.307 192.6 447.801C192.784 447.295 193.067 446.843 193.451 446.444C193.834 446.045 194.325 445.731 194.923 445.501C195.536 445.256 196.264 445.133 197.108 445.133C197.414 445.133 197.744 445.148 198.097 445.179C198.465 445.21 198.856 445.248 199.27 445.294C199.239 445.647 199.208 445.961 199.178 446.237C199.147 446.513 199.109 446.812 199.063 447.134C198.756 447.088 198.48 447.057 198.235 447.042C197.989 447.011 197.713 446.996 197.407 446.996C196.379 446.996 195.59 447.241 195.038 447.732C194.486 448.223 194.21 448.882 194.21 449.71C194.21 450.262 194.325 450.753 194.555 451.182C194.8 451.611 195.122 451.972 195.521 452.263C195.935 452.539 196.402 452.754 196.924 452.907C197.445 453.06 197.997 453.137 198.58 453.137H200.236V455H190.484Z"
            fill="white" />
    </g>

</svg>
