<svg width="360" height="800" viewBox="0 0 360 800" fill="none" xmlns="http://www.w3.org/2000/svg">
    <defs>
        <clipPath id="clip0_1_2">
            <rect width="360" height="800" fill="white"/>
        </clipPath>
        <clipPath id="clip1_1_2">
            <rect width="459" height="826" fill="white" transform="translate(-49 -13)"/>
        </clipPath>
    </defs>
    <g clip-path="url(#clip0_1_2)">
        <rect width="360" height="800" fill="white"/>
        <g clip-path="url(#clip1_1_2)">
            <path d="M410 -13H-49V813H410V-13Z" fill="#0B141F"/>
            <path d="M-49 662.188L52.1724 813H84.1045L-49 614.594V662.188Z" fill="#44B649"/>
            <path d="M-49 771.493L-21.1484 813H10.7837L-49 723.899V771.493Z" fill="#44B649"/>
            <path d="M-49 552.301L-28.3057 583.156H-28.6943L125.493 813H157.425L19.3658 607.18H19.7545L-49 504.707V552.301Z" fill="#44B649"/>
            <path d="M-49 442.997L45.0152 583.156H44.6589L198.846 813H230.779L92.6867 607.18H93.0753L-28.8886 425.384H-28.4676L-49 394.787V442.997Z" fill="#44B649"/>
            <path d="M307.694 -10.2803L410 142.247V94.6533L339.626 -10.2803H307.694Z" fill="#44B649"/>
            <path d="M161.02 -10.2803L299.112 195.54H298.723L410 361.439V313.845L346.783 219.564H347.14L192.952 -10.2803H161.02Z" fill="#44B649"/>
            <path d="M234.373 -10.2803L372.433 195.54H372.044L410 252.135V203.958L266.273 -10.2803H234.373Z" fill="#44B649"/>
            <path d="M-49 333.077L-19.3025 377.336H-19.7235L118.368 583.156H117.98L272.167 813H304.099L166.007 607.18H166.396L44.4322 425.384H44.8532L-49 285.483V333.077Z" fill="#44B649"/>
            <path d="M14.3785 -10.2803L152.438 195.54H152.049L274.013 377.336H273.625L410 580.663V533.069L337.78 425.384H338.169L200.109 219.564H200.498L46.2782 -10.2803H14.3785Z" fill="#44B649"/>
            <path d="M-49 -10.2803V4.58073L79.1171 195.54H78.7285L200.692 377.336H200.271L338.363 583.156H337.975L410 690.518V642.924L386.002 607.18H386.391L264.459 425.384H264.848L126.789 219.564H127.145L-27.0426 -10.2803H-49Z" fill="#44B649"/>
            <path d="M-49 113.885L5.79631 195.54H5.40768L127.339 377.336H126.951L265.01 583.156H264.654L410 799.822V752.228L312.682 607.18H313.07L191.106 425.383H191.527L53.4354 219.563H53.824L-49 66.3232V113.885Z" fill="#44B649"/>
            <path d="M-49 223.772L54.0183 377.336H53.5973L191.689 583.156H191.301L345.52 813H377.42L239.361 607.18H239.717L117.785 425.383H118.174L-19.8854 219.596H-19.4968L-49 175.628V223.772Z" fill="#44B649"/>
            <path d="M87.6993 -10.2803L225.791 195.54H225.403L347.334 377.336H346.945L410 471.326V423.15L273.43 219.564H273.819L119.631 -10.2803H87.6993Z" fill="#44B649"/>
        </g>
    </g>

</svg>
