<svg width="9" height="10" viewBox="0 0 9 10" fill="none" xmlns="http://www.w3.org/2000/svg">
    <g clip-path="url(#clip0_55_47)">
        <path
            d="M8.0809 8.20158L6.80468 6.87075C6.5502 6.60637 6.12954 6.61528 5.86651 6.88957L5.2227 7.55894C5.18187 7.53518 5.14009 7.51141 5.09546 7.48567C4.68999 7.25099 4.13355 6.92918 3.54861 6.31921C2.96178 5.70727 2.65317 5.12702 2.42717 4.70321C2.40343 4.65865 2.38065 4.61509 2.35786 4.5735L2.78991 4.12395L3.00166 3.90214C3.26564 3.62687 3.27229 3.18821 3.01875 2.92383L1.74254 1.59201C1.489 1.32763 1.06739 1.33555 0.804363 1.61083L0.444477 1.98809L0.453973 1.998C0.333378 2.15841 0.232723 2.34357 0.157708 2.54359C0.0883892 2.73371 0.0456587 2.91492 0.0257178 3.09711C-0.142356 4.55468 0.495754 5.8865 2.22871 7.69361C4.62447 10.1919 6.55494 10.0027 6.63851 9.99384C6.81987 9.97106 6.99364 9.92551 7.17026 9.85422C7.36018 9.77698 7.53775 9.67202 7.69158 9.54627L7.69917 9.55419L8.06381 9.18187C8.32684 8.9066 8.33443 8.46695 8.0809 8.20158Z"
            fill="white" />
        <path
            d="M8.99994 4.65789H8.35424C8.35424 2.45965 6.64027 0.672344 4.53223 0.672344V3.51654e-07C6.9954 -0.000989845 8.99994 2.08932 8.99994 4.65789Z"
            fill="white" />
        <path
            d="M4.13342 1.64453V2.31687C5.62709 2.31687 6.84159 3.58334 6.84064 5.13993H7.48635C7.48635 3.213 5.98223 1.64453 4.13342 1.64453Z"
            fill="white" />
    </g>
    <defs>
        <clipPath id="clip0_55_47">
            <rect width="9" height="10" fill="white" />
        </clipPath>
    </defs>
</svg>
    