<svg width="28" height="25" viewBox="0 0 28 25" fill="none" xmlns="http://www.w3.org/2000/svg">
<g clip-path="url(#clip0_25_768)">
<path d="M24.9845 3.8786H22.982C22.6307 3.8786 22.3145 3.66182 22.1857 3.33372L21.3601 1.51746C20.9444 0.59175 20.0192 -0.00585938 19.0063 -0.00585938H14.5855C13.5726 -0.00585938 12.6533 0.585891 12.2317 1.51746L11.412 3.33372C11.2831 3.66182 10.9611 3.8786 10.6156 3.8786H8.41405C8.26767 3.8786 8.133 3.8083 8.05103 3.68526L7.57089 2.97047C7.4128 2.73026 7.14346 2.58964 6.85655 2.58964H5.19364C4.90673 2.58964 4.63739 2.73026 4.4793 2.97047L3.99916 3.68526C3.91719 3.8083 3.78252 3.8786 3.63614 3.8786H3.00962C1.34672 3.8786 0 5.22615 0 6.89595V21.9827C0 23.6524 1.34672 25 3.01547 25H24.9845C26.6533 25 28 23.6524 28 21.9827V6.89595C28 5.22615 26.6533 3.8786 24.9845 3.8786ZM8.82978 9.05203C8.23839 9.05203 7.75241 8.5716 7.75241 7.97399C7.75241 7.37638 8.23254 6.89595 8.82978 6.89595C9.42702 6.89595 9.90715 7.37638 9.90715 7.97399C9.90715 8.5716 9.42702 9.05203 8.82978 9.05203ZM16.5822 21.1214C12.8934 21.1214 9.90715 18.1275 9.90715 14.4422C9.90715 10.757 12.8992 7.76306 16.5822 7.76306C20.2652 7.76306 23.2572 10.757 23.2572 14.4422C23.2572 18.1275 20.2652 21.1214 16.5822 21.1214ZM11.1953 14.8699C10.9552 14.8699 10.762 14.6766 10.762 14.4364C10.762 11.2257 13.3735 8.61847 16.5763 8.61847C16.8164 8.61847 17.0096 8.81181 17.0096 9.05203C17.0096 9.29224 16.8164 9.48559 16.5763 9.48559C13.8478 9.48559 11.6228 11.712 11.6228 14.4422C11.6228 14.6824 11.4295 14.8758 11.1895 14.8758L11.1953 14.8699Z" fill="#44B649"/>
</g>
<defs>
<clipPath id="clip0_25_768">
<rect width="28" height="25" fill="white"/>
</clipPath>
</defs>
</svg>
