<svg width="40" height="25" viewBox="0 0 40 25" fill="none" xmlns="http://www.w3.org/2000/svg">
<g clip-path="url(#clip0_25_2774)">
<path d="M38.4382 6.70103H35.0542C34.9501 6.70103 34.8547 6.71392 34.7549 6.7311L30.3731 0H9.41866L4.9718 6.70103C4.96312 6.70103 4.95445 6.69674 4.95011 6.69674H1.56182C0.698482 6.69674 0 7.38832 0 8.24313V9.27406C0 10.1289 0.70282 10.8204 1.56182 10.8204H2.40347C2.40347 11.1641 2.40347 11.7741 2.40347 12.1735V17.7835C2.40347 19.4717 3.59219 20.9021 5.24946 21.4304V23.4536C5.24946 24.3084 5.94794 25 6.81128 25H7.8525C8.71584 25 9.41432 24.3084 9.41432 23.4536V21.6495H30.3818V23.4536C30.3818 24.3084 31.0803 25 31.9436 25H32.9848C33.8482 25 34.5466 24.3084 34.5466 23.4536V21.3832C36.1302 20.8204 37.2495 19.4244 37.2495 17.7835V12.1778C37.2495 11.7784 37.2495 11.1684 37.2495 10.8247H38.4338C39.2972 10.8247 39.9957 10.1332 39.9957 9.27835V8.24742C40 7.39261 39.3015 6.70103 38.4382 6.70103ZM7.33623 18.1701C6.18655 18.1701 5.2538 17.2466 5.2538 16.1082C5.2538 14.9699 6.18655 14.0464 7.33623 14.0464C8.4859 14.0464 9.41866 14.9699 9.41866 16.1082C9.41866 17.2466 8.4859 18.1701 7.33623 18.1701ZM5.89154 11.9072C5.89154 11.4476 5.89154 10.6186 5.89154 10.6186L11.5011 2.16495H28.2646L33.7701 10.6186C33.7701 10.6186 33.7701 11.4476 33.7701 11.9072H5.89154ZM32.4685 18.1701C31.3189 18.1701 30.3861 17.2466 30.3861 16.1082C30.3861 14.9699 31.3189 14.0464 32.4685 14.0464C33.6182 14.0464 34.551 14.9699 34.551 16.1082C34.551 17.2466 33.6182 18.1701 32.4685 18.1701Z" fill="#0B141F"/>
</g>
<defs>
<clipPath id="clip0_25_2774">
<rect width="40" height="25" fill="white"/>
</clipPath>
</defs>
</svg>
