<svg width="30" height="30" viewBox="0 0 30 30" fill="none" xmlns="http://www.w3.org/2000/svg">
    <g clip-path="url(#clip0_34_2302)">
        <path
            d="M15.0023 29.0008C18.8933 29.0008 22.3915 27.4449 24.917 24.9217C27.4745 22.3665 29.0272 18.8715 29.0272 15.0114C29.0272 11.1285 27.4699 7.6289 24.917 5.1057C22.387 2.55057 18.8887 0.99924 15.0023 0.99924C11.1387 0.99924 7.64043 2.55057 5.08297 5.1057C2.55747 7.6289 0.972751 11.1285 0.972751 15.0114C0.972751 18.8715 2.55747 22.3665 5.08297 24.9217C7.64043 27.4494 11.1387 29.0008 15.0023 29.0008ZM25.6112 25.5878C22.8893 28.3072 19.1399 30 14.9977 30C10.8555 30 7.1061 28.3072 4.38423 25.5878C1.69432 22.8958 0 19.1498 0 15.016C0 10.8548 1.69432 7.10875 4.3888 4.41217C7.11067 1.69278 10.8601 0 15.0023 0C19.1445 0 22.8939 1.69278 25.6158 4.41217C28.3376 7.10418 30.0046 10.8502 30.0046 15.016C30 19.1498 28.3331 22.8958 25.6112 25.5878Z"
            fill="black" />
        <path fill-rule="evenodd" clip-rule="evenodd"
            d="M20.9906 7H9.0094L7 16.9933H23L20.9906 7ZM15.403 13.2109C15.403 13.0067 15.3546 12.8563 15.2525 12.722C15.1666 12.5876 15 12.4694 14.7636 12.3674C14.3929 12.2169 14.1189 12.045 13.9362 11.8462C13.7535 11.642 13.6676 11.3734 13.6676 11.0188C13.6676 10.6803 13.7535 10.4117 13.9362 10.1914C14.1081 9.97112 14.3392 9.85292 14.6454 9.80457V9.14372H15.0484V9.82069C15.3546 9.86904 15.5856 10.0034 15.7576 10.2612C15.9241 10.4976 16.0101 10.82 16.0101 11.223H15.3868C15.3868 10.9543 15.3385 10.7179 15.2364 10.546C15.1343 10.3794 15 10.2935 14.8334 10.2935C14.6454 10.2935 14.5111 10.3633 14.4305 10.4976C14.3445 10.632 14.2962 10.8039 14.2962 11.0027C14.2962 11.2068 14.3499 11.3734 14.4305 11.4916C14.5326 11.6259 14.6991 11.7441 14.9355 11.8623C15.3062 12.0128 15.5749 12.1847 15.7629 12.3835C15.9295 12.5715 16.0316 12.8563 16.0316 13.1948C16.0316 13.5494 15.9295 13.818 15.7629 14.0383C15.5749 14.2424 15.3224 14.3606 15.0054 14.409V15H14.6185V14.409C14.2962 14.3606 14.0437 14.2424 13.8234 14.006C13.6192 13.7858 13.5225 13.4688 13.5225 13.0282H14.1457C14.1457 13.3506 14.2156 13.587 14.3284 13.7213C14.4627 13.8556 14.6185 13.9255 14.8012 13.9255C14.9839 13.9255 15.1397 13.8556 15.2418 13.7374C15.3546 13.6031 15.403 13.4312 15.403 13.2109ZM19.9913 15.9993H9.99799C9.99799 15.1075 9.40698 14.3606 8.5957 14.1081L9.43922 9.92277C9.60578 9.97112 9.79382 10.0087 9.99799 10.0087C11.094 10.0087 11.9913 9.11148 11.9913 8.01545H17.998C17.998 9.11148 18.8952 10.0087 19.9913 10.0087C20.1954 10.0087 20.3781 9.97649 20.55 9.92277L21.3936 14.1081C20.5823 14.3606 19.9913 15.1021 19.9913 15.9993ZM7 18.0087H23V19.0027H7V18.0087ZM7 19.9966H23V20.996H7V19.9966ZM7 21.9899H23V23H7V21.9899Z"
            fill="black" />
    </g>
    <defs>
        <clipPath id="clip0_34_2302">
            <rect width="30" height="30" fill="white" />
        </clipPath>
    </defs>
</svg>
    