<svg width="9" height="9" viewBox="0 0 9 9" fill="none" xmlns="http://www.w3.org/2000/svg">
    <path
        d="M8.69565 1.83263L7.47659 0.615234L4.82943 3.26239L2.18228 0.615234L0.964886 1.83263L3.61204 4.47978L0.964886 7.12694L2.18228 8.346L4.82943 5.69885L7.47659 8.346L8.69565 7.12694L6.0485 4.47978L8.69565 1.83263Z"
        fill="white" />
    <path
        d="M7.47659 8.63386L4.82943 5.98671L2.18228 8.63386L0.675587 7.12717L3.32274 4.48002L0.675587 1.83286L2.18228 0.326172L4.82943 2.97333L7.47659 0.326172L8.98328 1.83286L6.33612 4.48002L8.98328 7.12717L7.47659 8.63386ZM4.82943 5.40978L7.47659 8.05694L8.40636 7.12717L5.7592 4.48002L8.40636 1.83286L7.47659 0.903095L4.82943 3.55192L2.18228 0.904767L1.25251 1.83453L3.89967 4.48169L1.25418 7.12717L2.18395 8.05694L4.82943 5.40978Z"
        fill="white" />
</svg>
    