<svg width="10" height="11" viewBox="0 0 10 11" fill="none" xmlns="http://www.w3.org/2000/svg">
<g clip-path="url(#clip0_25_733)">
<path d="M0.00581455 -4.36518e-07C1.73278 1.25142 3.35383 2.42549 5.00462 3.62181C6.64352 2.43503 8.27527 1.25354 9.99153 0.0127155C9.99153 0.927175 9.9951 1.75368 9.98558 2.58019C9.98439 2.64483 9.90941 2.72324 9.84514 2.76987C8.24671 3.93228 6.64471 5.09151 5.00938 6.27618C4.31907 5.77709 3.64185 5.2886 2.96582 4.79906C2.07794 4.15586 1.18411 3.52008 0.312884 2.85888C0.158159 2.74126 0.0284289 2.51874 0.0212869 2.33966C-0.0132285 1.60216 0.00581451 0.861477 0.00581455 -4.36518e-07Z" fill="#44B649"/>
<path d="M9.99906 4.72591C9.99906 5.62766 10.0038 6.4192 9.99192 7.20968C9.99073 7.30081 9.92289 7.41843 9.84314 7.47671C8.23995 8.65289 6.62962 9.82166 5.00858 11C3.37564 9.81531 1.76412 8.64866 0.157357 7.47459C0.0788039 7.41737 0.0133437 7.29975 0.0121535 7.20968C0.00144188 6.41814 0.0062017 5.6266 0.00620174 4.72485C1.7177 5.96356 3.34588 7.14081 5.00739 8.34242C6.64629 7.15458 8.27685 5.97415 9.99906 4.72591Z" fill="#44B649"/>
</g>
<defs>
<clipPath id="clip0_25_733">
<rect width="11" height="10" fill="white" transform="translate(10) rotate(90)"/>
</clipPath>
</defs>
</svg>
