<svg width="15" height="11" viewBox="0 0 15 11" fill="none" xmlns="http://www.w3.org/2000/svg">
<g clip-path="url(#clip0_187_532)">
<path d="M14.0708 3.5114C14.0607 3.4982 14.0523 3.48594 14.0405 3.47274L13.5145 2.90417C13.9505 2.79385 14.4201 2.38462 14.4201 1.96408C14.4201 1.47471 13.8149 1.30122 13.2973 1.30122C12.757 1.30122 12.6939 1.7161 12.6871 2.00934L11.3304 0.545945C11.0552 0.240442 10.5325 0 10.142 0H7.5H7.49916H4.85804C4.46751 0 3.94484 0.240442 3.66962 0.545945L2.31371 2.01123C2.30698 1.71798 2.24386 1.3031 1.70351 1.3031C1.18589 1.3031 0.579901 1.4766 0.579901 1.96597C0.579901 2.38556 1.04955 2.79479 1.48552 2.90605L0.959488 3.47463C0.947705 3.48688 0.939289 3.50009 0.929189 3.51329C0.366962 4.05075 0 5.04929 0 5.77344V7.92705C0 8.45037 0.184323 8.92465 0.481427 9.27824V10.1127C0.481427 10.6011 0.846706 10.9991 1.29531 10.9991H2.27921C2.72781 10.9991 3.09225 10.6011 3.09225 10.1127V9.89868H7.5H7.50084H11.9078V10.1127C11.9078 10.6021 12.2722 10.9991 12.7216 10.9991H13.7055C14.155 10.9991 14.5194 10.6011 14.5194 10.1127V9.27824C14.8165 8.92465 15.0008 8.45037 15.0008 7.92705V5.77344C15 5.04929 14.633 4.05075 14.0708 3.5114ZM4.16788 1.19655C4.35894 1.01834 4.69223 0.883508 4.85804 0.883508H7.5H7.50084H10.1428C10.3094 0.883508 10.6427 1.01834 10.833 1.19655L12.6114 3.12764H7.5H7.49916H2.38946L4.16788 1.19655ZM0.610201 5.44814C0.610201 4.91822 0.98053 4.48731 1.43839 4.48731C1.89541 4.48731 3.38935 5.46983 3.38935 5.99974C3.38935 6.52966 1.89541 6.40708 1.43839 6.40708C0.98053 6.40708 0.610201 5.97806 0.610201 5.44814ZM3.09225 8.95483H2.93486H2.77747L1.84239 8.95671C1.58316 8.86619 1.39967 8.76059 1.27006 8.64744C1.20441 8.58992 1.15391 8.53052 1.11519 8.47111C1.07564 8.41171 1.04702 8.35231 1.0285 8.29385C0.912356 7.92517 1.15223 7.58666 1.15223 7.58666H2.74885L3.8127 8.95483H3.09225ZM9.7952 8.95577H7.5H7.49916H5.2048C4.7259 8.95577 4.3379 8.52109 4.3379 7.98457H7.5H7.50084H10.6629C10.6621 8.52109 10.2741 8.95577 9.7952 8.95577ZM9.99635 7.32265H7.5H7.49916H5.00365C4.4835 7.32265 4.06099 6.60415 4.06099 5.71687H7.5H7.50084H10.9398C10.9398 6.60415 10.5173 7.32265 9.99635 7.32265ZM13.9723 8.2929C13.953 8.35231 13.9244 8.41077 13.8848 8.47017C13.8461 8.52957 13.7956 8.58898 13.7299 8.64649C13.6012 8.75964 13.4177 8.86619 13.1576 8.95577L12.2225 8.95388H12.0651H11.9078H11.1873L12.252 7.58572H13.8478C13.8478 7.58666 14.0885 7.92422 13.9723 8.2929ZM13.5625 6.40708C13.1054 6.40708 11.6123 6.52872 11.6123 5.99974C11.6123 5.47077 13.1063 4.48731 13.5625 4.48731C14.0195 4.48731 14.3906 4.91728 14.3906 5.44814C14.3898 5.97806 14.0195 6.40708 13.5625 6.40708Z" fill="#44B649"/>
</g>
<defs>
<clipPath id="clip0_187_532">
<rect width="15" height="11" fill="white"/>
</clipPath>
</defs>
</svg>
