<svg width="45" height="52" viewBox="0 0 45 52" fill="none" xmlns="http://www.w3.org/2000/svg">
    <defs>
        <radialGradient id="paint0_radial_97_2119" cx="0" cy="0" r="1"
            gradientUnits="userSpaceOnUse"
            gradientTransform="translate(10.2118 3.08336) scale(43.2599 42.6117)">
            <stop offset="0.00124387" stop-color="#44B649" />
            <stop offset="0.9975" stop-color="#A4EE96" />
        </radialGradient>
        <clipPath id="clip0_97_2119">
            <rect width="45" height="52" fill="white" />
        </clipPath>
    </defs>
    <g clip-path="url(#clip0_97_2119)">
        <g opacity="0.1">
            <path
                d="M22.5001 52C32.3752 52 40.3805 50.8389 40.3805 49.4066C40.3805 47.9743 32.3752 46.8132 22.5001 46.8132C12.625 46.8132 4.61963 47.9743 4.61963 49.4066C4.61963 50.8389 12.625 52 22.5001 52Z"
                fill="white" />
            <path
                d="M22.5001 51.9821C32.3113 51.9821 40.2649 50.8277 40.2649 49.4037C40.2649 47.9797 32.3113 46.8254 22.5001 46.8254C12.6889 46.8254 4.73535 47.9797 4.73535 49.4037C4.73535 50.8277 12.6889 51.9821 22.5001 51.9821Z"
                fill="#FDFDFE" />
            <path
                d="M22.5 51.9644C32.2474 51.9644 40.1493 50.8168 40.1493 49.4011C40.1493 47.9855 32.2474 46.8378 22.5 46.8378C12.7525 46.8378 4.85059 47.9855 4.85059 49.4011C4.85059 50.8168 12.7525 51.9644 22.5 51.9644Z"
                fill="#FBFBFD" />
            <path
                d="M22.5 51.9468C32.1836 51.9468 40.0337 50.8059 40.0337 49.3985C40.0337 47.9912 32.1836 46.8503 22.5 46.8503C12.8164 46.8503 4.96631 47.9912 4.96631 49.3985C4.96631 50.8059 12.8164 51.9468 22.5 51.9468Z"
                fill="#F9FAFC" />
            <path
                d="M22.5 51.9291C32.1197 51.9291 39.918 50.7949 39.918 49.3959C39.918 47.9968 32.1197 46.8627 22.5 46.8627C12.8803 46.8627 5.08203 47.9968 5.08203 49.3959C5.08203 50.7949 12.8803 51.9291 22.5 51.9291Z"
                fill="#F7F8FB" />
            <path
                d="M22.5001 51.9115C32.0559 51.9115 39.8024 50.7841 39.8024 49.3933C39.8024 48.0025 32.0559 46.8751 22.5001 46.8751C12.9443 46.8751 5.19775 48.0025 5.19775 49.3933C5.19775 50.7841 12.9443 51.9115 22.5001 51.9115Z"
                fill="#F5F6FB" />
            <path
                d="M22.5001 51.8939C31.992 51.8939 39.6867 50.7732 39.6867 49.3907C39.6867 48.0083 31.992 46.8876 22.5001 46.8876C13.0082 46.8876 5.31348 48.0083 5.31348 49.3907C5.31348 50.7732 13.0082 51.8939 22.5001 51.8939Z"
                fill="#F3F4FA" />
            <path
                d="M22.5002 51.8762C31.9282 51.8762 39.5711 50.7623 39.5711 49.3881C39.5711 48.014 31.9282 46.9 22.5002 46.9C13.0721 46.9 5.4292 48.014 5.4292 49.3881C5.4292 50.7623 13.0721 51.8762 22.5002 51.8762Z"
                fill="#F1F2F9" />
            <path
                d="M22.5002 51.8585C31.8643 51.8585 39.4555 50.7513 39.4555 49.3855C39.4555 48.0196 31.8643 46.9124 22.5002 46.9124C13.1361 46.9124 5.54492 48.0196 5.54492 49.3855C5.54492 50.7513 13.1361 51.8585 22.5002 51.8585Z"
                fill="#EFF0F8" />
            <path
                d="M22.5 51.8409C31.8004 51.8409 39.3399 50.7404 39.3399 49.3829C39.3399 48.0254 31.8004 46.9249 22.5 46.9249C13.1996 46.9249 5.66016 48.0254 5.66016 49.3829C5.66016 50.7404 13.1996 51.8409 22.5 51.8409Z"
                fill="#EDEFF7" />
            <path
                d="M22.5001 51.823C31.7366 51.823 39.2243 50.7292 39.2243 49.38C39.2243 48.0308 31.7366 46.937 22.5001 46.937C13.2636 46.937 5.77588 48.0308 5.77588 49.38C5.77588 50.7292 13.2636 51.823 22.5001 51.823Z"
                fill="#EBEDF6" />
            <path
                d="M22.5001 51.8054C31.6727 51.8054 39.1086 50.7183 39.1086 49.3774C39.1086 48.0365 31.6727 46.9495 22.5001 46.9495C13.3275 46.9495 5.8916 48.0365 5.8916 49.3774C5.8916 50.7183 13.3275 51.8054 22.5001 51.8054Z"
                fill="#E9EBF5" />
            <path
                d="M22.5001 51.7877C31.6089 51.7877 38.993 50.7074 38.993 49.3748C38.993 48.0422 31.6089 46.9619 22.5001 46.9619C13.3914 46.9619 6.00732 48.0422 6.00732 49.3748C6.00732 50.7074 13.3914 51.7877 22.5001 51.7877Z"
                fill="#E7E9F4" />
            <path
                d="M22.5002 51.77C31.545 51.77 38.8773 50.6965 38.8773 49.3722C38.8773 48.0479 31.545 46.9743 22.5002 46.9743C13.4553 46.9743 6.12305 48.0479 6.12305 49.3722C6.12305 50.6965 13.4553 51.77 22.5002 51.77Z"
                fill="#E4E7F4" />
            <path
                d="M22.5 51.7524C31.4809 51.7524 38.7614 50.6856 38.7614 49.3696C38.7614 48.0536 31.4809 46.9868 22.5 46.9868C13.519 46.9868 6.23853 48.0536 6.23853 49.3696C6.23853 50.6856 13.519 51.7524 22.5 51.7524Z"
                fill="#E2E6F3" />
            <path
                d="M22.5 51.7348C31.4171 51.7348 38.6458 50.6747 38.6458 49.367C38.6458 48.0593 31.4171 46.9992 22.5 46.9992C13.583 46.9992 6.35425 48.0593 6.35425 49.367C6.35425 50.6747 13.583 51.7348 22.5 51.7348Z"
                fill="#E0E4F2" />
            <path
                d="M22.5001 51.7172C31.3534 51.7172 38.5305 50.6638 38.5305 49.3644C38.5305 48.065 31.3534 47.0117 22.5001 47.0117C13.6468 47.0117 6.46973 48.065 6.46973 49.3644C6.46973 50.6638 13.6468 51.7172 22.5001 51.7172Z"
                fill="#DEE2F1" />
            <path
                d="M22.5002 51.6995C31.2896 51.6995 38.4149 50.6528 38.4149 49.3618C38.4149 48.0707 31.2896 47.024 22.5002 47.024C13.7107 47.024 6.58545 48.0707 6.58545 49.3618C6.58545 50.6528 13.7107 51.6995 22.5002 51.6995Z"
                fill="#DCE0F0" />
            <path
                d="M22.5002 51.6818C31.2257 51.6818 38.2992 50.642 38.2992 49.3592C38.2992 48.0764 31.2257 47.0365 22.5002 47.0365C13.7746 47.0365 6.70117 48.0764 6.70117 49.3592C6.70117 50.642 13.7746 51.6818 22.5002 51.6818Z"
                fill="#DADEEF" />
            <path
                d="M22.5 51.6639C31.1617 51.6639 38.1833 50.6307 38.1833 49.3563C38.1833 48.0818 31.1617 47.0486 22.5 47.0486C13.8383 47.0486 6.81665 48.0818 6.81665 49.3563C6.81665 50.6307 13.8383 51.6639 22.5 51.6639Z"
                fill="#D8DCEE" />
            <path
                d="M22.5 51.6463C31.0978 51.6463 38.0677 50.6199 38.0677 49.3537C38.0677 48.0875 31.0978 47.0611 22.5 47.0611C13.9022 47.0611 6.93237 48.0875 6.93237 49.3537C6.93237 50.6199 13.9022 51.6463 22.5 51.6463Z"
                fill="#D6DBED" />
            <path
                d="M22.5001 51.6287C31.034 51.6287 37.952 50.609 37.952 49.3511C37.952 48.0932 31.034 47.0735 22.5001 47.0735C13.9662 47.0735 7.0481 48.0932 7.0481 49.3511C7.0481 50.609 13.9662 51.6287 22.5001 51.6287Z"
                fill="#D4D9ED" />
            <path
                d="M22.5001 51.611C30.9701 51.611 37.8364 50.598 37.8364 49.3485C37.8364 48.0989 30.9701 47.0859 22.5001 47.0859C14.0301 47.0859 7.16382 48.0989 7.16382 49.3485C7.16382 50.598 14.0301 51.611 22.5001 51.611Z"
                fill="#D2D7EC" />
            <path
                d="M22.5002 51.5933C30.9065 51.5933 37.7211 50.5871 37.7211 49.3459C37.7211 48.1046 30.9065 47.0984 22.5002 47.0984C14.0939 47.0984 7.2793 48.1046 7.2793 49.3459C7.2793 50.5871 14.0939 51.5933 22.5002 51.5933Z"
                fill="#D0D5EB" />
            <path
                d="M22.5 51.5757C30.8424 51.5757 37.6052 50.5762 37.6052 49.3433C37.6052 48.1103 30.8424 47.1108 22.5 47.1108C14.1576 47.1108 7.39478 48.1103 7.39478 49.3433C7.39478 50.5762 14.1576 51.5757 22.5 51.5757Z"
                fill="#CED3EA" />
            <path
                d="M22.5 51.5581C30.7785 51.5581 37.4896 50.5653 37.4896 49.3407C37.4896 48.1161 30.7785 47.1233 22.5 47.1233C14.2215 47.1233 7.5105 48.1161 7.5105 49.3407C7.5105 50.5653 14.2215 51.5581 22.5 51.5581Z"
                fill="#CCD2E9" />
            <path
                d="M22.5001 51.5404C30.7147 51.5404 37.3739 50.5544 37.3739 49.338C37.3739 48.1217 30.7147 47.1357 22.5001 47.1357C14.2855 47.1357 7.62622 48.1217 7.62622 49.338C7.62622 50.5544 14.2855 51.5404 22.5001 51.5404Z"
                fill="#CAD0E8" />
            <path
                d="M22.5001 51.5228C30.6508 51.5228 37.2583 50.5435 37.2583 49.3355C37.2583 48.1274 30.6508 47.1481 22.5001 47.1481C14.3494 47.1481 7.74194 48.1274 7.74194 49.3355C7.74194 50.5435 14.3494 51.5228 22.5001 51.5228Z"
                fill="#C8CEE7" />
            <path
                d="M22.5001 51.5051C30.587 51.5051 37.1426 50.5326 37.1426 49.3329C37.1426 48.1331 30.587 47.1606 22.5001 47.1606C14.4133 47.1606 7.85767 48.1331 7.85767 49.3329C7.85767 50.5326 14.4133 51.5051 22.5001 51.5051Z"
                fill="#C6CCE6" />
            <path
                d="M22.5002 51.4872C30.5231 51.4872 37.027 50.5214 37.027 49.33C37.027 48.1386 30.5231 47.1727 22.5002 47.1727C14.4773 47.1727 7.97339 48.1386 7.97339 49.33C7.97339 50.5214 14.4773 51.4872 22.5002 51.4872Z"
                fill="#C4CAE5" />
            <path
                d="M22.5 51.4696C30.4592 51.4696 36.9114 50.5105 36.9114 49.3274C36.9114 48.1443 30.4592 47.1852 22.5 47.1852C14.5408 47.1852 8.08862 48.1443 8.08862 49.3274C8.08862 50.5105 14.5408 51.4696 22.5 51.4696Z"
                fill="#C2C9E5" />
            <path
                d="M22.5001 51.4519C30.3954 51.4519 36.7958 50.4995 36.7958 49.3247C36.7958 48.1499 30.3954 47.1976 22.5001 47.1976C14.6048 47.1976 8.20435 48.1499 8.20435 49.3247C8.20435 50.4995 14.6048 51.4519 22.5001 51.4519Z"
                fill="#C0C7E4" />
            <path
                d="M22.5001 51.4343C30.3315 51.4343 36.6801 50.4886 36.6801 49.3221C36.6801 48.1557 30.3315 47.21 22.5001 47.21C14.6687 47.21 8.32007 48.1557 8.32007 49.3221C8.32007 50.4886 14.6687 51.4343 22.5001 51.4343Z"
                fill="#BEC5E3" />
            <path
                d="M22.5001 51.4166C30.2677 51.4166 36.5645 50.4777 36.5645 49.3196C36.5645 48.1614 30.2677 47.2225 22.5001 47.2225C14.7326 47.2225 8.43579 48.1614 8.43579 49.3196C8.43579 50.4777 14.7326 51.4166 22.5001 51.4166Z"
                fill="#BCC3E2" />
            <path
                d="M22.5002 51.399C30.2038 51.399 36.4489 50.4669 36.4489 49.317C36.4489 48.1671 30.2038 47.2349 22.5002 47.2349C14.7965 47.2349 8.55151 48.1671 8.55151 49.317C8.55151 50.4669 14.7965 51.399 22.5002 51.399Z"
                fill="#BAC1E1" />
            <path
                d="M22.5 51.3813C30.1397 51.3813 36.333 50.4559 36.333 49.3143C36.333 48.1727 30.1397 47.2473 22.5 47.2473C14.8602 47.2473 8.66699 48.1727 8.66699 49.3143C8.66699 50.4559 14.8602 51.3813 22.5 51.3813Z"
                fill="#B8BFE0" />
            <path
                d="M22.5 51.3637C30.0759 51.3637 36.2173 50.445 36.2173 49.3117C36.2173 48.1785 30.0759 47.2598 22.5 47.2598C14.9242 47.2598 8.78271 48.1785 8.78271 49.3117C8.78271 50.445 14.9242 51.3637 22.5 51.3637Z"
                fill="#B6BEDF" />
            <path
                d="M22.5001 51.3461C30.0122 51.3461 36.102 50.4341 36.102 49.3091C36.102 48.1842 30.0122 47.2722 22.5001 47.2722C14.988 47.2722 8.89819 48.1842 8.89819 49.3091C8.89819 50.4341 14.988 51.3461 22.5001 51.3461Z"
                fill="#B4BCDE" />
            <path
                d="M22.5001 51.3281C29.9484 51.3281 35.9864 50.4229 35.9864 49.3063C35.9864 48.1896 29.9484 47.2844 22.5001 47.2844C15.0519 47.2844 9.01392 48.1896 9.01392 49.3063C9.01392 50.4229 15.0519 51.3281 22.5001 51.3281Z"
                fill="#B1BADE" />
            <path
                d="M22.5002 51.3105C29.8845 51.3105 35.8707 50.412 35.8707 49.3037C35.8707 48.1953 29.8845 47.2968 22.5002 47.2968C15.1158 47.2968 9.12964 48.1953 9.12964 49.3037C9.12964 50.412 15.1158 51.3105 22.5002 51.3105Z"
                fill="#AFB8DD" />
            <path
                d="M22.5 51.2928C29.8204 51.2928 35.7548 50.4011 35.7548 49.301C35.7548 48.201 29.8204 47.3092 22.5 47.3092C15.1795 47.3092 9.24512 48.201 9.24512 49.301C9.24512 50.4011 15.1795 51.2928 22.5 51.2928Z"
                fill="#ADB6DC" />
            <path
                d="M22.5 51.2752C29.7566 51.2752 35.6392 50.3902 35.6392 49.2984C35.6392 48.2067 29.7566 47.3217 22.5 47.3217C15.2435 47.3217 9.36084 48.2067 9.36084 49.2984C9.36084 50.3902 15.2435 51.2752 22.5 51.2752Z"
                fill="#ABB5DB" />
            <path
                d="M22.5001 51.2576C29.6927 51.2576 35.5236 50.3793 35.5236 49.2958C35.5236 48.2124 29.6927 47.3341 22.5001 47.3341C15.3074 47.3341 9.47656 48.2124 9.47656 49.2958C9.47656 50.3793 15.3074 51.2576 22.5001 51.2576Z"
                fill="#A9B3DA" />
            <path
                d="M22.5001 51.2399C29.6289 51.2399 35.4079 50.3684 35.4079 49.2933C35.4079 48.2181 29.6289 47.3466 22.5001 47.3466C15.3713 47.3466 9.59229 48.2181 9.59229 49.2933C9.59229 50.3684 15.3713 51.2399 22.5001 51.2399Z"
                fill="#A7B1D9" />
            <path
                d="M22.5002 51.2223C29.5652 51.2223 35.2926 50.3574 35.2926 49.2906C35.2926 48.2238 29.5652 47.3589 22.5002 47.3589C15.4351 47.3589 9.70776 48.2238 9.70776 49.2906C9.70776 50.3574 15.4351 51.2223 22.5002 51.2223Z"
                fill="#A5AFD8" />
            <path
                d="M22.5 51.2046C29.5012 51.2046 35.1767 50.3465 35.1767 49.288C35.1767 48.2295 29.5012 47.3714 22.5 47.3714C15.4988 47.3714 9.82324 48.2295 9.82324 49.288C9.82324 50.3465 15.4988 51.2046 22.5 51.2046Z"
                fill="#A3ADD7" />
            <path
                d="M22.5 51.187C29.4373 51.187 35.0611 50.3356 35.0611 49.2854C35.0611 48.2352 29.4373 47.3839 22.5 47.3839C15.5627 47.3839 9.93896 48.2352 9.93896 49.2854C9.93896 50.3356 15.5627 51.187 22.5 51.187Z"
                fill="#A1ABD7" />
            <path
                d="M22.5001 51.1691C29.3734 51.1691 34.9454 50.3244 34.9454 49.2825C34.9454 48.2406 29.3734 47.396 22.5001 47.396C15.6267 47.396 10.0547 48.2406 10.0547 49.2825C10.0547 50.3244 15.6267 51.1691 22.5001 51.1691Z"
                fill="#9FAAD6" />
            <path
                d="M22.5001 51.1514C29.3096 51.1514 34.8298 50.3136 34.8298 49.2799C34.8298 48.2463 29.3096 47.4084 22.5001 47.4084C15.6906 47.4084 10.1704 48.2463 10.1704 49.2799C10.1704 50.3136 15.6906 51.1514 22.5001 51.1514Z"
                fill="#9DA8D5" />
            <path
                d="M22.5001 51.1338C29.2457 51.1338 34.7141 50.3027 34.7141 49.2774C34.7141 48.2521 29.2457 47.4209 22.5001 47.4209C15.7545 47.4209 10.2861 48.2521 10.2861 49.2774C10.2861 50.3027 15.7545 51.1338 22.5001 51.1338Z"
                fill="#9BA6D4" />
            <path
                d="M22.5002 51.1161C29.1819 51.1161 34.5985 50.2917 34.5985 49.2747C34.5985 48.2577 29.1819 47.4333 22.5002 47.4333C15.8185 47.4333 10.4019 48.2577 10.4019 49.2747C10.4019 50.2917 15.8185 51.1161 22.5002 51.1161Z"
                fill="#99A4D3" />
            <path
                d="M22.5 51.0985C29.118 51.0985 34.483 50.2808 34.483 49.2721C34.483 48.2634 29.118 47.4457 22.5 47.4457C15.882 47.4457 10.5171 48.2634 10.5171 49.2721C10.5171 50.2808 15.882 51.0985 22.5 51.0985Z"
                fill="#97A2D2" />
            <path
                d="M22.5001 51.0809C29.0542 51.0809 34.3673 50.2699 34.3673 49.2695C34.3673 48.2692 29.0542 47.4582 22.5001 47.4582C15.946 47.4582 10.6328 48.2692 10.6328 49.2695C10.6328 50.2699 15.946 51.0809 22.5001 51.0809Z"
                fill="#95A1D1" />
            <path
                d="M22.5001 51.0633C28.9903 51.0633 34.2517 50.259 34.2517 49.2669C34.2517 48.2749 28.9903 47.4706 22.5001 47.4706C16.0099 47.4706 10.7485 48.2749 10.7485 49.2669C10.7485 50.259 16.0099 51.0633 22.5001 51.0633Z"
                fill="#939FD0" />
            <path
                d="M22.5001 51.0456C28.9265 51.0456 34.136 50.2481 34.136 49.2643C34.136 48.2805 28.9265 47.483 22.5001 47.483C16.0738 47.483 10.8643 48.2805 10.8643 49.2643C10.8643 50.2481 16.0738 51.0456 22.5001 51.0456Z"
                fill="#919DCF" />
            <path
                d="M22.5002 51.0279C28.8626 51.0279 34.0204 50.2372 34.0204 49.2617C34.0204 48.2863 28.8626 47.4955 22.5002 47.4955C16.1377 47.4955 10.98 48.2863 10.98 49.2617C10.98 50.2372 16.1377 51.0279 22.5002 51.0279Z"
                fill="#8F9BCF" />
            <path
                d="M22.5 51.01C28.7985 51.01 33.9045 50.226 33.9045 49.2588C33.9045 48.2917 28.7985 47.5076 22.5 47.5076C16.2014 47.5076 11.0955 48.2917 11.0955 49.2588C11.0955 50.226 16.2014 51.01 22.5 51.01Z"
                fill="#8D99CE" />
            <path
                d="M22.5 50.9924C28.7347 50.9924 33.7888 50.2151 33.7888 49.2562C33.7888 48.2974 28.7347 47.5201 22.5 47.5201C16.2654 47.5201 11.2112 48.2974 11.2112 49.2562C11.2112 50.2151 16.2654 50.9924 22.5 50.9924Z"
                fill="#8B97CD" />
            <path
                d="M22.5001 50.9748C28.671 50.9748 33.6735 50.2042 33.6735 49.2536C33.6735 48.3031 28.671 47.5325 22.5001 47.5325C16.3292 47.5325 11.3267 48.3031 11.3267 49.2536C11.3267 50.2042 16.3292 50.9748 22.5001 50.9748Z"
                fill="#8996CC" />
            <path
                d="M22.5001 50.9571C28.6072 50.9571 33.5579 50.1932 33.5579 49.251C33.5579 48.3088 28.6072 47.5449 22.5001 47.5449C16.3931 47.5449 11.4424 48.3088 11.4424 49.251C11.4424 50.1932 16.3931 50.9571 22.5001 50.9571Z"
                fill="#8794CB" />
            <path
                d="M22.5002 50.9394C28.5433 50.9394 33.4423 50.1823 33.4423 49.2484C33.4423 48.3145 28.5433 47.5574 22.5002 47.5574C16.457 47.5574 11.5581 48.3145 11.5581 49.2484C11.5581 50.1823 16.457 50.9394 22.5002 50.9394Z"
                fill="#8592CA" />
            <path
                d="M22.5 50.9218C28.4792 50.9218 33.3264 50.1714 33.3264 49.2458C33.3264 48.3202 28.4792 47.5698 22.5 47.5698C16.5207 47.5698 11.6736 48.3202 11.6736 49.2458C11.6736 50.1714 16.5207 50.9218 22.5 50.9218Z"
                fill="#8390C9" />
            <path
                d="M22.5 50.9042C28.4154 50.9042 33.2107 50.1605 33.2107 49.2432C33.2107 48.3259 28.4154 47.5823 22.5 47.5823C16.5847 47.5823 11.7893 48.3259 11.7893 49.2432C11.7893 50.1605 16.5847 50.9042 22.5 50.9042Z"
                fill="#818EC8" />
            <path
                d="M22.5001 50.8865C28.3515 50.8865 33.0951 50.1496 33.0951 49.2406C33.0951 48.3316 28.3515 47.5947 22.5001 47.5947C16.6486 47.5947 11.905 48.3316 11.905 49.2406C11.905 50.1496 16.6486 50.8865 22.5001 50.8865Z"
                fill="#7E8DC8" />
            <path
                d="M22.5001 50.8689C28.2877 50.8689 32.9794 50.1387 32.9794 49.238C32.9794 48.3373 28.2877 47.6071 22.5001 47.6071C16.7125 47.6071 12.0208 48.3373 12.0208 49.238C12.0208 50.1387 16.7125 50.8689 22.5001 50.8689Z"
                fill="#7C8BC7" />
            <path
                d="M22.5002 50.8509C28.224 50.8509 32.8641 50.1275 32.8641 49.2351C32.8641 48.3427 28.224 47.6193 22.5002 47.6193C16.7763 47.6193 12.1362 48.3427 12.1362 49.2351C12.1362 50.1275 16.7763 50.8509 22.5002 50.8509Z"
                fill="#7A89C6" />
            <path
                d="M22.5 50.8333C28.1599 50.8333 32.7482 50.1166 32.7482 49.2325C32.7482 48.3484 28.1599 47.6317 22.5 47.6317C16.84 47.6317 12.2517 48.3484 12.2517 49.2325C12.2517 50.1166 16.84 50.8333 22.5 50.8333Z"
                fill="#7887C5" />
            <path
                d="M22.5 50.8157C28.0961 50.8157 32.6326 50.1057 32.6326 49.2299C32.6326 48.3541 28.0961 47.6442 22.5 47.6442C16.9039 47.6442 12.3674 48.3541 12.3674 49.2299C12.3674 50.1057 16.9039 50.8157 22.5 50.8157Z"
                fill="#7685C4" />
            <path
                d="M22.5001 50.798C28.0322 50.798 32.517 50.0948 32.517 49.2273C32.517 48.3598 28.0322 47.6566 22.5001 47.6566C16.9679 47.6566 12.4832 48.3598 12.4832 49.2273C12.4832 50.0948 16.9679 50.798 22.5001 50.798Z"
                fill="#7484C3" />
            <path
                d="M22.5001 50.7804C27.9684 50.7804 32.4013 50.0839 32.4013 49.2247C32.4013 48.3655 27.9684 47.669 22.5001 47.669C17.0318 47.669 12.5989 48.3655 12.5989 49.2247C12.5989 50.0839 17.0318 50.7804 22.5001 50.7804Z"
                fill="#7282C2" />
            <path
                d="M22.5001 50.7627C27.9045 50.7627 32.2857 50.073 32.2857 49.2221C32.2857 48.3712 27.9045 47.6815 22.5001 47.6815C17.0957 47.6815 12.7146 48.3712 12.7146 49.2221C12.7146 50.073 17.0957 50.7627 22.5001 50.7627Z"
                fill="#7080C1" />
            <path
                d="M22.5 50.7451C27.8406 50.7451 32.1701 50.0621 32.1701 49.2195C32.1701 48.3769 27.8406 47.6939 22.5 47.6939C17.1593 47.6939 12.8298 48.3769 12.8298 49.2195C12.8298 50.0621 17.1593 50.7451 22.5 50.7451Z"
                fill="#6E7EC1" />
            <path
                d="M22.5 50.7274C27.7768 50.7274 32.0545 50.0511 32.0545 49.2169C32.0545 48.3826 27.7768 47.7063 22.5 47.7063C17.2232 47.7063 12.9456 48.3826 12.9456 49.2169C12.9456 50.0511 17.2232 50.7274 22.5 50.7274Z"
                fill="#6C7CC0" />
            <path
                d="M22.5001 50.7098C27.7129 50.7098 31.9388 50.0402 31.9388 49.2143C31.9388 48.3883 27.7129 47.7188 22.5001 47.7188C17.2872 47.7188 13.0613 48.3883 13.0613 49.2143C13.0613 50.0402 17.2872 50.7098 22.5001 50.7098Z"
                fill="#6A7ABF" />
            <path
                d="M22.5001 50.6919C27.6491 50.6919 31.8232 50.029 31.8232 49.2114C31.8232 48.3937 27.6491 47.7309 22.5001 47.7309C17.3511 47.7309 13.177 48.3937 13.177 49.2114C13.177 50.029 17.3511 50.6919 22.5001 50.6919Z"
                fill="#6879BE" />
            <path
                d="M22.5001 50.6742C27.5852 50.6742 31.7075 50.0181 31.7075 49.2088C31.7075 48.3994 27.5852 47.7433 22.5001 47.7433C17.415 47.7433 13.2927 48.3994 13.2927 49.2088C13.2927 50.0181 17.415 50.6742 22.5001 50.6742Z"
                fill="#6677BD" />
            <path
                d="M22.5002 50.6566C27.5214 50.6566 31.5919 50.0072 31.5919 49.2062C31.5919 48.4052 27.5214 47.7558 22.5002 47.7558C17.479 47.7558 13.4084 48.4052 13.4084 49.2062C13.4084 50.0072 17.479 50.6566 22.5002 50.6566Z"
                fill="#6475BC" />
            <path
                d="M22.5 50.6389C27.4573 50.6389 31.476 49.9963 31.476 49.2036C31.476 48.4108 27.4573 47.7682 22.5 47.7682C17.5426 47.7682 13.5239 48.4108 13.5239 49.2036C13.5239 49.9963 17.5426 50.6389 22.5 50.6389Z"
                fill="#6273BB" />
            <path
                d="M22.5001 50.6213C27.3937 50.6213 31.3607 49.9854 31.3607 49.201C31.3607 48.4165 27.3937 47.7806 22.5001 47.7806C17.6065 47.7806 13.6394 48.4165 13.6394 49.201C13.6394 49.9854 17.6065 50.6213 22.5001 50.6213Z"
                fill="#6071BA" />
            <path
                d="M22.5001 50.6037C27.3298 50.6037 31.2451 49.9745 31.2451 49.1984C31.2451 48.4223 27.3298 47.7931 22.5001 47.7931C17.6704 47.7931 13.7551 48.4223 13.7551 49.1984C13.7551 49.9745 17.6704 50.6037 22.5001 50.6037Z"
                fill="#5E70B9" />
            <path
                d="M22.5001 50.586C27.266 50.586 31.1294 49.9636 31.1294 49.1958C31.1294 48.428 27.266 47.8055 22.5001 47.8055C17.7343 47.8055 13.8708 48.428 13.8708 49.1958C13.8708 49.9636 17.7343 50.586 22.5001 50.586Z"
                fill="#5C6EB9" />
            <path
                d="M22.5002 50.5684C27.2021 50.5684 31.0138 49.9527 31.0138 49.1931C31.0138 48.4336 27.2021 47.8179 22.5002 47.8179C17.7982 47.8179 13.9866 48.4336 13.9866 49.1931C13.9866 49.9527 17.7982 50.5684 22.5002 50.5684Z"
                fill="#5A6CB8" />
            <path
                d="M22.5 50.5507C27.138 50.5507 30.8979 49.9418 30.8979 49.1906C30.8979 48.4393 27.138 47.8304 22.5 47.8304C17.8619 47.8304 14.1021 48.4393 14.1021 49.1906C14.1021 49.9418 17.8619 50.5507 22.5 50.5507Z"
                fill="#586AB7" />
            <path
                d="M22.5 50.5328C27.0742 50.5328 30.7822 49.9306 30.7822 49.1877C30.7822 48.4448 27.0742 47.8425 22.5 47.8425C17.9259 47.8425 14.2178 48.4448 14.2178 49.1877C14.2178 49.9306 17.9259 50.5328 22.5 50.5328Z"
                fill="#5668B6" />
            <path
                d="M22.5 50.5152C27.0103 50.5152 30.6666 49.9197 30.6666 49.1851C30.6666 48.4505 27.0103 47.855 22.5 47.855C17.9898 47.855 14.3335 48.4505 14.3335 49.1851C14.3335 49.9197 17.9898 50.5152 22.5 50.5152Z"
                fill="#5466B5" />
            <path
                d="M22.5001 50.4975C26.9467 50.4975 30.5513 49.9088 30.5513 49.1825C30.5513 48.4562 26.9467 47.8674 22.5001 47.8674C18.0536 47.8674 14.449 48.4562 14.449 49.1825C14.449 49.9088 18.0536 50.4975 22.5001 50.4975Z"
                fill="#5265B4" />
            <path
                d="M22.5002 50.4799C26.8828 50.4799 30.4357 49.8978 30.4357 49.1798C30.4357 48.4619 26.8828 47.8798 22.5002 47.8798C18.1175 47.8798 14.5647 48.4619 14.5647 49.1798C14.5647 49.8978 18.1175 50.4799 22.5002 50.4799Z"
                fill="#5063B3" />
            <path
                d="M22.5 50.4622C26.8187 50.4622 30.3198 49.8869 30.3198 49.1772C30.3198 48.4676 26.8187 47.8923 22.5 47.8923C18.1812 47.8923 14.6802 48.4676 14.6802 49.1772C14.6802 49.8869 18.1812 50.4622 22.5 50.4622Z"
                fill="#4E61B2" />
            <path
                d="M22.5 50.4446C26.7549 50.4446 30.2041 49.876 30.2041 49.1747C30.2041 48.4733 26.7549 47.9047 22.5 47.9047C18.2451 47.9047 14.7959 48.4733 14.7959 49.1747C14.7959 49.876 18.2451 50.4446 22.5 50.4446Z"
                fill="#4B5FB2" />
            <path
                d="M22.5 50.427C26.691 50.427 30.0885 49.8651 30.0885 49.1721C30.0885 48.479 26.691 47.9172 22.5 47.9172C18.3091 47.9172 14.9116 48.479 14.9116 49.1721C14.9116 49.8651 18.3091 50.427 22.5 50.427Z"
                fill="#495DB1" />
            <path
                d="M22.5001 50.4093C26.6272 50.4093 29.9728 49.8542 29.9728 49.1694C29.9728 48.4847 26.6272 47.9296 22.5001 47.9296C18.373 47.9296 15.0273 48.4847 15.0273 49.1694C15.0273 49.8542 18.373 50.4093 22.5001 50.4093Z"
                fill="#475CB0" />
            <path
                d="M22.5001 50.3917C26.5633 50.3917 29.8572 49.8433 29.8572 49.1668C29.8572 48.4904 26.5633 47.942 22.5001 47.942C18.4369 47.942 15.1431 48.4904 15.1431 49.1668C15.1431 49.8433 18.4369 50.3917 22.5001 50.3917Z"
                fill="#455AAF" />
            <path
                d="M22.5 50.3737C26.4994 50.3737 29.7416 49.8321 29.7416 49.1639C29.7416 48.4958 26.4994 47.9542 22.5 47.9542C18.5005 47.9542 15.2583 48.4958 15.2583 49.1639C15.2583 49.8321 18.5005 50.3737 22.5 50.3737Z"
                fill="#4358AE" />
            <path
                d="M22.5 50.3561C26.4356 50.3561 29.626 49.8212 29.626 49.1614C29.626 48.5015 26.4356 47.9666 22.5 47.9666C18.5644 47.9666 15.374 48.5015 15.374 49.1614C15.374 49.8212 18.5644 50.3561 22.5 50.3561Z"
                fill="#4156AD" />
            <path
                d="M22.5 50.3385C26.3717 50.3385 29.5104 49.8103 29.5104 49.1588C29.5104 48.5072 26.3717 47.9791 22.5 47.9791C18.6284 47.9791 15.4897 48.5072 15.4897 49.1588C15.4897 49.8103 18.6284 50.3385 22.5 50.3385Z"
                fill="#3F54AC" />
            <path
                d="M22.5001 50.3208C26.3079 50.3208 29.3947 49.7994 29.3947 49.1562C29.3947 48.513 26.3079 47.9915 22.5001 47.9915C18.6923 47.9915 15.6055 48.513 15.6055 49.1562C15.6055 49.7994 18.6923 50.3208 22.5001 50.3208Z"
                fill="#3D52AB" />
            <path
                d="M22.5001 50.3032C26.244 50.3032 29.2791 49.7884 29.2791 49.1535C29.2791 48.5186 26.244 48.0039 22.5001 48.0039C18.7562 48.0039 15.7212 48.5186 15.7212 49.1535C15.7212 49.7884 18.7562 50.3032 22.5001 50.3032Z"
                fill="#3B51AB" />
            <path
                d="M22.5002 50.2855C26.1802 50.2855 29.1634 49.7776 29.1634 49.1509C29.1634 48.5243 26.1802 48.0164 22.5002 48.0164C18.8202 48.0164 15.8369 48.5243 15.8369 49.1509C15.8369 49.7776 18.8202 50.2855 22.5002 50.2855Z"
                fill="#394FAA" />
            <path
                d="M22.5 50.2679C26.1161 50.2679 29.0475 49.7667 29.0475 49.1484C29.0475 48.53 26.1161 48.0288 22.5 48.0288C18.8838 48.0288 15.9524 48.53 15.9524 49.1484C15.9524 49.7667 18.8838 50.2679 22.5 50.2679Z"
                fill="#374DA9" />
            <path
                d="M22.5 50.2503C26.0524 50.2503 28.9322 49.7558 28.9322 49.1458C28.9322 48.5358 26.0524 48.0413 22.5 48.0413C18.9477 48.0413 16.0679 48.5358 16.0679 49.1458C16.0679 49.7558 18.9477 50.2503 22.5 50.2503Z"
                fill="#354BA8" />
            <path
                d="M22.5001 50.2326C25.9886 50.2326 28.8166 49.7448 28.8166 49.1431C28.8166 48.5414 25.9886 48.0536 22.5001 48.0536C19.0116 48.0536 16.1836 48.5414 16.1836 49.1431C16.1836 49.7448 19.0116 50.2326 22.5001 50.2326Z"
                fill="#3349A7" />
            <path
                d="M22.5001 50.2147C25.9247 50.2147 28.7009 49.7336 28.7009 49.1402C28.7009 48.5468 25.9247 48.0658 22.5001 48.0658C19.0755 48.0658 16.2993 48.5468 16.2993 49.1402C16.2993 49.7336 19.0755 50.2147 22.5001 50.2147Z"
                fill="#3148A6" />
            <path
                d="M22.5002 50.197C25.8609 50.197 28.5853 49.7227 28.5853 49.1376C28.5853 48.5526 25.8609 48.0782 22.5002 48.0782C19.1394 48.0782 16.415 48.5526 16.415 49.1376C16.415 49.7227 19.1394 50.197 22.5002 50.197Z"
                fill="#2F46A5" />
            <path
                d="M22.5 50.1794C25.7968 50.1794 28.4694 49.7118 28.4694 49.135C28.4694 48.5583 25.7968 48.0907 22.5 48.0907C19.2031 48.0907 16.5305 48.5583 16.5305 49.135C16.5305 49.7118 19.2031 50.1794 22.5 50.1794Z"
                fill="#2D44A4" />
            <path
                d="M22.5 50.1618C25.7329 50.1618 28.3538 49.7009 28.3538 49.1325C28.3538 48.564 25.7329 48.1031 22.5 48.1031C19.2671 48.1031 16.6462 48.564 16.6462 49.1325C16.6462 49.7009 19.2671 50.1618 22.5 50.1618Z"
                fill="#2B42A3" />
            <path
                d="M22.5 50.1441C25.6691 50.1441 28.2381 49.69 28.2381 49.1298C28.2381 48.5696 25.6691 48.1155 22.5 48.1155C19.331 48.1155 16.762 48.5696 16.762 49.1298C16.762 49.69 19.331 50.1441 22.5 50.1441Z"
                fill="#2940A3" />
            <path
                d="M22.5001 50.1265C25.6055 50.1265 28.1228 49.6791 28.1228 49.1272C28.1228 48.5754 25.6055 48.128 22.5001 48.128C19.3948 48.128 16.8774 48.5754 16.8774 49.1272C16.8774 49.6791 19.3948 50.1265 22.5001 50.1265Z"
                fill="#273FA2" />
            <path
                d="M22.5002 50.1088C25.5416 50.1088 28.0072 49.6682 28.0072 49.1246C28.0072 48.5811 25.5416 48.1404 22.5002 48.1404C19.4587 48.1404 16.9932 48.5811 16.9932 49.1246C16.9932 49.6682 19.4587 50.1088 22.5002 50.1088Z"
                fill="#253DA1" />
            <path
                d="M22.5 50.0912C25.4775 50.0912 27.8913 49.6573 27.8913 49.122C27.8913 48.5868 25.4775 48.1529 22.5 48.1529C19.5224 48.1529 17.1086 48.5868 17.1086 49.122C17.1086 49.6573 19.5224 50.0912 22.5 50.0912Z"
                fill="#233BA0" />
            <path
                d="M22.5 50.0735C25.4137 50.0735 27.7756 49.6463 27.7756 49.1194C27.7756 48.5925 25.4137 48.1653 22.5 48.1653C19.5863 48.1653 17.2244 48.5925 17.2244 49.1194C17.2244 49.6463 19.5863 50.0735 22.5 50.0735Z"
                fill="#21399F" />
            <path
                d="M22.5 50.0556C25.3498 50.0556 27.66 49.6351 27.66 49.1165C27.66 48.5979 25.3498 48.1774 22.5 48.1774C19.6503 48.1774 17.3401 48.5979 17.3401 49.1165C17.3401 49.6351 19.6503 50.0556 22.5 50.0556Z"
                fill="#1F379E" />
            <path
                d="M22.5001 50.038C25.286 50.038 27.5444 49.6242 27.5444 49.1139C27.5444 48.6036 25.286 48.1899 22.5001 48.1899C19.7142 48.1899 17.4558 48.6036 17.4558 49.1139C17.4558 49.6242 19.7142 50.038 22.5001 50.038Z"
                fill="#1D359D" />
            <path
                d="M22.5001 50.0203C25.2221 50.0203 27.4287 49.6134 27.4287 49.1113C27.4287 48.6093 25.2221 48.2023 22.5001 48.2023C19.7781 48.2023 17.5715 48.6093 17.5715 49.1113C17.5715 49.6134 19.7781 50.0203 22.5001 50.0203Z"
                fill="#1B349C" />
            <path
                d="M22.5 50.0027C25.1582 50.0027 27.3132 49.6025 27.3132 49.1087C27.3132 48.615 25.1582 48.2148 22.5 48.2148C19.8417 48.2148 17.6868 48.615 17.6868 49.1087C17.6868 49.6025 19.8417 50.0027 22.5 50.0027Z"
                fill="#18329C" />
            <path
                d="M22.5 49.985C25.0944 49.985 27.1975 49.5915 27.1975 49.1061C27.1975 48.6207 25.0944 48.2272 22.5 48.2272C19.9056 48.2272 17.8025 48.6207 17.8025 49.1061C17.8025 49.5915 19.9056 49.985 22.5 49.985Z"
                fill="#16309B" />
            <path
                d="M22.5 49.9674C25.0305 49.9674 27.0819 49.5806 27.0819 49.1035C27.0819 48.6264 25.0305 48.2396 22.5 48.2396C19.9696 48.2396 17.9182 48.6264 17.9182 49.1035C17.9182 49.5806 19.9696 49.9674 22.5 49.9674Z"
                fill="#142E9A" />
            <path
                d="M22.5001 49.9498C24.9667 49.9498 26.9662 49.5697 26.9662 49.1009C26.9662 48.6321 24.9667 48.2521 22.5001 48.2521C20.0335 48.2521 18.0339 48.6321 18.0339 49.1009C18.0339 49.5697 20.0335 49.9498 22.5001 49.9498Z"
                fill="#122C99" />
            <path
                d="M22.5001 49.9321C24.9028 49.9321 26.8506 49.5588 26.8506 49.0983C26.8506 48.6378 24.9028 48.2645 22.5001 48.2645C20.0974 48.2645 18.1497 48.6378 18.1497 49.0983C18.1497 49.5588 20.0974 49.9321 22.5001 49.9321Z"
                fill="#102B98" />
            <path
                d="M22.5002 49.9144C24.839 49.9144 26.7349 49.5479 26.7349 49.0957C26.7349 48.6435 24.839 48.2769 22.5002 48.2769C20.1614 48.2769 18.2654 48.6435 18.2654 49.0957C18.2654 49.5479 20.1614 49.9144 22.5002 49.9144Z"
                fill="#0E2997" />
            <path
                d="M22.5 49.8965C24.7749 49.8965 26.6191 49.5367 26.6191 49.0928C26.6191 48.6489 24.7749 48.2891 22.5 48.2891C20.225 48.2891 18.3809 48.6489 18.3809 49.0928C18.3809 49.5367 20.225 49.8965 22.5 49.8965Z"
                fill="#0C2796" />
            <path
                d="M22.5 49.8789C24.7112 49.8789 26.5037 49.5258 26.5037 49.0902C26.5037 48.6546 24.7112 48.3015 22.5 48.3015C20.2889 48.3015 18.4963 48.6546 18.4963 49.0902C18.4963 49.5258 20.2889 49.8789 22.5 49.8789Z"
                fill="#0A2595" />
            <path
                d="M22.5001 49.8613C24.6474 49.8613 26.3881 49.5149 26.3881 49.0876C26.3881 48.6603 24.6474 48.314 22.5001 48.314C20.3528 48.314 18.6121 48.6603 18.6121 49.0876C18.6121 49.5149 20.3528 49.8613 22.5001 49.8613Z"
                fill="#082395" />
            <path
                d="M22.5001 49.8436C24.5835 49.8436 26.2725 49.504 26.2725 49.085C26.2725 48.6661 24.5835 48.3264 22.5001 48.3264C20.4167 48.3264 18.7278 48.6661 18.7278 49.085C18.7278 49.504 20.4167 49.8436 22.5001 49.8436Z"
                fill="#062194" />
            <path
                d="M22.5002 49.8259C24.5197 49.8259 26.1568 49.493 26.1568 49.0824C26.1568 48.6717 24.5197 48.3388 22.5002 48.3388C20.4806 48.3388 18.8435 48.6717 18.8435 49.0824C18.8435 49.493 20.4806 49.8259 22.5002 49.8259Z"
                fill="#042093" />
            <path
                d="M22.5 49.8083C24.4556 49.8083 26.0409 49.4821 26.0409 49.0798C26.0409 48.6774 24.4556 48.3513 22.5 48.3513C20.5443 48.3513 18.959 48.6774 18.959 49.0798C18.959 49.4821 20.5443 49.8083 22.5 49.8083Z"
                fill="#021E92" />
            <path
                d="M22.5 49.7907C24.3917 49.7907 25.9253 49.4712 25.9253 49.0772C25.9253 48.6831 24.3917 48.3637 22.5 48.3637C20.6083 48.3637 19.0747 48.6831 19.0747 49.0772C19.0747 49.4712 20.6083 49.7907 22.5 49.7907Z"
                fill="#001C91" />
        </g>
        <path
            d="M44.0977 31.0002C44.6891 28.1477 45 25.1945 45 22.1699C45 19.1454 44.6891 16.1922 44.0977 13.3397C43.1758 7.00591 38.1515 1.97677 31.7619 0.947753C28.7767 0.326811 25.6814 0 22.5087 0C19.3356 0 16.2403 0.326811 13.2549 0.947753C6.96949 1.96 2.00508 6.84308 0.967455 13.0311C0.333838 15.979 0 19.036 0 22.1699C0 25.3039 0.333838 28.3609 0.967455 31.3088C1.9995 37.4621 6.91429 42.3249 13.1497 43.3745C16.1675 44.0096 19.2983 44.3442 22.5087 44.3442C25.719 44.3442 28.8498 44.0096 31.8676 43.3745C38.207 42.3079 43.1811 37.2993 44.0977 31.0002Z"
            fill="url(#paint0_radial_97_2119)" />
        <path
            d="M30.8017 30.8287H25.7607C25.0075 30.8287 24.3948 30.2251 24.3948 29.4833V24.6103H20.6028V29.483C20.6028 30.2248 19.99 30.8284 19.2369 30.8284H14.1985C13.2566 30.8284 12.4902 30.0736 12.4902 29.1458V19.6761C12.4902 18.842 12.8989 18.0507 13.5834 17.5593L20.9345 12.2846C21.8709 11.6128 23.129 11.6128 24.0653 12.2846L31.4165 17.5593C32.1009 18.0504 32.5096 18.8417 32.5096 19.6761V29.1458C32.5099 30.0739 31.7436 30.8287 30.8017 30.8287ZM26.1564 29.0934H30.748V19.6761C30.748 19.3947 30.61 19.1277 30.3792 18.962L23.028 13.687C22.7121 13.4603 22.2878 13.4603 21.9719 13.687L14.6207 18.962C14.3896 19.1277 14.2519 19.3947 14.2519 19.6761V29.0932H18.8411V24.2205C18.8411 23.4787 19.4539 22.8751 20.207 22.8751H24.7906C25.5437 22.8751 26.1564 23.4787 26.1564 24.2205V29.0934Z"
            fill="white" />
    </g>

</svg>
