<svg width="17" height="21" viewBox="0 0 17 21" fill="none" xmlns="http://www.w3.org/2000/svg">
<g clip-path="url(#clip0_142_648)">
<path d="M17 15.1645C17 16.1154 16.2171 16.8934 15.2603 16.8934H10.4863C9.52945 16.8934 8.21084 17.4609 7.55608 18.1542L5.25588 20.5909C4.60113 21.2843 4.04609 21.0741 4.02244 20.1233L3.98531 18.6219C3.96166 17.6714 3.1595 16.8934 2.20266 16.8934H1.73971C0.782868 16.8934 0 16.1154 0 15.1645V1.72887C0 0.777992 0.782868 0 1.73971 0H15.2599C16.2168 0 16.9996 0.777992 16.9996 1.72887V15.1645H17Z" fill="#44B649"/>
<path d="M8.22529 5.60535C8.5503 5.60535 8.83237 5.48889 9.07076 5.25632C9.30478 5.02376 9.42198 4.74562 9.42198 4.42263C9.42198 4.07794 9.30478 3.79365 9.07076 3.56941C8.83237 3.34552 8.55067 3.2334 8.22529 3.2334C7.89591 3.2334 7.61603 3.34986 7.38637 3.58243C7.15235 3.81499 7.03516 4.0953 7.03516 4.42263C7.03516 4.74996 7.15199 5.0281 7.38637 5.25632C7.62076 5.48889 7.90028 5.60535 8.22529 5.60535Z" fill="white"/>
<path d="M10.7766 11.2805H9.98864C9.98864 11.2805 9.60503 11.2863 9.59193 10.9325C9.55408 10.467 9.5235 10.0844 9.51986 9.97405L9.47437 8.83654C9.47 8.76782 9.46782 8.67704 9.46782 8.56528C9.46782 8.31535 9.46563 8.11931 9.46127 7.97717C9.4569 7.92545 9.45472 7.86722 9.45472 7.80284L9.47437 7.31818V6.18066C8.3472 6.71054 7.34814 7.04655 6.47647 7.18869L6.30068 7.99634C6.45681 8.02636 6.61295 8.04155 6.76909 8.04155C6.97727 8.04155 7.17235 8.00502 7.35433 7.9316L7.38017 9.55377C7.38017 9.95054 7.39072 10.454 7.40128 10.9586C7.40928 11.2859 7.08027 11.2801 7.08027 11.2801H6.22461V13.0198H7.39837C7.39837 13.0202 7.39837 13.0206 7.39837 13.0209C7.40128 13.0206 7.40383 13.0202 7.40674 13.0198H10.777V11.2805H10.7766Z" fill="white"/>
</g>
<defs>
<clipPath id="clip0_142_648">
<rect width="17" height="21" fill="white"/>
</clipPath>
</defs>
</svg>
