<svg width="30" height="30" viewBox="0 0 30 30" fill="none" xmlns="http://www.w3.org/2000/svg">
    <g clip-path="url(#clip0_34_2299)">
        <path
            d="M15.0023 0.99924C11.1387 0.99924 7.64043 2.55513 5.08297 5.07833C2.5529 7.63346 0.972751 11.1285 0.972751 14.984C0.972751 18.8715 2.55747 22.3665 5.08297 24.8943C7.64043 27.4494 11.1387 29.0008 15.0023 29.0008C18.8933 29.0008 22.3915 27.4449 24.9216 24.8943C27.4745 22.3711 29.0318 18.8715 29.0318 14.984C29.0318 11.1285 27.4745 7.6289 24.9216 5.07833C22.3915 2.55513 18.8887 0.99924 15.0023 0.99924ZM4.3888 4.41217C7.11067 1.69278 10.8601 0 15.0023 0C19.1399 0 22.8939 1.69278 25.6158 4.41217C28.3376 7.10418 30.0046 10.8502 30.0046 14.984C30.0046 19.1452 28.3376 22.8958 25.6158 25.5878C22.8939 28.3072 19.1445 30 15.0023 30C10.8647 30 7.11067 28.3072 4.3888 25.5878C1.66692 22.8958 0 19.1498 0 14.9886C0 10.8502 1.66692 7.10418 4.3888 4.41217Z"
            fill="black" />
        <path fill-rule="evenodd" clip-rule="evenodd"
            d="M7.08339 10.2457H22.1237C22.4264 10.2457 22.6927 10.3632 22.9045 10.5734C23.0921 10.7651 23.2253 11.0371 23.2253 11.3524V13.6275V13.7079H23.1466H18.5044C18.1291 13.7017 17.766 13.8563 17.5239 14.1283C17.2576 14.3818 17.1063 14.7527 17.1063 15.136V18.1097C17.1063 18.5178 17.2576 18.8702 17.5239 19.1175C17.772 19.3895 18.1352 19.544 18.5104 19.544H23.1527H23.2313V19.6244V21.8934C23.2313 22.2025 23.0982 22.4745 22.9106 22.6909C22.7048 22.8825 22.4324 23 22.1298 23H7.08339C6.79892 23 6.51446 22.8825 6.32078 22.6909C6.13315 22.4745 6 22.2025 6 21.8934V11.3524C6 11.0433 6.13315 10.7713 6.32078 10.5734C6.51446 10.357 6.79892 10.2457 7.08339 10.2457ZM18.5104 14.4992H23.3948C23.7337 14.4992 24 14.7898 24 15.1422V18.1159C24 18.4683 23.7337 18.7589 23.3948 18.7589H18.5104C18.1654 18.7589 17.8991 18.4683 17.8991 18.1159V15.1422C17.8991 14.7898 18.1654 14.4992 18.5104 14.4992ZM7.06523 9.58423C10.4304 8.73107 16.3618 7.85317 19.7088 7C20.0114 7 20.2051 7.13601 20.3141 7.37094C20.5077 8.10665 20.6954 8.84853 20.883 9.58423C17.1426 9.58423 10.8117 9.58423 7.06523 9.58423ZM20.8648 15.3524C21.5488 15.3524 22.0995 15.8964 22.0995 16.5951C22.0995 17.2751 21.5488 17.8377 20.8648 17.8377C20.1991 17.8377 19.6483 17.2751 19.6483 16.5951C19.6483 15.8964 20.1991 15.3524 20.8648 15.3524Z"
            fill="black" />
    </g>
    <defs>
        <clipPath id="clip0_34_2299">
            <rect width="30" height="30" fill="white" />
        </clipPath>
    </defs>
</svg>
    