<svg width="33" height="32" viewBox="0 0 33 32" fill="none" xmlns="http://www.w3.org/2000/svg">
<g clip-path="url(#clip0_25_2776)">
<path d="M0 19.8642C0 19.6926 0 19.5211 0 19.3485C0.134237 19.0711 0.251315 18.7845 0.406747 18.5191C1.86014 16.0399 3.3327 13.5717 4.77095 11.0834C5.26954 10.2217 5.96091 9.8332 6.95204 9.83723C10.9347 9.85439 14.9184 9.8443 18.9021 9.8443C19.0374 9.8443 19.1726 9.8443 19.32 9.8443C19.327 9.74844 19.3331 9.69597 19.3331 9.64451C19.3341 8.34586 19.3341 7.04721 19.3341 5.74856C19.3341 4.91105 19.325 4.07354 19.3371 3.23704C19.3482 2.40457 19.8731 1.81529 20.6391 1.81226C20.9167 1.81125 21.1993 1.92326 21.4708 2.01205C22.4528 2.33293 23.4107 2.33495 24.2433 1.66696C24.6642 1.32994 24.9831 0.866782 25.3495 0.462153C25.9097 -0.156395 26.7706 -0.154377 27.3237 0.470225C27.4802 0.646809 27.6245 0.834492 27.7648 1.02419C28.6408 2.20377 30.0609 2.5307 31.2438 1.9061C31.4204 1.81327 31.6627 1.79612 31.8676 1.81529C32.5539 1.87987 32.9808 2.41466 32.9818 3.18961C32.9859 5.16432 32.9384 7.14105 32.996 9.11476C33.0495 10.9129 32.3591 12.3609 31.16 13.6282C30.8371 13.9703 30.5373 14.3346 30.2032 14.715C30.9431 15.9733 31.7374 17.3224 32.5317 18.6715C32.7245 18.9994 32.8779 19.3405 32.8325 19.734C32.7426 20.5211 32.1633 21.0074 31.2872 21.0165C30.3314 21.0266 29.3766 21.0185 28.4208 21.0185C28.3078 21.0185 28.1957 21.0185 28.0655 21.0185C28.0655 21.1991 28.0655 21.3273 28.0655 21.4554C28.0655 23.2909 28.0686 25.1264 28.0645 26.9618C28.0615 28.0728 27.4973 28.8316 26.4365 29.1575C23.5893 30.0334 20.7411 30.9082 17.8918 31.778C16.9118 32.0777 15.9247 32.0747 14.9447 31.776C12.1156 30.9133 9.28857 30.0445 6.46052 29.1767C5.32606 28.8286 4.78104 28.0839 4.78104 26.8871C4.78003 25.0628 4.78104 23.2374 4.78104 21.4131C4.78104 21.2889 4.78104 21.1648 4.78104 21.0195C3.74752 21.0195 2.76144 21.0024 1.77535 21.0246C0.904331 21.0427 0.277557 20.7319 0 19.8642ZM26.3336 3.04532C25.0841 4.40047 23.5227 4.75061 21.7675 4.58917C21.7675 4.74355 21.7675 4.85858 21.7675 4.97361C21.7675 6.45389 21.7847 7.93417 21.7605 9.41343C21.7483 10.147 21.9684 10.7827 22.3933 11.3589C23.338 12.6404 24.6067 13.5243 25.9955 14.2538C26.0772 14.2972 26.2266 14.2831 26.3134 14.2377C27.4862 13.6161 28.5561 12.8513 29.4776 11.8917C30.2022 11.1369 30.617 10.2731 30.5726 9.17732C30.5161 7.78584 30.5595 6.38931 30.5585 4.9948C30.5585 4.8717 30.5474 4.74759 30.5403 4.61641C28.9023 4.70016 27.4872 4.28242 26.3336 3.04532ZM15.5331 12.0238C15.4453 12.0148 15.4049 12.0067 15.3645 12.0067C12.595 12.0057 9.82652 12.0037 7.05701 12.0148C6.94296 12.0148 6.7845 12.1248 6.72293 12.2287C5.46333 14.3487 4.21584 16.4748 2.96633 18.6008C2.92696 18.6684 2.90072 18.7441 2.86136 18.8309C2.93807 18.838 2.97945 18.845 3.02184 18.845C5.78025 18.846 8.53866 18.848 11.2971 18.837C11.4131 18.837 11.5736 18.731 11.6362 18.6281C12.1166 17.841 12.5779 17.0429 13.0462 16.2487C13.8667 14.8562 14.6873 13.4617 15.5331 12.0238ZM17.3862 12.04C17.4326 12.1379 17.4467 12.1772 17.4679 12.2125C18.7285 14.3558 19.9922 16.496 21.2457 18.6432C21.3507 18.8228 21.4799 18.8269 21.6444 18.8269C24.316 18.8248 26.9876 18.8259 29.6592 18.8248C29.747 18.8248 29.8348 18.8117 29.959 18.8016C29.3807 17.8198 28.8276 16.8794 28.2704 15.9339C27.8819 16.1408 27.5084 16.3254 27.1491 16.5343C26.5223 16.8976 25.8976 16.9107 25.2506 16.5868C23.1785 15.5485 21.3305 14.2498 20.081 12.2347C20.0275 12.149 19.9074 12.0511 19.8176 12.0491C19.0243 12.0339 18.232 12.04 17.3862 12.04Z" fill="black"/>
</g>
<defs>
<clipPath id="clip0_25_2776">
<rect width="33" height="32" fill="white"/>
</clipPath>
</defs>
</svg>
