<svg width="30" height="30" viewBox="0 0 30 30" fill="none" xmlns="http://www.w3.org/2000/svg">
    <g clip-path="url(#clip0_34_2305)">
        <path
            d="M15 30C10.863 30 7.11416 28.3072 4.38813 25.5878C1.66667 22.8958 0 19.1498 0 14.9886C0 10.8502 1.66667 7.10418 4.38813 4.41217C7.10959 1.69278 10.8584 0 15 0C19.137 0 22.8858 1.69278 25.6119 4.41217C28.3333 7.10418 30 10.8502 30 14.9886C30 19.1498 28.3333 22.8958 25.6119 25.5924C22.8858 28.3072 19.137 30 15 30ZM5.08219 24.8943C7.61187 27.4494 11.137 29.0008 15 29.0008C18.8904 29.0008 22.3881 27.4449 24.9178 24.8943C27.4475 22.3665 29.0274 18.8715 29.0274 14.9886C29.0274 11.1285 27.4429 7.63346 24.9178 5.07833C22.3881 2.55513 18.8904 0.99924 15 0.99924C11.137 0.99924 7.61187 2.55513 5.08219 5.07833C2.55708 7.63346 0.972603 11.1285 0.972603 14.9886C0.972603 18.8715 2.55708 22.3711 5.08219 24.8943Z"
            fill="black" />
        <path fill-rule="evenodd" clip-rule="evenodd"
            d="M18.0164 6H9.67429C9.29836 6 9 6.31414 9 6.70995V23.2712C9 23.667 9.29836 24 9.67429 24H18.0164C18.3923 24 18.6907 23.6607 18.6907 23.2712V18.6346H17.903V21.1414H9.78767V8.86492H17.903V11.3717H18.6907V6.71623C18.6907 6.32042 18.3923 6 18.0164 6ZM20.3794 11.7047H11.6077C11.2496 11.7047 10.9871 12 10.9871 12.377V17.6482C10.9871 18.0251 11.2496 18.3016 11.6077 18.3016H20.3794C20.7195 18.3016 21 18.0251 21 17.6482V12.377C21 12 20.7195 11.7047 20.3794 11.7047ZM13.183 13.0304H13.4814C13.7081 13.0304 13.911 13.1686 14.0244 13.3634H13.183V13.0304ZM12.2282 13.6775C12.2282 13.3194 12.5087 13.0241 12.8667 13.0241V14.9969C12.5087 14.9969 12.2282 14.7016 12.2282 14.3435V13.6775ZM13.4814 16.9948H12.2282V16.3225H13.4814V16.9948ZM13.4814 15.0031H13.183V14.3497H14.1198C14.1198 14.7079 13.8394 15.0031 13.4814 15.0031ZM14.1198 14.0168H13.183V13.6838H14.1198V14.0168ZM15.5818 16.9948H14.3287V16.3225H15.5818V16.9948ZM17.6643 16.9948H16.4112V16.3225H17.6643V16.9948ZM19.7409 16.9948H18.5057V16.3225H19.7409V16.9948ZM18.8041 15.0031C18.5594 15.0031 18.3565 14.9026 18.1835 14.7455C18.0164 14.9026 17.7897 15.0031 17.545 15.0031C17.0378 15.0031 16.6082 14.5696 16.6082 14.0168C16.6082 13.4827 17.0378 13.0304 17.545 13.0304C17.7897 13.0304 18.0104 13.1309 18.1835 13.288C18.3506 13.1309 18.5594 13.0304 18.8041 13.0304C19.3292 13.0304 19.7409 13.4827 19.7409 14.0168C19.7409 14.5696 19.3292 15.0031 18.8041 15.0031ZM12.3774 7.52042C12.4132 7.52042 12.4729 7.53927 12.4729 7.60209C12.4729 7.66492 12.4192 7.68377 12.3774 7.68377C12.3416 7.68377 12.2998 7.66492 12.2998 7.60209C12.2998 7.53927 12.3416 7.52042 12.3774 7.52042ZM11.7926 7.40105C11.8702 7.40105 11.9418 7.48272 11.9418 7.59581C11.9418 7.67749 11.8642 7.77173 11.7926 7.77173C11.6793 7.77173 11.6077 7.6712 11.6077 7.59581C11.6077 7.48272 11.6852 7.40105 11.7926 7.40105ZM11.0288 7.32565C11.1601 7.32565 11.2735 7.42618 11.2735 7.58325C11.2735 7.68377 11.1601 7.79686 11.0288 7.79686C10.8976 7.79686 10.82 7.67749 10.82 7.58325C10.82 7.42618 10.8976 7.32565 11.0288 7.32565ZM10.2233 7.28796C10.3545 7.28796 10.4679 7.40733 10.4679 7.58325C10.4679 7.72147 10.3545 7.84084 10.2233 7.84084C10.0562 7.84084 9.94281 7.72147 9.94281 7.58325C9.93685 7.40105 10.0502 7.28796 10.2233 7.28796ZM13.8394 21.399C14.4182 21.399 14.8717 21.8702 14.8717 22.467C14.8717 23.0764 14.4242 23.5539 13.8394 23.5539C13.2785 23.5539 12.8071 23.0827 12.8071 22.467C12.8071 21.8702 13.2785 21.399 13.8394 21.399ZM12.9204 7.52042H14.6629C14.7404 7.52042 14.7941 7.58325 14.7941 7.63979C14.7941 7.72147 14.7404 7.77801 14.6629 7.77801H12.9204C12.8429 7.77801 12.7892 7.72147 12.7892 7.63979C12.7892 7.58325 12.8429 7.52042 12.9204 7.52042Z"
            fill="black" />
    </g>
    <defs>
        <clipPath id="clip0_34_2305">
            <rect width="30" height="30" fill="white" />
        </clipPath>
    </defs>
</svg>
    