<svg width="17" height="17" viewBox="0 0 17 17" fill="none" xmlns="http://www.w3.org/2000/svg">
<path d="M-7.05413e-07 8.06898C0.0664018 7.60488 0.109194 7.13636 0.205109 6.67816C0.427189 5.61125 0.861018 4.63066 1.4852 3.71279C1.7604 4.14369 2.1175 4.4735 2.58158 4.70371C1.39519 6.68037 1.13474 8.75665 1.91386 10.9266C2.42885 12.3602 3.3489 13.4987 4.61423 14.3435C7.25852 16.1107 10.6613 15.8532 12.9942 13.8883C15.5463 11.739 16.1705 8.32501 14.8638 5.54116C14.1054 3.92529 12.8909 2.74992 11.2523 2.04307C9.61655 1.3377 7.93952 1.30523 6.22855 1.8505C6.11198 1.35246 5.88916 0.921559 5.50624 0.529767C5.91867 0.413189 6.29348 0.285543 6.67787 0.205119C7.07702 0.121744 7.48577 0.0848519 7.89009 0.0265628C7.92771 0.021398 7.9646 0.00959257 8.00149 6.99513e-07C8.33351 7.28538e-07 8.66552 7.57564e-07 8.99753 7.86589e-07C9.04032 0.00959267 9.08238 0.0243494 9.12591 0.0273008C10.4554 0.121006 11.6994 0.50173 12.8341 1.19677C15.0357 2.54628 16.3911 4.49195 16.867 7.03749C16.9267 7.35623 16.9562 7.68014 16.999 8.00184C16.999 8.33387 16.999 8.66589 16.999 8.99792C16.9857 9.11745 16.9717 9.23698 16.9584 9.35651C16.7578 11.1561 16.0819 12.752 14.8764 14.1052C13.2753 15.9026 11.2604 16.8714 8.85661 16.9887C7.18032 17.0699 5.60363 16.6795 4.16933 15.8037C1.9633 14.4579 0.609426 12.5093 0.133542 9.96301C0.0737796 9.64426 0.0442675 9.31962 0.00147482 8.99792C-7.59596e-07 8.68877 -7.32504e-07 8.37887 -7.05413e-07 8.06898Z" fill="white"/>
<path d="M8.49287 13.5944C5.67151 13.5782 3.36882 11.2658 3.40571 8.4856C3.44334 5.65305 5.71578 3.3901 8.50616 3.40634C11.3275 3.42257 13.6302 5.73495 13.5933 8.51512C13.5557 11.3469 11.2833 13.6106 8.49287 13.5944ZM9.23437 7.76621C9.23437 7.68505 9.23437 7.62529 9.23437 7.56626C9.23437 7.04092 9.23511 6.51484 9.23363 5.9895C9.23363 5.90687 9.23437 5.82201 9.21666 5.74233C9.13329 5.3712 8.80275 5.14025 8.41467 5.17641C8.05757 5.20961 7.77425 5.50622 7.76909 5.87809C7.76023 6.44254 7.7654 7.00698 7.7654 7.57069C7.7654 7.62971 7.7654 7.68874 7.7654 7.76474C7.68572 7.76474 7.62595 7.76474 7.56619 7.76474C7.04087 7.76474 6.51482 7.764 5.9895 7.76548C5.90687 7.76548 5.82202 7.76474 5.74234 7.78245C5.37122 7.86582 5.14029 8.19637 5.17644 8.58447C5.20964 8.94159 5.50624 9.22492 5.87809 9.23008C6.44251 9.23894 7.00694 9.23377 7.57062 9.23451C7.62964 9.23451 7.68867 9.23451 7.76466 9.23451C7.76466 9.3142 7.76466 9.37396 7.76466 9.43299C7.76466 9.95833 7.76392 10.4844 7.7654 11.0097C7.7654 11.0924 7.76466 11.1772 7.78237 11.2569C7.86574 11.6281 8.19628 11.859 8.58436 11.8228C8.94146 11.7896 9.22478 11.493 9.22994 11.1212C9.2388 10.5567 9.23363 9.99227 9.23363 9.42856C9.23363 9.36953 9.23363 9.31051 9.23363 9.23451C9.31331 9.23451 9.37308 9.23451 9.43284 9.23451C9.99726 9.23377 10.5617 9.24041 11.1254 9.23008C11.5334 9.2227 11.8381 8.88699 11.8278 8.48044C11.8182 8.08201 11.5127 7.77212 11.104 7.76769C10.4909 7.76105 9.87773 7.76621 9.23437 7.76621Z" fill="white"/>
<path d="M2.29103 2.36846C2.29398 1.60038 2.93439 0.962147 3.6995 0.965836C4.46755 0.970263 5.1087 1.61513 5.10206 2.37584C5.09542 3.14614 4.45353 3.78437 3.69212 3.77847C2.92185 3.7733 2.28807 3.13508 2.29103 2.36846Z" fill="white"/>
</svg>
