<svg width="26" height="28" viewBox="0 0 26 28" fill="none" xmlns="http://www.w3.org/2000/svg">
<path d="M17.4797 14.8077C19.672 13.3597 21.125 10.8857 21.125 8.07692C21.125 3.6237 17.4797 0 13 0C8.52027 0 4.875 3.6237 4.875 8.07692C4.875 10.8857 6.32432 13.3597 8.52027 14.8077C3.55743 16.6268 0 21.3638 0 26.9231V28H26V26.9231C25.9963 21.3638 22.4426 16.6268 17.4797 14.8077ZM7.03801 8.07692C7.03801 4.80977 9.70974 2.15385 12.9963 2.15385C16.2829 2.15385 18.9547 4.80977 18.9547 8.07692C18.9547 11.3441 16.2829 14 12.9963 14C9.7134 14 7.03801 11.3441 7.03801 8.07692ZM2.2179 25.8462C2.76323 20.4106 7.38936 16.1538 12.9963 16.1538C18.6033 16.1538 23.2295 20.4106 23.7748 25.8462H2.2179Z" fill="#0B141F"/>
</svg>
