<svg width="41" height="29" viewBox="0 0 41 29" fill="none" xmlns="http://www.w3.org/2000/svg">
<g clip-path="url(#clip0_25_2768)">
<path d="M25.2219 13.2799C25.085 12.0177 24.7411 10.8258 24.2357 9.73582L26.8537 7.81608L24.2427 4.2403L21.6248 6.16004C19.8315 4.51455 17.5153 3.4492 14.9991 3.22769L14.6481 0L10.2474 0.478177L10.5983 3.70587C8.18386 4.46532 6.15193 6.00182 4.75169 7.99539L1.78276 6.68392L0 10.7344L2.96542 12.0458C2.70573 13.2202 2.62501 14.4578 2.76188 15.7201C2.89874 16.9823 3.23915 18.1742 3.7445 19.2642L1.12651 21.1839L3.73748 24.7597L6.35547 22.84C8.15227 24.489 10.4649 25.5508 12.9847 25.7723L13.3356 29L17.7329 28.5218L17.3819 25.2941C19.7964 24.5347 21.8283 22.9982 23.2285 21.0046L26.1975 22.3161L27.9802 18.2621L25.0148 16.9507C25.278 15.7798 25.3552 14.5422 25.2219 13.2799ZM14.9078 22.949C10.2509 23.4553 6.0642 20.0834 5.55885 15.4142C5.0535 10.7484 8.41898 6.55383 13.0794 6.04753C17.7364 5.54122 21.923 8.91307 22.4284 13.5823C22.9302 18.2516 19.5648 22.4427 14.9078 22.949Z" fill="#0B141F"/>
<path d="M39.8946 19.0427C39.8946 18.4063 39.7893 17.798 39.5963 17.2284L41 16.4162L39.8946 14.4965L38.4873 15.3087C37.6837 14.3945 36.5922 13.7405 35.3499 13.4909V11.8665H33.139V13.4909C31.9002 13.737 30.8053 14.391 30.0016 15.3087L28.5979 14.4965L27.4924 16.4162L28.8962 17.2284C28.7032 17.798 28.5979 18.4098 28.5979 19.0427C28.5979 19.6791 28.7032 20.2873 28.8962 20.8569L27.4924 21.6691L28.5979 23.5889L30.0016 22.7767C30.8053 23.6944 31.8967 24.3448 33.139 24.5944V26.2188H35.3499V24.5944C36.5887 24.3483 37.6837 23.6944 38.4873 22.7767L39.891 23.5889L40.9965 21.6691L39.5927 20.8569C39.7893 20.2873 39.8946 19.6756 39.8946 19.0427ZM34.248 23.2935C31.9037 23.2935 30.0051 21.3914 30.0051 19.0427C30.0051 16.694 31.9037 14.7918 34.248 14.7918C36.5922 14.7918 38.4908 16.694 38.4908 19.0427C38.4908 21.3914 36.5922 23.2935 34.248 23.2935Z" fill="#0B141F"/>
</g>
<defs>
<clipPath id="clip0_25_2768">
<rect width="41" height="29" fill="white"/>
</clipPath>
</defs>
</svg>
