<svg width="7" height="6" viewBox="0 0 7 6" fill="none" xmlns="http://www.w3.org/2000/svg">
    <path
        d="M5.00929 5.33149C5.03474 5.50403 4.92274 5.58551 4.75473 5.50403L3.36994 4.84261C3.20194 4.76113 2.92701 4.76113 2.75901 4.83782L1.36404 5.48486C1.19603 5.56154 1.08402 5.48486 1.10948 5.30752L1.34367 3.86007C1.37422 3.68753 1.28767 3.4383 1.16039 3.31368L0.0759814 2.26404C-0.056388 2.13943 -0.0105686 2.01002 0.172712 1.98126L1.70514 1.74641C1.88842 1.71766 2.11243 1.56908 2.19898 1.41091L2.92192 0.116833C3.00847 -0.0413317 3.15103 -0.0365388 3.23757 0.116833L3.95033 1.4157C4.03688 1.57387 4.2558 1.72245 4.43908 1.756L5.97151 2.00523C6.15479 2.03399 6.20061 2.16339 6.06824 2.28801L4.97365 3.32806C4.84128 3.45268 4.75473 3.69711 4.78528 3.86966L5.00929 5.33149Z"
        fill="url(#paint0_radial_55_38)" />
    <path opacity="0.5"
        d="M3.08487 0.0831235C3.11542 0.0831235 3.14597 0.111881 3.17652 0.159809L3.88927 1.45868C3.98601 1.63602 4.22529 1.79897 4.43403 1.83732L5.96645 2.08655C6.02246 2.09613 6.06319 2.1153 6.07337 2.14406C6.08355 2.16803 6.06319 2.21116 6.02246 2.24951L4.92787 3.28956C4.78022 3.42855 4.68349 3.69695 4.71404 3.89346L4.93805 5.34091C4.94314 5.38884 4.93805 5.42718 4.92277 5.44636C4.91768 5.45115 4.9075 5.46073 4.88205 5.46073C4.85659 5.46073 4.82604 5.45115 4.7955 5.43677L3.40562 4.78014C3.31398 4.73701 3.19179 4.71304 3.06451 4.71304C2.93723 4.71304 2.82014 4.73701 2.7285 4.78014L1.33353 5.42239C1.30298 5.43677 1.27243 5.44636 1.24698 5.44636C1.21643 5.44636 1.20625 5.43677 1.20116 5.43198C1.18588 5.41281 1.1757 5.37446 1.18588 5.32653L1.42008 3.87908C1.45062 3.68258 1.35898 3.41417 1.21134 3.27518L0.126928 2.22554C0.0861986 2.1872 0.0658348 2.14885 0.0760171 2.1201C0.0861993 2.09613 0.126928 2.07217 0.18293 2.06258L1.71536 1.82773C1.9241 1.79418 2.16338 1.63122 2.2652 1.45389L2.99833 0.164602C3.02378 0.111881 3.05942 0.0831235 3.08487 0.0831235ZM3.08487 0.0112305C3.02887 0.0112305 2.97287 0.0495734 2.92705 0.126259L2.20411 1.42034C2.11756 1.57371 1.89355 1.72708 1.71027 1.75584L0.177839 1.99069C-0.00544161 2.01945 -0.0512611 2.14406 0.0811083 2.27347L1.16552 3.32311C1.29789 3.44772 1.37935 3.69695 1.3488 3.8695L1.11461 5.31695C1.09424 5.44636 1.15025 5.52304 1.24698 5.52304C1.28261 5.52304 1.32334 5.51346 1.36407 5.49428L2.75904 4.84725C2.8405 4.8089 2.95251 4.78973 3.05942 4.78973C3.17142 4.78973 3.28343 4.8089 3.36489 4.85204L4.75477 5.50866C4.80059 5.52783 4.84132 5.53742 4.87695 5.53742C4.97368 5.53742 5.02969 5.46073 5.00932 5.33612L4.78531 3.88867C4.75986 3.71613 4.84641 3.4669 4.97369 3.34707L6.06828 2.30702C6.20065 2.1824 6.15483 2.053 5.97155 2.02424L4.43912 1.77501C4.25583 1.74625 4.03692 1.59288 3.95037 1.43472L3.23761 0.135845C3.20197 0.054366 3.14088 0.0112305 3.08487 0.0112305Z"
        fill="url(#paint1_radial_55_38)" />
    <defs>
        <radialGradient id="paint0_radial_55_38" cx="0" cy="0" r="1" gradientUnits="userSpaceOnUse"
            gradientTransform="translate(1.04701 5.60094) scale(6.4247 6.04833)">
            <stop offset="0.3548" stop-color="#FFC200" />
            <stop offset="0.5084" stop-color="#FFBD07" />
            <stop offset="0.7249" stop-color="#FFAF19" />
            <stop offset="0.9777" stop-color="#FF9737" />
            <stop offset="1" stop-color="#FF953A" />
        </radialGradient>
        <radialGradient id="paint1_radial_55_38" cx="0" cy="0" r="1" gradientUnits="userSpaceOnUse"
            gradientTransform="translate(0.558503 7.09971) scale(9.28943 8.74523)">
            <stop offset="0.3548" stop-color="#FFC200" />
            <stop offset="0.5084" stop-color="#FFBD07" />
            <stop offset="0.7249" stop-color="#FFAF19" />
            <stop offset="0.9777" stop-color="#FF9737" />
            <stop offset="1" stop-color="#FF953A" />
        </radialGradient>
    </defs>
</svg>
    