<svg width="30" height="31" viewBox="0 0 30 31" fill="none" xmlns="http://www.w3.org/2000/svg">
<g clip-path="url(#clip0_25_1152)">
<path d="M20.7905 29.6689C28.4386 26.3852 32.05 17.3479 28.8566 9.48339C25.6633 1.61892 16.8745 -2.09455 9.22635 1.18913C1.57821 4.47282 -2.0331 13.5102 1.16025 21.3747C4.35361 29.2391 13.1424 32.9526 20.7905 29.6689Z" fill="black"/>
<path d="M19.588 26.7234C25.6614 24.1198 28.5346 16.952 26.0055 10.7138C23.4763 4.47561 16.5025 1.52921 10.429 4.13286C4.35562 6.7365 1.48243 13.9042 4.01161 20.1424C6.54079 26.3807 13.5146 29.327 19.588 26.7234Z" fill="black"/>
<mask id="mask0_25_1152" style="mask-type:luminance" maskUnits="userSpaceOnUse" x="3" y="3" width="24" height="25">
<path d="M19.588 26.7234C25.6614 24.1198 28.5346 16.952 26.0055 10.7138C23.4763 4.47561 16.5025 1.52921 10.429 4.13286C4.35562 6.7365 1.48243 13.9042 4.01161 20.1424C6.54079 26.3807 13.5146 29.327 19.588 26.7234Z" fill="white"/>
</mask>
<g mask="url(#mask0_25_1152)">
<path d="M15.0064 13.3939C17.4684 13.3939 19.4642 11.3416 19.4642 8.81C19.4642 6.27837 17.4684 4.22607 15.0064 4.22607C12.5444 4.22607 10.5486 6.27837 10.5486 8.81C10.5486 11.3416 12.5444 13.3939 15.0064 13.3939Z" fill="url(#paint0_linear_25_1152)"/>
<path d="M23.4402 22.7958C23.4402 18.0054 19.6651 14.1235 15.0065 14.1235C10.3479 14.1235 6.57275 18.0054 6.57275 22.7958V31.0001H23.4536V22.7958H23.4402Z" fill="url(#paint1_linear_25_1152)"/>
</g>
</g>
<defs>
<linearGradient id="paint0_linear_25_1152" x1="15.0011" y1="13.3854" x2="15.0011" y2="4.2313" gradientUnits="userSpaceOnUse">
<stop stop-color="white"/>
<stop offset="0.9959" stop-color="white"/>
</linearGradient>
<linearGradient id="paint1_linear_25_1152" x1="15.0011" y1="31.0063" x2="15.0011" y2="14.122" gradientUnits="userSpaceOnUse">
<stop stop-color="#44B649"/>
<stop offset="0.9959" stop-color="#44B649"/>
</linearGradient>
<clipPath id="clip0_25_1152">
<rect width="30" height="31" fill="white"/>
</clipPath>
</defs>
</svg>
