<svg width="30" height="30" viewBox="0 0 30 30" fill="none" xmlns="http://www.w3.org/2000/svg">
    <g clip-path="url(#clip0_34_2308)">
        <path
            d="M15 30C10.863 30 7.11416 28.3072 4.38813 25.5878C1.66667 22.8958 0 19.1498 0 14.9886C0 10.8502 1.66667 7.10418 4.38813 4.41217C7.10959 1.69278 10.8584 0 15 0C19.137 0 22.8858 1.69278 25.6119 4.41217C28.3333 7.10418 30 10.8502 30 14.9886C30 19.1498 28.3333 22.8958 25.6119 25.5924C22.8858 28.3072 19.137 30 15 30ZM5.08219 24.8943C7.61187 27.4494 11.137 29.0008 15 29.0008C18.8904 29.0008 22.3881 27.4449 24.9178 24.8943C27.4475 22.3665 29.0274 18.8715 29.0274 14.9886C29.0274 11.1285 27.4429 7.63346 24.9178 5.07833C22.3881 2.55513 18.8904 0.99924 15 0.99924C11.137 0.99924 7.61187 2.55513 5.08219 5.07833C2.55708 7.63346 0.972603 11.1285 0.972603 14.9886C0.972603 18.8715 2.55708 22.3711 5.08219 24.8943Z"
            fill="black" />
        <path fill-rule="evenodd" clip-rule="evenodd"
            d="M22.8886 9H7.11141C6.47114 9 6 9.54077 6 10.2232V19.8155C6 20.4979 6.47114 21 7.11141 21H22.8886C23.4926 21 24 20.4979 24 19.8155V10.2232C24 9.54077 23.4926 9 22.8886 9ZM9.94429 11.4077H10.4819C10.8866 11.4077 11.255 11.6588 11.4604 12.0193H9.94429V11.4077ZM8.22282 12.5923C8.22282 11.9485 8.72416 11.4077 9.37047 11.4077V15C8.7302 15 8.22282 14.4592 8.22282 13.8155V12.5923ZM10.4819 18.6309H8.22282V17.4077H10.4819V18.6309ZM10.4819 15H9.94429V13.8155H11.6295C11.6295 14.4592 11.1221 15 10.4819 15ZM11.6295 13.2039H9.94429V12.5923H11.6295V13.2039ZM14.257 18.6309H11.998V17.4077H14.257V18.6309ZM18.002 18.6309H15.743V17.4077H18.002V18.6309ZM21.7409 18.6309H19.5181V17.4077H21.7409V18.6309ZM20.0557 15C19.6148 15 19.2463 14.8197 18.9443 14.53C18.6423 14.8197 18.2376 15 17.7966 15C16.8846 15 16.1114 14.2082 16.1114 13.2039C16.1114 12.2318 16.8846 11.4077 17.7966 11.4077C18.2315 11.4077 18.6362 11.588 18.9443 11.8712C19.2463 11.5815 19.6208 11.4077 20.0557 11.4077C20.998 11.4077 21.7409 12.2318 21.7409 13.2039C21.7409 14.2082 20.998 15 20.0557 15Z"
            fill="black" />
    </g>
    <defs>
        <clipPath id="clip0_34_2308">
            <rect width="30" height="30" fill="white" />
        </clipPath>
    </defs>
</svg>
    